<svg width="127" height="109" viewBox="0 0 127 109" fill="none" xmlns="http://www.w3.org/2000/svg">
<path d="M7 108V22.2C7 10.5 16.5 1 28.2 1C40 1 49.5 10.5 49.5 22.2" stroke="#D3D3D3" stroke-width="2" stroke-miterlimit="10"/>
<path d="M1 108H13" stroke="#D3D3D3" stroke-width="2" stroke-miterlimit="10" stroke-linecap="round"/>
<path d="M37 34.7C37 27.8 42.6 22.2 49.5 22.2C56.4 22.2 62 27.8 62 34.7" stroke="#D3D3D3" stroke-width="2" stroke-miterlimit="10" stroke-linecap="round"/>
<path d="M41.6 30.7C41.9 29.1 43 27.9 44.3 27.2" stroke="#D3D3D3" stroke-width="2" stroke-miterlimit="10" stroke-linecap="round"/>
<path d="M52.5 35.3C52.5 37 51.2 38.3 49.5 38.3C47.8 38.3 46.5 37 46.5 35.3" stroke="#D3D3D3" stroke-width="2" stroke-miterlimit="10" stroke-linecap="round"/>
<path d="M37 34.7H62" stroke="#D3D3D3" stroke-width="2" stroke-miterlimit="10" stroke-linecap="round"/>
<path d="M69.3001 73.4C69.3001 69 65.7 65.4 61.3 65.4C56.9 65.4 53.3 69 53.3 73.4C53.3 77.8 56.9 81.4 61.3 81.4C61.6 81.4 62 81.4 62.3 81.3V108H69.3001V73.4Z" stroke="#D3D3D3" stroke-width="2" stroke-miterlimit="10" stroke-linecap="round"/>
<path d="M110 73.4C110 69 113.6 65.4 118 65.4C122.4 65.4 126 69 126 73.4C126 77.8 122.4 81.4 118 81.4C117.7 81.4 117.3 81.4 117 81.3V108H110V73.4Z" stroke="#D3D3D3" stroke-width="2" stroke-miterlimit="10" stroke-linecap="round"/>
<path d="M110 98.3H69.3V102.3H110V98.3Z" stroke="#D3D3D3" stroke-width="2" stroke-miterlimit="10" stroke-linecap="round"/>
<path d="M110 84.3C110 84.3 101.2 81.3 89.6 81.3C78.1 81.3 69.2 84.3 69.2 84.3V98.3H110V84.3Z" stroke="#D3D3D3" stroke-width="2" stroke-miterlimit="10" stroke-linecap="round"/>
<path d="M113.8 66V59C113.8 55.7 111.1 52.9 107.7 52.9H71.5C68.2 52.9 65.4 55.6 65.4 59V66" stroke="#D3D3D3" stroke-width="2" stroke-miterlimit="10" stroke-linecap="round"/>
<path d="M82.6 81.3L79.6 73" stroke="#D3D3D3" stroke-width="2" stroke-miterlimit="10" stroke-linecap="round"/>
<path d="M96.6 81.3L99.6 73" stroke="#D3D3D3" stroke-width="2" stroke-miterlimit="10" stroke-linecap="round"/>
<path d="M107.6 41.7H71.6C71 41.7 70.6 41.3 70.6 40.7V15.7C70.6 15.1 71 14.7 71.6 14.7H107.6C108.2 14.7 108.6 15.1 108.6 15.7V40.7C108.6 41.3 108.2 41.7 107.6 41.7Z" stroke="#D3D3D3" stroke-width="2" stroke-miterlimit="10" stroke-linecap="round"/>
<path d="M81.7 29.2L72.2 40.4C71.8 41 72.3 41.8 73 41.8H92C92.7 41.8 93.1 41 92.8 40.4L83.3 29.2C82.9 28.6 82 28.6 81.7 29.2Z" stroke="#D3D3D3" stroke-width="2" stroke-miterlimit="10" stroke-linecap="round"/>
<path d="M100 33L93.4 40.7C93.2 41.1 93.5 41.7 93.9 41.7H107.1C107.6 41.7 107.9 41.2 107.6 40.7L101 33C100.9 32.6 100.3 32.6 100 33Z" stroke="#D3D3D3" stroke-width="2" stroke-miterlimit="10" stroke-linecap="round"/>
<path d="M93.3 29.9C95.233 29.9 96.8 28.2435 96.8 26.2C96.8 24.1565 95.233 22.5 93.3 22.5C91.3671 22.5 89.8 24.1565 89.8 26.2C89.8 28.2435 91.3671 29.9 93.3 29.9Z" stroke="#D3D3D3" stroke-width="2" stroke-miterlimit="10" stroke-linecap="round"/>
</svg>
