<svg width="122" height="109" viewBox="0 0 122 109" fill="none" xmlns="http://www.w3.org/2000/svg">
<g clip-path="url(#clip0)">
<path d="M120.2 98.7C120.1 98.6 114.1 93.6 111.3 91.1C107.5 87.8 103.6 86 103.4 86L102.8 85.7L101.4 87.1L97 82.6C97.2 82.4 97.4 82.2 97.5 82C98 81.4 98.5 80.7 98.9 80C99.3 79.4 99.6 78.7 100 78C102.2 73.1 102.2 67.5 100 62.6C99.9 62.4 99.8 62.2 99.7 62C99.4 61.3 99 60.6 98.5 60C97.9 59.1 97.1 58.2 96.3 57.3C93.6 54.6 88 52.6 82 51.2V42H100C101.1 42 102 41.1 102 40V22C102 20.9 101.1 20 100 20H62C61.6 20 61.3 20.1 61 20.3C60.7 20.1 60.4 20 60 20H42V2C42 0.9 41.1 0 40 0H2C0.9 0 0 0.9 0 2V20C0 21.1 0.9 22 2 22H20V40H2C0.9 40 0 40.9 0 42V60C0 61.1 0.9 62 2 62H20V80C20 81.1 20.9 82 22 82H40C40 82.2 40 82.3 40 82.3V99.9C40 101.1 40.9 102 42 102H80C81.1 102 82 101.1 82 99.9V88.7C82.4 88.7 82.9 88.8 83.3 88.8C87.7 88.8 92.1 87.2 95.6 84.1L100.1 88.6L98.7 90L99 90.6C99.1 90.8 100.9 94.7 104.1 98.5C106.5 101.3 111.6 107.3 111.7 107.4C112.8 108.5 114.3 109.1 115.9 109.1C117.5 109.1 119 108.5 120.2 107.3C121.3 106.2 122 104.7 122 103.1C122 101.4 121.4 99.9 120.2 98.7ZM62.9 49.9C62 50.8 61.6 52 61.7 53.2C61.9 55.2 62.2 57.5 62.5 60C62.4 60 62.4 60.1 62.3 60.1C62.3 60.1 62.2 60 62 60H42V42H77C76.3 45.3 75.5 47.8 74.6 49.9C71.5 49.4 68.6 49.1 66.2 48.8C65 48.7 63.8 49.1 62.9 49.9ZM79.1 42H80V50.8C78.9 50.6 77.8 50.4 76.6 50.2C77.6 48 78.4 45.3 79.1 42ZM62 22H100V40H62V22ZM60 40H22V22H60V40ZM2 2H40V20H2V2ZM2 42H40V60H2V42ZM40.4 80H22V62H58.6C56.7 63 54.7 64.2 52.6 65.7C43.9 72 41.2 77.2 40.4 80ZM80 99.9C80 100 80 100 80 99.9L42 100C42 100 42 100 42 99.9V82C42.1 80.9 43 75.2 53.8 67.3C57.1 64.9 60.2 63.4 62.9 62.1C64.2 70.3 66.5 79.6 70.3 83.3C73 86 76.4 87.7 80 88.4V99.9ZM94.9 81.9C94.9 82 94.9 82 94.9 81.9C91.3 85.5 86.6 87 82 86.6C81.3 86.5 80.7 86.5 80 86.3C77 85.7 74.1 84.2 71.7 81.9C68.2 78.4 66 68.9 64.8 61.2C64.7 60.5 64.6 59.8 64.5 59.1C64.2 56.7 63.9 54.6 63.7 53C63.6 52.4 63.9 51.8 64.3 51.3C64.7 50.9 65.2 50.7 65.8 50.7C65.9 50.7 65.9 50.7 66 50.7C67.9 50.9 70.6 51.2 73.6 51.7C74.3 51.8 75 51.9 75.7 52C77.1 52.2 78.5 52.5 80 52.8C80.7 52.9 81.3 53.1 82 53.2C87.4 54.5 92.5 56.2 94.9 58.6C95.3 59 95.7 59.4 96 59.9C96.5 60.5 97 61.2 97.4 61.9C100.7 67.5 100.4 74.6 96.5 79.9C96 80.7 95.5 81.3 94.9 81.9ZM118.8 105.8C117.2 107.4 114.7 107.4 113.2 106C113.1 105.9 108.1 99.9 105.6 97.1C103.3 94.4 101.7 91.5 101.1 90.3L103.3 88.1C104.5 88.7 107.4 90.3 110.1 92.6C112.9 95 118.9 100.1 118.9 100.1C119.6 100.8 120 101.8 120 102.9C120 104 119.6 105 118.8 105.8Z" fill="white"/>
</g>
<defs>
<clipPath id="clip0">
<rect width="122" height="109" fill="white"/>
</clipPath>
</defs>
</svg>
