<svg width="505" height="1280" viewBox="0 0 505 1280" fill="none" xmlns="http://www.w3.org/2000/svg">
<g clip-path="url(#clip0)">
<path fill-rule="evenodd" clip-rule="evenodd" d="M12.8999 329.7C12.0999 312.5 12.5999 295.5 11.7999 278.3C11.0999 262.6 8.29995 246.9 7.49995 231.2C5.99995 197.9 5.89995 164.2 4.29995 130.5C1.99995 88.6 7.69995 43.5 4.59995 0H1.09995C1.99995 47.9 -0.400054 92.6 0.0999459 140.1C2.49995 173.3 2.39995 206.2 4.39995 239.7C5.39995 256.1 6.69995 272.3 7.59995 289C9.39995 323.4 9.99995 356 9.69995 387.6C9.69995 387.6 10.8999 387.8 10.7999 388.7C8.29995 401.2 8.69995 422 8.69995 436.9C8.69995 454.6 8.79995 472.4 8.69995 489.4C8.59995 500.9 8.99995 510.1 8.69995 524.7C8.59995 527.4 5.39995 532.3 9.79995 534.3C13.2999 500.6 7.79995 458.1 12.9999 426.1C12.3999 457.7 12.2999 489.7 11.8999 519.3C11.7999 523.9 10.4999 529.4 13.9999 533.2C14.2999 471.4 17.3999 414.1 15.0999 353.2C14.7999 345.5 13.2999 337.7 12.8999 329.7ZM11.7999 413.3C12.3999 411.6 12.8999 413.2 12.8999 414.4C12.2999 416 11.7999 414.4 11.7999 413.3ZM12.8999 422.9C12.0999 424.9 11.6999 422.3 11.7999 420.8C12.6999 418.8 12.9999 421.4 12.8999 422.9Z" fill="#262626"/>
<path d="M45 251.5C44.7 248.6 43.1 245.8 42.9 242.9C42.1 233.2 42 223.7 40.8 214C39.3 202.1 36.5 190.5 35.4 178.6C33.1 152.2 34.5 125.9 36.5 99.3C41.4 68.7 44 35.6 44 0H37.5C35.4 10.4 36.9 20.6 36.5 30.8C36.1 41.2 34.8 52.2 35.4 64C29.6 95.5 30.6 131.4 30 170.1C32 195.8 36.3 221.1 38.6 247.2C40.8 273 41.8 299.7 42.9 327.5C46 344.2 41.7 361.9 44.9 378C44.7 375.6 46.2 372.7 46.1 376.8C49.7 464.1 43.4 555.7 46.1 638.2C50 637.8 48.2 630.6 48.2 626.4C48.5 614.3 47.1 600.2 47.1 587.8C47.2 557.6 47.8 526.9 49.2 496.7C49.2 495.9 48.1 495.6 48.1 494.6C48.1 477.2 48.7 450.1 49.2 429.3C50 393.6 50.3 333.1 47.1 290C46.2 277.3 46.6 264 45 251.5Z" fill="#262626"/>
<path fill-rule="evenodd" clip-rule="evenodd" d="M79.2999 361.9C78.2999 338.7 77.5999 315.8 77.1999 292.3C73.5999 275.6 76.3999 252.4 71.7999 236.6C69.5999 219.2 67.1999 200.3 66.3999 180.9C65.5999 161 66.9999 140.5 66.3999 119.8C71.2999 102.2 72.5999 81 73.8999 59.8C74.8999 39.8 76.4999 20.5 76.9999 0H69.5999C69.0999 4.7 71.4999 6.5 70.6999 11.6C67.1999 44.6 67.0999 80.8 59.9999 110.2C59.6999 126.4 59.1999 146.6 57.8999 158.4C60.9999 179.6 62.0999 202.8 64.2999 224.8C73.3999 287.8 74.7999 360.6 73.8999 426.2C74.4999 430.9 76.1999 435.7 75.9999 441.2C77.0999 461.1 73.5999 485.8 78.0999 502.3C78.7999 480.9 76.6999 456.6 79.1999 437C81.0999 487.8 76.2999 537.6 77.0999 583.8C81.8999 536.5 82.6999 486.3 80.2999 438.1C79.0999 411.8 80.3999 386.5 79.2999 361.9Z" fill="#262626"/>
<path fill-rule="evenodd" clip-rule="evenodd" d="M94.3 866.4C94.3 866.8 93 868.9 93.2 870.7C94.3 878 94 892.3 94.3 902.8C95 926.7 93.5 950.4 94.3 974.6C96.1 1025.7 97.5 1077.1 97.5 1128.9C97.5 1178.8 96.3 1228.9 96.4 1280H98.6C101.6 1180.3 101.2 1074.9 96.4 974.7C94.8 940.6 97.6 907.1 96.4 875.1C95.2 842.8 93.2 809.9 93.2 776.5C93.2 706.6 95.9 641.3 100.7 578.3C103.2 544.9 107.4 511.2 107.1 477.6C109.4 437.8 108.2 397.7 108.2 357.6C108.2 338.6 108.6 319.5 108.2 300.8C107.7 280.3 106.7 260.2 105 239.7C100.6 188.2 104.1 131.6 109.3 86.5001C110.5 76.1001 109.7 66.0001 110.4 55.4001C111 46.1001 112.3 36.9001 112.5 27.5001C112.8 18.0001 113.5 9.10015 113.6 -0.0998535H109.4C109.9 28.5001 105.4 52.3001 105.1 80.0001C100 129.7 97.1 180.6 100.8 231.1C104.5 281.6 106.2 331.8 106.2 382.2C106.2 434.5 106.5 486 103 536.5C101.4 559.9 97.6 583.1 96.6 606.1C94.4 653.6 91.2 702.4 91.2 753.9C91.2 779.6 91.8 805.1 92.3 831C92.4 842.9 93.8 854.4 94.3 866.4Z" fill="#262626"/>
<path fill-rule="evenodd" clip-rule="evenodd" d="M122.1 564.3C120.5 588.1 117.7 611.5 115.7 635C113.7 658.2 114.5 681.5 113.6 704.6C112.6 729.3 112.5 753.8 112.5 778.5C112.5 801.7 113.7 824.7 114.6 848.1C115.6 871.6 113.5 895.4 114.6 918.8C115.7 943.3 116.3 967.4 117.8 991.6C123.8 1084.4 134.9 1179.8 133.9 1279.8H138.1C136.1 1239.8 136.3 1200.2 133.9 1160.9C133.1 1148 132.4 1135.1 131.8 1122.3C130.5 1097 126.1 1072.5 124.3 1047.3C122.5 1021.7 120 995.8 118.9 970.2C117.8 943.4 116.2 916.4 116.8 889.9C117.1 877.2 117.5 864.9 116.8 852.4C116.2 840.2 115.1 828.2 114.7 816C114.6 813.6 115.9 810.9 115.8 808.5C115.1 788.6 114.7 761.1 114.7 737.8C114.7 712.5 116.5 687.3 116.8 661.7C117 648.3 117.8 635.6 118.9 622.1C119.9 610.3 121.9 598 123.2 585.7C125.7 561.5 125.9 536.4 127.5 511.8C131 459.1 126.7 404.9 126.4 350C126.3 323.4 125.5 296.1 124.3 269.7C123.7 257.7 122.3 245.1 122.2 230.1C122.1 217.1 121.1 204.2 120.1 191.5C117.8 165.1 117.9 139.1 120.1 113.3C122.2 88.6 123.7 63.7 122.2 39.4C123.8 27 123.7 12.8 125 0H118.8C117.5 36.8 118.7 75.8 115.7 115.5C115.3 120.8 113.9 125.4 113.6 130.5C113 139.9 114.1 149.8 114.7 158.4C114.9 161.6 113.6 164 113.6 167C113.9 179 116.1 190.4 116.8 202.4C118.2 225.8 118.8 249.8 120 273.1C122.6 321.9 124.4 371 125.4 418.8C125.9 444.2 126.5 468.9 125.4 493.8C124.3 517.4 123.7 540.8 122.1 564.3Z" fill="#262626"/>
<path fill-rule="evenodd" clip-rule="evenodd" d="M150 251.5C149.9 249 151.1 246.7 151.1 244C151 231.9 149 209.6 149 195.8C148.9 176.1 150.1 149.1 150.1 126.2C150.1 84.3 148 41.9 149 0H144.8C142.9 48 144.8 96.7 144.8 145.5C144.8 169.9 142.8 194.2 143.7 218.3C144.6 241.4 146.9 264.2 146.9 286.9C146.9 360.2 147.7 432.3 145.8 505.4C145.5 517.1 145 528.4 143.7 539.7C142.4 550.2 139.3 561.1 141.6 571.8C144.8 550 147.2 527.4 149.1 504.3C152.3 484.3 151.1 463 151.2 442.2C151.6 382.3 152.8 315.7 150 251.5Z" fill="#262626"/>
<path fill-rule="evenodd" clip-rule="evenodd" d="M170.3 0H166C167.7 79.5 170.4 160.1 167.1 236.5C166.7 246 165.4 255.2 165 264.4C163.9 289.9 166 313 166.1 334C166.1 338.7 165.1 343.2 165 347.9C164.9 351.8 166.1 355.8 166.1 359.7C166 379.1 164.2 403.7 162.9 428.3C162.3 440.3 161.5 452.2 160.8 464.7C159.4 488.1 161.1 513.1 159.7 539.7C158.7 559.2 154.8 579.1 152.2 601.8C155.8 601.5 155.2 596.9 155.4 593.2C157.2 591.1 155.3 585.3 157.5 583.6C156.2 603.4 151.7 619.9 150 639.3C152.9 639.3 152.8 634.7 153.2 632.9C154.8 625.6 154.4 615.3 156.4 607.2C157 601.4 159.2 597.2 158.5 590.1C160.9 589.3 158.9 584.1 159.6 581.5C158 578.2 162.8 574.4 158.5 575.1C157.9 577 159.8 581.4 157.4 581.5C158.3 568.9 159.8 556.8 161.7 545.1C162.8 549 159.3 557.5 163.8 558C165.3 531.3 164.6 510.1 162.7 484.1C164.3 481.8 164.5 478.1 164.8 474.5C164.1 456.7 166.6 442.1 165.9 424.2C174.3 374.8 167.7 317.6 170.2 268.9C171.3 248.2 170.3 227.2 171.3 206.8C174.3 141.5 171.3 75.9 171.3 5.4C169.8 4.6 170.1 2.3 170.3 0ZM162.8 544C159.8 544.8 161.7 541.2 161.7 539.7C161.8 534 161.7 523.9 161.7 517.2C164.2 524 162.1 535.4 162.8 544Z" fill="#262626"/>
<path fill-rule="evenodd" clip-rule="evenodd" d="M156.4 915.7C158 943.6 157.6 971.1 159.6 998.2C160.6 1011.2 162.7 1023.8 163.9 1036.8C167.3 1074.3 172.9 1113 178.9 1149.3C181.8 1194.3 190.6 1233.3 191.7 1280H197.1C196.9 1257.9 192.1 1235.7 189.6 1214.6C187.2 1193.7 184.7 1170.3 182.1 1148.2C181.6 1143.7 181.7 1138.6 181 1134.3C180.7 1132.3 179.1 1130.6 178.9 1128.9C178.6 1126.4 179.3 1123.8 178.9 1121.4C178.2 1117.5 176.3 1113.4 175.7 1109.6C175.3 1107 176.1 1104.7 175.7 1102.1C175.5 1100.4 173.8 1098.6 173.6 1096.7C172.3 1087.7 172.4 1079 171.5 1069.9C169.6 1052.1 166.8 1034.5 165.1 1016.3C162.5 989.4 161.4 962 159.7 932.7C158.2 906.7 154.7 878.6 153.3 851.3C154.2 821.2 157.3 793.1 157.6 762.4C160.6 746.2 161.8 728.5 164 712C166.2 695.2 169.3 680 173.6 665.9C176.3 659.3 180.4 654.1 183.2 647.7C186.4 613.8 192.7 582.9 190.7 543.8C184.5 512.2 188.3 481.8 191.8 449.5C192.9 439.3 195.4 429.4 196.1 419.5C196.6 412.5 195.7 405 196.1 398.1C196.5 391.7 198 385.9 198.2 379.9C198.6 372.2 197.1 365.2 197.1 357.4C197.1 350.2 198.7 342.5 199.2 334.9C200.9 311.7 203.5 285.1 203.5 258.8C203 257.3 204.2 257.2 204.6 256.7C205.3 255.7 204 254.3 205.7 251.3C204.9 246.5 207.1 244.9 206.8 240.6C211.3 193.2 215.6 142.8 213.2 91.7C216.1 90.9 212.4 96.8 215.3 96C216.5 68.4 214.2 60.9001 216.4 31.7001V36C217.3 39.4001 217.8 34.1 217.5 32.8V27.4C217.2 18.3 217.8 7.40005 217.6 -0.199951H216.4C216.3 4.20005 215.5 2.40005 215.2 -0.199951H204.6C204.2 44.1 204.2 93.5001 203.6 143.1C203.5 147.5 202.5 152.6 202.5 157C202.5 162.6 203.7 167.7 203.6 173.1C203 201 199.1 228.9 198.2 256.7C197.8 271 197 285.5 196.1 299.6C195.2 313.4 193.5 326.7 192.9 340.3C192 361.1 192.7 381.6 191.8 402.4C191 421.1 187.8 440.2 186.4 459.2C184.9 479.2 184.4 498 185.3 518.1C186.2 537.9 187.5 557.9 187.4 578.1C182 605.6 184.9 641.3 171.3 660.6C156.5 710.9 156 775.4 151 835.4C150.7 849.4 151.1 863.4 152.1 877.2C153 890.3 155.7 902.9 156.4 915.7ZM215.3 29.8C215.5 28.6 216.4 29.2 216.4 29.8C216.2 31 215.3 30.4 215.3 29.8ZM215.3 26.6C215.5 25.4 216.4 26 216.4 26.6C216.2 27.8001 215.3 27.2001 215.3 26.6ZM215.3 19.1C215.9 17.5 216.4 19 216.4 20.2001C215.8 21.8001 215.2 20.2001 215.3 19.1ZM216.4 23.3C217 23.9 215.6 24.7 215.3 24.4C214.7 23.9 216.1 23 216.4 23.3Z" fill="#262626"/>
<path fill-rule="evenodd" clip-rule="evenodd" d="M312.7 1280H319C316.9 1251.5 318 1218.2 320.2 1191.1C321.5 1191.3 321.1 1193.1 321.3 1194.3C321.9 1195.9 322.4 1194.4 322.4 1193.2V1182.5C324.5 1179.6 323 1173.1 323.5 1168.6C323.6 1165.1 326.5 1164.5 325.6 1160C325.3 1149.1 326 1141.9 326.7 1134.3C329.7 1134.3 324.1 1131.4 328.8 1132.2C329.6 1134.1 329.9 1131.6 329.9 1130.1C330 1125.5 331.7 1122.6 331 1117.2C328.2 1114.4 332.7 1116.4 332.1 1112.9C331.7 1110.3 334.1 1110.6 333.2 1107.5V1085C336 1075.3 333.6 1060.4 337.5 1051.8C341 1072.1 335.5 1097.3 340.7 1115V1135.4C340.5 1137.9 337.8 1144.1 342.8 1146.1C344.1 1140.5 345.3 1134.6 344.9 1123.6C346.5 1123.6 346.5 1130 347 1124.7C350.8 1098.9 353.4 1071.7 355.6 1043.3C357 1025.5 358 1010.5 357.7 991.9C361.2 969 364.3 945.7 364.1 919.1C366.2 908 366.9 896.6 367.3 884.8C367.7 873.7 368.6 862.2 369.4 850.5C371.2 826.8 369.2 802.6 370.5 778.7C370.8 772.2 372.4 765.9 372.6 759.4C373.6 737.2 371.1 715.6 371.5 694.1C368.1 682.5 370 670.6 369.4 658.7C368.7 645.6 366.7 632.8 366.2 620.1C364.9 584.9 367.7 546.2 369.4 506.5C370.3 485.9 369.4 464.5 370.5 444.4C371.7 422.2 370.5 379.9 370.5 349.1C370.5 320.5 369 291.3 369.4 263.4C369.5 259.1 370.5 254.8 370.5 250.5C370.5 246.2 369.3 242 369.4 237.6C370 219.2 371.8 200 372.6 179.8C374.1 145.2 373 112.7 373.7 79.1001C373.3 74.4001 375.7 74.3001 375.8 72.7001C372.1 48.4001 378.2 25.7001 377.1 0.100098H372.4C369.9 44.9001 369.1 100.7 368.3 139.1C367.8 161.2 368.5 181.9 367.2 203.4C365.5 232.4 365.1 262.3 365.1 292.3C365.1 351.6 368.9 412.8 366.2 472.3C365.9 479.5 364.4 486.3 364.1 493.7C363.1 515.3 362.9 537.3 362 559C359.3 618.6 366 677.9 366.3 735.8C366.3 742.6 366.4 749.7 366.3 756.2C366.2 763.7 365.5 770.4 365.2 777.6C364.3 798.2 365 819.1 362 837.6C362.5 868.8 358.7 893.8 357.7 925.4C351.5 922.7 356.2 909.1 353.4 902.9C354.3 897.9 351.7 901.8 351.3 899.7C350.7 897.8 352.6 893.4 350.2 893.3C351.9 869.9 347.1 844.5 344.8 821.5C342.4 823 344.4 829 343.7 832.2C339.4 829.6 343.8 825 342.6 819.3C345.8 815.1 340.7 811.7 341.5 806.4C336.9 807.1 340.5 816.1 339.4 820.3C337.7 823.6 338.5 815.7 338.3 813.9C337.7 811.3 339.6 806.1 337.2 805.3C334.7 810.9 335.1 817.5 335.1 823.5C334.9 846.4 337.4 868.3 336.2 891C335.7 900.4 333.5 909.4 333 918.9C332.5 927.7 333.5 936.8 333 945.7C332.5 955 330.7 964.2 329.8 973.6C326.9 1002.9 328.7 1031.4 325.5 1057.2C324.6 1075.2 323.7 1094 321.2 1112.9C319.4 1131.4 317.5 1149.9 313.7 1166.5C313.7 1189 310.8 1209.7 310.5 1232.9C310.4 1248.3 312.7 1264 312.7 1280ZM339.5 822.5C340.1 823.1 338.7 823.9 338.4 823.6C337.9 823.1 339.2 822.2 339.5 822.5Z" fill="#262626"/>
<path fill-rule="evenodd" clip-rule="evenodd" d="M388.8 115.5C390.1 132.3 390.2 148 390.9 166.9C391.3 176.4 391 195.5 392 211.9C392.6 222.4 394.5 232.8 395.2 244C396 256.4 395.7 268.7 396.3 281.5C398.6 332.3 404.1 382.2 404.9 435.8C404.9 437.2 403.8 437.6 403.8 437.9C403.7 439.2 404.7 449.4 404.9 454C405.4 473 406.4 490.8 407 508.6C407.4 520.8 406.3 532.4 409.1 544C410.2 564.3 410.3 585.7 411.2 606.1C414.6 626 414.2 646.3 415.5 667.2C416.8 687.3 417.8 708.7 417.6 729.3C416.9 801.9 418.3 876 413.3 945.7C413.8 955.4 413.4 966.4 413.3 978.9C413.2 991 413.9 1003.9 411.2 1014.3C410.7 1061 413.3 1107.3 415.5 1152.5C416.2 1167.1 417.7 1181 420.9 1194.3C420.8 1200.9 423.4 1204.6 424.1 1210.4C424 1216.5 428.8 1217.9 427.3 1225.4C429.6 1235.6 433.4 1244.3 435.9 1254.3C439.5 1257.2 439.8 1263.2 442.3 1267.2C442.6 1272.3 445.8 1274.6 445.7 1280.1H449.2C447 1271.8 446 1262.3 442.3 1255.4C437.7 1248.2 436.4 1237.8 432.7 1229.7C431.1 1224.7 431.7 1219.9 430.6 1214.7C430.5 1214.4 428.6 1213 428.5 1212.6C427 1207.7 428.1 1203.7 427.4 1199.7C425.6 1189.7 422.1 1180.4 421 1170.8C419.9 1161.2 420.1 1150.9 419.9 1140.8C419.2 1105.6 416.9 1066.5 417.8 1033.7C417.9 1028.9 416.7 1023.9 416.7 1018.7C416.7 1008.7 417.4 997.8 417.8 987.6C421.4 884.9 421.6 777.7 421 671.6C416.2 622.1 416.3 567.1 413.5 515.2C413.1 507.9 411.9 501 412.4 493.8C410.4 462.7 411.7 433.3 410.3 404.9C408.8 374.7 407.2 345.5 404.9 313.8C403 284.1 402 254.1 399.5 224.9C398.7 215.1 396.9 205.6 396.3 196C395.2 179.1 395.7 161.7 395.2 144.6C395.1 141.5 396.3 138 396.3 135C396.2 130.6 395.3 126.4 395.2 122.1C394.8 78.1 394.1 40.6 396.1 0.199951H389.7C389.5 8.89995 390.6 16.4 390.9 24.6C390.3 26.2 392.1 30.1 389.8 30C387 30.2999 391.3 31.7999 389.8 34.2999C386.7 56.7 391.2 89.3 388.8 115.5Z" fill="#262626"/>
<path fill-rule="evenodd" clip-rule="evenodd" d="M504.4 998.2C505 998.8 503.6 999.6 503.3 999.3C502.8 998.7 504.1 997.9 504.4 998.2ZM504.4 1000.4C505 1001 503.6 1001.8 503.3 1001.5C502.8 1000.9 504.1 1000.1 504.4 1000.4Z" fill="#262626"/>
<path fill-rule="evenodd" clip-rule="evenodd" d="M426.2 60.8001C425.6 60.2001 427 59.4001 427.3 59.7001C427.9 60.3001 426.5 61.1001 426.2 60.8001Z" fill="#262626"/>
<path fill-rule="evenodd" clip-rule="evenodd" d="M52.5 65.1C52.5 64.1 53.8 64.3 54.6 64C54.6 65.1 53.4 64.9 52.5 65.1Z" fill="#262626"/>
<path fill-rule="evenodd" clip-rule="evenodd" d="M52.4999 67.3C53.4999 67.3 53.2999 68.6 53.5999 69.4C52.0999 71.8 56.3999 73.4 53.5999 73.7C51.2999 73.5 53.0999 77.5 52.4999 79.1C52.4999 83 52.4999 87 52.4999 90.9C53.1999 95.8 50.0999 97.1 50.3999 101.6C50.8999 116.3 49.7999 126.4 48.2999 134.8C48.8999 148.3 47.4999 161.2 48.2999 173.4C48.8999 183.4 52.2999 192.3 52.5999 201.2C52.4999 202.7 52.3999 204.2 53.6999 204.4C54.2999 202.8 54.7999 204.3 54.7999 205.5C54.7999 208 54.7999 210.5 54.7999 213C53.4999 219.7 58.2999 220.3 56.8999 226.9C65.9999 281 64.0999 343.3 65.4999 406.9C64.7999 410.2 64.7999 409 65.4999 412.3C64.2999 413.6 62.3999 414.2 63.3999 417.7C63.1999 432.2 65.2999 444.4 64.4999 459.5C60.8999 460.6 62.7999 456.2 62.3999 454.1C60.0999 454.3 61.8999 450.3 61.2999 448.7C60.5999 444.7 62.6999 438 60.1999 435.8C61.3999 432.4 61.1999 429.8 59.0999 427.2C59.8999 424.5 59.5999 421.9 59.0999 418.6C58.8999 404.5 60.5999 394.9 60.1999 380C59.5999 359.6 57.1999 338.8 56.9999 317.9C56.7999 297.2 55.3999 276.5 53.7999 255.8C53.3999 250.1 53.3999 244 52.6999 238.7C50.9999 225.9 46.8999 209.9 45.1999 194.8C42.7999 173.5 41.8999 152.1 43.0999 130.5C43.8999 115.6 48.7999 101.5 48.4999 86.6C47.9999 82.5 52.1999 83.2 50.5999 78C50.7999 72.9 52.6999 70.9 52.4999 67.3Z" fill="#262626"/>
<path fill-rule="evenodd" clip-rule="evenodd" d="M352.4 1280H364C362.3 1248.2 362.6 1215.8 364.1 1183.6C364.5 1176.1 365.9 1168.6 366.2 1161.1C366.6 1152.6 365.8 1144 366.2 1135.4C366.6 1127.6 368 1119.7 368.3 1111.8C370.3 1068.9 369.7 1030.6 373.7 990.7C376.8 959.5 376.6 928.1 382.3 899.6C383 880.1 387.8 859.8 388.7 838.5C389.8 812.6 390.6 782.4 389.8 759.2C392.4 744.1 393.1 725.2 394.1 709.9C396.9 717.3 394.8 723.2 395.2 732.4C396.9 740.4 397 743.4 399.5 750.6C401.5 773.2 401.9 797.4 401.6 822.4C401.9 827.1 403.8 830.2 403.7 835.3C402.6 867 401.7 898.4 400.5 929.6C399.3 961 396.2 991.7 396.2 1022.8C396.2 1034.4 395 1046.2 395.1 1057.1C395.4 1075.3 396.7 1093.7 397.2 1112.8C397.6 1128.1 399 1143.8 399.3 1158.9C400 1190.5 399 1221 407.9 1243.5C409.1 1256.9 411.5 1269.2 416.5 1278.8C418.2 1278.6 419.2 1279.2 420.1 1279.9H435.6C434.6 1274.9 429.6 1273.9 430.4 1267C429 1264.8 429.7 1260.6 426.1 1260.6C426.9 1256.6 424.8 1255.5 425 1252C424.2 1250.1 423.8 1252.6 423.9 1254.1C422.9 1253.6 422 1253.2 421.8 1252C422.6 1243.3 420 1238.1 418.6 1231.6C417.3 1228.9 417 1225.3 416.5 1222C415 1221.7 413.7 1220.5 413.3 1216.6C411.8 1206.7 411.6 1195.4 409 1186.6C410.2 1140.8 405.8 1091.5 405.8 1042C405.8 1011.4 408.1 981.8 409 950.9C409.1 949.2 410.2 946.4 410.1 945.5C408.7 938.3 409.6 921.6 410.1 911.2C410.6 900.1 412.1 889.9 412.2 879.1C412.4 867.7 412.2 856.2 412.2 844.8C412.2 775.7 411.6 718.8 409 655.2C409.6 652 405 648.6 406.9 647.7C407.6 649.7 408.6 646.5 406.9 646.6C406.1 645.6 405.8 644.2 405.8 642.3C404.4 592.8 399.9 540.2 399.4 492.3C396.7 472.9 396.6 450.9 396.2 431.2C396.2 429.4 395.1 427.4 395.1 425.8C395.2 418.8 395.2 406.6 396.2 397.9C392.1 389.3 394.6 378.6 394.1 369C393.6 359.8 391 351.8 392 343.3C389.7 342 391.3 338.6 390.9 336.9C390.6 335.5 389.2 336.7 388.8 335.8C388.6 335.3 390 334.5 389.9 333.7C389.3 330.2 388.4 326.9 387.8 321.9C387.3 313.1 387.6 303.6 384.6 297.3C383.2 299.9 386.5 311.5 383.5 315.5C383.7 310.2 381.6 307.4 382.4 301.6C381.3 298 384.8 289.9 380.3 289.8C380.7 308.7 380 326.6 377.1 342.3C377.8 365.2 376.2 392.6 377.1 413C377.2 416.2 377.2 419.7 377.1 422.6C376.7 442.3 375.3 461.8 375 481.5C374.6 501.1 374.8 521 373.9 540.4C372.1 578.3 374.8 615.6 376 654C377.3 660.2 378.7 666.3 380.3 672.2C381.2 722.8 383.7 746.1 380.3 798.6C379.4 813 378.4 827.6 378.2 843.6C374.7 862.6 372.2 882.6 371.8 904.7C370.7 922.3 368.1 944.4 367.5 965.8C363.1 1006.2 361.7 1049.9 361.1 1091.1C357 1120.9 356.9 1150.3 354.7 1180C352.4 1209.9 350.4 1240.6 351.5 1274.3C352.4 1275.7 352.4 1277.8 352.4 1280ZM394.1 707.9C394.7 708.5 393.3 709.3 393 709C392.5 708.4 393.8 707.6 394.1 707.9Z" fill="#262626"/>
<path fill-rule="evenodd" clip-rule="evenodd" d="M228.1 322.2C228.1 321.2 229.4 321.4 230.2 321.1C230.2 322.2 229 322 228.1 322.2Z" fill="#262626"/>
<path fill-rule="evenodd" clip-rule="evenodd" d="M220.6 355.4C220 354.8 221.4 354 221.7 354.3C222.3 354.9 220.9 355.7 220.6 355.4Z" fill="#262626"/>
<path fill-rule="evenodd" clip-rule="evenodd" d="M43.9999 399.4C43.3999 398.8 44.7999 398 45.0999 398.3C45.5999 398.8 44.2999 399.7 43.9999 399.4Z" fill="#262626"/>
<path fill-rule="evenodd" clip-rule="evenodd" d="M43.9999 400.4C46.4999 420.4 44.3999 445 45.0999 466.8C41.8999 464.5 44.4999 461.1 41.8999 457.2C42.9999 438.7 41.9999 418.2 43.9999 400.4Z" fill="#262626"/>
<path fill-rule="evenodd" clip-rule="evenodd" d="M64.3 416.5C63.7 415.9 65.1 415.1 65.4 415.4C65.9 416 64.6 416.8 64.3 416.5Z" fill="#262626"/>
<path fill-rule="evenodd" clip-rule="evenodd" d="M209.9 432.6C210.1 431.4 211 432 211 432.6C210.8 433.8 209.9 433.2 209.9 432.6Z" fill="#262626"/>
<path fill-rule="evenodd" clip-rule="evenodd" d="M116.8 433.7C118.8 435.4 119.9 440 115.7 440.1C115.7 437.6 117.6 436.9 116.8 433.7Z" fill="#262626"/>
<path fill-rule="evenodd" clip-rule="evenodd" d="M118.9 441.2C118.1 445.2 117.6 449.3 118.9 454.1C114.8 456.6 116.1 449.1 116.8 445.5C117.1 443.5 114.9 439.7 118.9 441.2Z" fill="#262626"/>
<path fill-rule="evenodd" clip-rule="evenodd" d="M41.7999 467.9C42.9999 467.7 43.6999 468.1 43.8999 469C44.4999 479.9 43.0999 488.7 43.8999 500.1C43.8999 500.2 45.1999 500.2 44.9999 501.2C44.0999 505.8 43.7999 519 43.8999 524.8C44.0999 531.2 43.6999 537.4 42.7999 544.1C41.7999 547.1 44.9999 554.2 40.6999 553.7C40.6999 538.7 40.6999 523.7 40.6999 508.7C40.5999 505.4 41.1999 502.8 42.7999 501.2C40.4999 492.1 42.4999 478.7 41.7999 467.9Z" fill="#262626"/>
<path fill-rule="evenodd" clip-rule="evenodd" d="M61.0999 469C60.4999 468.4 61.8999 467.6 62.1999 467.9C62.6999 468.5 61.3999 469.3 61.0999 469Z" fill="#262626"/>
<path fill-rule="evenodd" clip-rule="evenodd" d="M61.0999 473.3C60.4999 472.7 61.8999 471.9 62.1999 472.2C62.6999 472.8 61.3999 473.6 61.0999 473.3Z" fill="#262626"/>
<path fill-rule="evenodd" clip-rule="evenodd" d="M114.6 511.9C114 511.3 115.4 510.5 115.7 510.8C116.3 511.3 114.9 512.2 114.6 511.9Z" fill="#262626"/>
<path fill-rule="evenodd" clip-rule="evenodd" d="M74.9999 514C78.0999 539.9 73.3999 567.4 71.7999 592.2C69.0999 566.6 74.0999 539.5 74.9999 514Z" fill="#262626"/>
<path fill-rule="evenodd" clip-rule="evenodd" d="M113.6 519.4C113 518.8 114.4 518 114.7 518.3C115.2 518.8 113.9 519.7 113.6 519.4Z" fill="#262626"/>
<path fill-rule="evenodd" clip-rule="evenodd" d="M148.9 519.4C148.3 518.8 149.7 518 150 518.3C150.5 518.8 149.2 519.7 148.9 519.4Z" fill="#262626"/>
<path fill-rule="evenodd" clip-rule="evenodd" d="M113.6 521.5C113.8 520.3 114.7 520.9 114.7 521.5C114.4 522.7 113.6 522.1 113.6 521.5Z" fill="#262626"/>
<path fill-rule="evenodd" clip-rule="evenodd" d="M147.8 532.2C151.3 531.4 148.9 536.1 148.9 537.6C148.6 548.9 146.9 563.3 144.6 572.9C145.4 579 143.5 582.5 143.5 587.9C143.6 590.5 143.7 593.1 142.4 594.3C141.9 596.3 143.9 600.8 140.3 599.7C142.1 576.5 144.9 554.3 147.8 532.2Z" fill="#262626"/>
<path fill-rule="evenodd" clip-rule="evenodd" d="M204.6 539.7C204 539.1 205.4 538.3 205.7 538.6C206.2 539.2 204.9 540 204.6 539.7Z" fill="#262626"/>
<path fill-rule="evenodd" clip-rule="evenodd" d="M102.9 1092.5C102.8 1122.8 102.9 1154.9 102.9 1186.8C102.9 1218.1 101.1 1249.3 101.8 1280H107.2C106.5 1206.3 109.9 1135.4 107.2 1061.4C104.6 991.3 101.9 917.1 105.1 843.9C106.7 880 107.5 917.2 109.4 954.2C112.2 1010.2 117.6 1065.1 120.1 1120.3C120.9 1138.7 123.6 1156.9 124.4 1174.9C126.2 1216.8 122.6 1249.5 124.3 1279.9H130.8C130.1 1218.8 129.3 1159.7 124.4 1101C119.6 1043 115.3 985.2 112.6 926.4C111.2 896.3 111.7 866 110.5 835.3C109.9 820.3 108.9 805.3 108.4 790.3C107.8 775.2 107.3 760.3 107.3 745.3C107.3 703.1 109.1 662 110.5 620C110.5 618.5 111.6 616.1 111.6 614.6C111.6 612.7 110.4 612.3 110.5 610.3C110.8 607 112.4 604 112.6 600.7C113.5 589.9 111.8 579 114.7 568.6C113.6 559.7 113.4 549.9 113.6 539.7C109.9 540.3 112 546.7 111.5 550.4C111.2 554 109.8 556.6 110.4 561.1C108.8 567.7 109.6 576.7 107.2 582.5C104.5 602.9 104.2 623.9 102.9 644.6C101.6 665.4 98.7 685.7 98.6 706.7C98.4 749.8 98.6 793.4 98.6 837.4C98.6 923.9 99.1 1007.7 102.9 1092.5Z" fill="#262626"/>
<path fill-rule="evenodd" clip-rule="evenodd" d="M208.9 540.8C209.8 537.4 210.3 542.7 210 544C209 547.4 208.5 542.1 208.9 540.8Z" fill="#262626"/>
<path fill-rule="evenodd" clip-rule="evenodd" d="M11.7999 541.8C12.9999 542.1 12.4999 543.9 13.8999 543.9C13.8999 555 13.8999 566 13.8999 577.1C10.2999 577.5 11.8999 572.9 11.7999 570.7C11.3999 563.6 12.0999 553 11.7999 545C10.5999 543.7 11.3999 543.4 11.7999 541.8Z" fill="#262626"/>
<path fill-rule="evenodd" clip-rule="evenodd" d="M7.5999 546.1C6.9999 545.5 8.3999 544.7 8.6999 545C9.1999 545.6 7.8999 546.4 7.5999 546.1Z" fill="#262626"/>
<path fill-rule="evenodd" clip-rule="evenodd" d="M8.59999 547.2C9.49999 547 9.59999 547.6 9.69999 548.3C9.19999 593.5 7.99999 635.4 7.59999 679C7.19999 719.8 8.39999 763 6.49999 806.5C7.69999 824.6 10.1 841.4 9.69999 861.1C5.59999 860.7 7.89999 855.2 7.59999 852.5C6.69999 844.6 5.79999 832.9 5.49999 823.6C4.99999 778 3.99999 730.8 5.49999 686.5C6.29999 663.7 4.39999 639.5 5.49999 615.8C6.49999 593.6 7.79999 571.7 7.59999 550.5C7.29999 548.7 8.59999 548.6 8.59999 547.2Z" fill="#262626"/>
<path fill-rule="evenodd" clip-rule="evenodd" d="M41.8 562.2C41.2 561.6 42.6 560.8 42.9 561.1C43.4 561.7 42.1 562.5 41.8 562.2Z" fill="#262626"/>
<path fill-rule="evenodd" clip-rule="evenodd" d="M227.1 564.3C227.3 563.1 228.2 563.7 228.2 564.3C227.9 565.6 227.1 564.9 227.1 564.3Z" fill="#262626"/>
<path fill-rule="evenodd" clip-rule="evenodd" d="M41.7999 565.4C41.9999 564.2 42.8999 564.8 42.8999 565.4C42.6999 566.6 41.7999 566 41.7999 565.4Z" fill="#262626"/>
<path fill-rule="evenodd" clip-rule="evenodd" d="M41.8 572.9C41.2 572.3 42.6 571.5 42.9 571.8C43.4 572.4 42.1 573.2 41.8 572.9Z" fill="#262626"/>
<path fill-rule="evenodd" clip-rule="evenodd" d="M41.8 578.3C41.2 577.7 42.6 576.9 42.9 577.2C43.4 577.8 42.1 578.6 41.8 578.3Z" fill="#262626"/>
<path fill-rule="evenodd" clip-rule="evenodd" d="M40.7 580.4C44.8 579.5 42.0999 585.5 42.7999 587.9C42.1999 627.4 43.5 665 43.9 703.6C43.9 706.5 43.9 709.3 43.9 712.2C40.9 712 45.2 719.2 40.7 717.6C40.7 671.8 40.7 626.1 40.7 580.4Z" fill="#262626"/>
<path fill-rule="evenodd" clip-rule="evenodd" d="M133.9 644.7C131.5 642.9 133.5 636.5 132.8 632.9C136.8 619 136.1 600.4 138.2 584.7C138.4 582.8 137.1 579.3 140.3 580.4C139.1 602.7 137.2 624.5 133.9 644.7Z" fill="#262626"/>
<path fill-rule="evenodd" clip-rule="evenodd" d="M11.8 582.6C11.2 582 12.6 581.2 12.9 581.5C13.5 582 12.1 582.9 11.8 582.6Z" fill="#262626"/>
<path fill-rule="evenodd" clip-rule="evenodd" d="M224.9 581.5C226.7 581.1 226.9 582.3 227 583.6C226.1 583.4 226 584 225.9 584.7C224.7 584.5 225.1 582.7 224.9 581.5Z" fill="#262626"/>
<path fill-rule="evenodd" clip-rule="evenodd" d="M76.0999 585.8C75.4999 585.2 76.8999 584.4 77.1999 584.7C77.6999 585.3 76.3999 586.1 76.0999 585.8Z" fill="#262626"/>
<path fill-rule="evenodd" clip-rule="evenodd" d="M224.9 587.9C225.1 586.7 226 587.3 226 587.9C225.8 589.1 224.9 588.5 224.9 587.9Z" fill="#262626"/>
<path fill-rule="evenodd" clip-rule="evenodd" d="M10.7999 587.9C11.9999 587.7 12.6999 588.1 12.8999 589C14.1999 605.6 9.69992 616.5 10.7999 632.9C6.29992 628.9 9.49992 622.4 9.69992 616.8C10.0999 607.3 10.3999 597 10.7999 587.9Z" fill="#262626"/>
<path fill-rule="evenodd" clip-rule="evenodd" d="M224.9 591.1C224.3 590.5 225.7 589.7 226 590C226.6 590.6 225.2 591.4 224.9 591.1Z" fill="#262626"/>
<path fill-rule="evenodd" clip-rule="evenodd" d="M75 594.3C75.2 593.1 76.1 593.7 76.1 594.3C75.9 595.6 75 594.9 75 594.3Z" fill="#262626"/>
<path fill-rule="evenodd" clip-rule="evenodd" d="M224.9 594.3C224.3 593.7 225.7 592.9 226 593.2C226.6 593.8 225.2 594.6 224.9 594.3Z" fill="#262626"/>
<path fill-rule="evenodd" clip-rule="evenodd" d="M69.6999 597.6C69.0999 597 70.4999 596.2 70.7999 596.5C71.2999 597 69.9999 597.9 69.6999 597.6Z" fill="#262626"/>
<path fill-rule="evenodd" clip-rule="evenodd" d="M74.9999 597.6C74.3999 597 75.7999 596.2 76.0999 596.5C76.5999 597 75.2999 597.9 74.9999 597.6Z" fill="#262626"/>
<path fill-rule="evenodd" clip-rule="evenodd" d="M224.9 598.6C225.1 597.4 226 598 226 598.6C225.8 599.8 224.9 599.2 224.9 598.6Z" fill="#262626"/>
<path fill-rule="evenodd" clip-rule="evenodd" d="M74.9999 599.7C76.0999 598.6 76.6999 600.2 76.0999 600.8C74.9999 601.9 74.3999 600.3 74.9999 599.7Z" fill="#262626"/>
<path fill-rule="evenodd" clip-rule="evenodd" d="M213.2 600.8C212.6 600.2 214 599.4 214.3 599.7C214.8 600.3 213.4 601.1 213.2 600.8Z" fill="#262626"/>
<path fill-rule="evenodd" clip-rule="evenodd" d="M73.9 605.1C73.3 604.5 74.7 603.7 75 604C75.6 604.5 74.2 605.4 73.9 605.1Z" fill="#262626"/>
<path fill-rule="evenodd" clip-rule="evenodd" d="M142.5 675.8C144.5 673.5 143.2 668 143.6 664C145.4 654.3 145.1 642.7 147.9 634C147.9 631.5 147.9 629 147.9 626.5C149.1 623.4 148.9 618.9 150 615.8C150.2 611.7 149.4 606.6 153.2 606.2C150.7 628 146.5 648 145.7 671.5C142.8 671.1 146.7 677.5 142.5 675.8Z" fill="#262626"/>
<path fill-rule="evenodd" clip-rule="evenodd" d="M73.8999 610.4C74.0999 609.2 74.9999 609.8 74.9999 610.4C74.7999 611.6 73.8999 611 73.8999 610.4Z" fill="#262626"/>
<path fill-rule="evenodd" clip-rule="evenodd" d="M139.3 611.5C138.7 610.9 140.1 610.1 140.4 610.4C140.9 611 139.6 611.8 139.3 611.5Z" fill="#262626"/>
<path fill-rule="evenodd" clip-rule="evenodd" d="M446.6 615.8C446 615.2 447.4 614.4 447.7 614.7C448.2 615.3 446.9 616.1 446.6 615.8Z" fill="#262626"/>
<path fill-rule="evenodd" clip-rule="evenodd" d="M72.8999 621.1C72.8999 620.1 74.1999 620.3 74.9999 620C74.9999 621.1 73.6999 620.9 72.8999 621.1Z" fill="#262626"/>
<path fill-rule="evenodd" clip-rule="evenodd" d="M72.8999 622.2C74.0999 622 74.7999 622.4 74.9999 623.3C73.4999 645.4 74.8999 670.4 72.8999 691.9C69.9999 670 72.7999 644.6 72.8999 622.2Z" fill="#262626"/>
<path fill-rule="evenodd" clip-rule="evenodd" d="M69.6999 625.4C69.0999 624.8 70.4999 624 70.7999 624.3C71.2999 624.9 69.9999 625.7 69.6999 625.4Z" fill="#262626"/>
<path fill-rule="evenodd" clip-rule="evenodd" d="M68.6 635.1C70.7 633.4 69.6 638.2 69.7 639.4C70 645.1 69.5 655.4 69.7 661.9C65.3 659.4 68.3 647.4 68.6 645.8C68.6 642.2 68.6 638.6 68.6 635.1Z" fill="#262626"/>
<path fill-rule="evenodd" clip-rule="evenodd" d="M8.59998 638.3C13.1 638.4 9.69998 646.5 10.7 650.1C10.7 654.4 10.7 658.7 10.7 663C10.1 667.1 12.6 668.2 11.8 672.6C7.29998 674.2 11.6 667 8.59998 667.2C8.59998 657.6 8.59998 647.9 8.59998 638.3Z" fill="#262626"/>
<path fill-rule="evenodd" clip-rule="evenodd" d="M214.2 641.5C214.2 640.5 215.5 640.7 216.3 640.4C216.3 641.5 215 641.2 214.2 641.5Z" fill="#262626"/>
<path fill-rule="evenodd" clip-rule="evenodd" d="M150 642.6C150.6 640.9 151.1 642.5 151.1 643.7C150.5 645.3 149.9 643.7 150 642.6Z" fill="#262626"/>
<path fill-rule="evenodd" clip-rule="evenodd" d="M302 642.6C301.4 642 302.8 641.2 303.1 641.5C303.7 642 302.3 642.8 302 642.6Z" fill="#262626"/>
<path fill-rule="evenodd" clip-rule="evenodd" d="M449.8 644.7C449.2 644.1 450.6 643.3 450.9 643.6C451.4 644.2 450.1 645 449.8 644.7Z" fill="#262626"/>
<path fill-rule="evenodd" clip-rule="evenodd" d="M46.0999 644.7C47.2999 644.5 47.9999 644.9 48.1999 645.8C48.6999 682.2 49.5999 716 50.2999 754C44.7999 743.1 47.6999 728.9 47.0999 715.4C46.1999 693.6 45.5999 669.7 45.9999 647.9C46.0999 646.8 46.0999 645.8 46.0999 644.7Z" fill="#262626"/>
<path fill-rule="evenodd" clip-rule="evenodd" d="M148.9 649C148.3 648.4 149.7 647.6 150 647.9C150.5 648.5 149.2 649.3 148.9 649Z" fill="#262626"/>
<path fill-rule="evenodd" clip-rule="evenodd" d="M148.9 651.1C149.1 649.9 150 650.5 150 651.1C149.8 652.3 148.9 651.7 148.9 651.1Z" fill="#262626"/>
<path fill-rule="evenodd" clip-rule="evenodd" d="M150 653.3C148.6 664.4 148.3 676.6 145.7 686.5C145.7 691.9 145.7 697.2 145.7 702.6C145.2 706.4 145.1 710 144.6 711.2C143.6 714.2 146.8 721.3 142.5 720.8C145.1 703.6 141.6 684.3 146.8 671.5C146.8 667.9 146.8 664.4 146.8 660.8C150.1 660.5 145.1 651.9 150 653.3Z" fill="#262626"/>
<path fill-rule="evenodd" clip-rule="evenodd" d="M9.7 679C9.1 678.4 10.5 677.6 10.8 677.9C11.3 678.5 10 679.3 9.7 679Z" fill="#262626"/>
<path fill-rule="evenodd" clip-rule="evenodd" d="M68.5999 692.9C70.6999 694.7 69.9999 702.8 68.5999 704.7C66.4999 702.9 67.1999 694.8 68.5999 692.9Z" fill="#262626"/>
<path fill-rule="evenodd" clip-rule="evenodd" d="M141.4 694C141.6 692.8 142.5 693.4 142.5 694C142.3 695.2 141.4 694.6 141.4 694Z" fill="#262626"/>
<path fill-rule="evenodd" clip-rule="evenodd" d="M71.8 695C72.6 693.1 73 695.6 72.9 697.1C72 699.1 71.7 696.5 71.8 695Z" fill="#262626"/>
<path fill-rule="evenodd" clip-rule="evenodd" d="M141.4 698.3C140.8 697.7 142.2 696.9 142.5 697.2C143 697.7 141.7 698.6 141.4 698.3Z" fill="#262626"/>
<path fill-rule="evenodd" clip-rule="evenodd" d="M71.7999 700.4C71.9999 699.2 72.8999 699.8 72.8999 700.4C72.6999 701.6 71.7999 701 71.7999 700.4Z" fill="#262626"/>
<path fill-rule="evenodd" clip-rule="evenodd" d="M137.1 824.7C132.6 858.9 138 881.6 137.1 916.8C138.1 920.4 138.5 924.7 139.2 928.6C138 940.7 141.1 954.4 140.3 969.3C143.1 981.6 142.5 994.3 143.5 1006.8C144.1 1013.9 146 1021 146.7 1028.2C147.9 1039.8 147.8 1051.6 148.8 1063.6C149.3 1068.8 150.5 1074.3 150.9 1079.7C151.4 1085.6 151.3 1091.2 152 1096.8C152.7 1102.6 154.7 1108.3 155.2 1113.9C156.2 1124.8 155.7 1136.4 156.3 1149.3C157 1163.9 159.4 1178.4 160.6 1193.2C162.7 1219.5 164.4 1248.8 164.9 1277.8C165.8 1278 165.9 1278.9 165.9 1280H171.1C169.9 1264.8 169.8 1248.5 169.1 1232.8C168.1 1229.2 167.7 1224.9 167 1221V1210.3C161.6 1168.5 160.9 1122.1 154.2 1081.7C151.8 1040.9 147.4 1002.1 143.5 962.8C144.2 947.5 142.6 934.4 142.4 920C140.2 916.6 140.3 923 139.2 920C143.4 908.5 138.7 892.5 140.3 877.1C141.6 873.6 136.8 876.3 138.2 872.8C136.3 854.9 138 839.1 139.3 820.3C136.2 820.2 137.3 815.8 137.2 812.8C136.4 809.5 140.1 810.7 139.3 807.4C135.7 806.3 142.3 807.1 140.4 804.2C139.5 788.7 144.8 773.6 141.5 759.2C140.9 761.1 142.8 765.5 140.4 765.6C141.1 757.4 139 746.3 141.5 739.9C142.2 744.6 140.1 752 142.6 754.9C145 745.5 142.4 731.1 144.7 721.7C139.3 722.1 145.1 733.6 141.5 735.6C140 723 144.5 710.8 141.5 700.3C138.3 724.9 139.6 754.1 137.2 779.6C136.7 784 140.5 778.2 139.3 783.9C138.6 786.5 140.6 791.7 138.2 792.5C137.6 790.3 139.5 785.5 137.1 785C134.8 793.7 137.1 807.1 135 816.1C134.2 820.5 138.4 819.8 137.1 824.7ZM139.3 774.3V767.9C139.9 766.2 140.4 767.8 140.4 769V778.6C139.1 782.1 139.1 775.7 139.3 774.3Z" fill="#262626"/>
<path fill-rule="evenodd" clip-rule="evenodd" d="M71.8 704.7C71.2 704.1 72.6 703.3 72.9 703.6C73.4 704.2 72.1 705 71.8 704.7Z" fill="#262626"/>
<path fill-rule="evenodd" clip-rule="evenodd" d="M10.8 704.7C13.3 731.4 10.9 754.8 11.9 778.6C11.9 779.1 11.8 781.7 11.9 784C11.9 785.1 11 788.4 10.8 788.3C13.4 790.4 8.99996 804.9 10.8 812.9C7.09996 813.2 8.69996 807.6 8.69996 806.5C7.29996 778.3 11 743.4 8.69996 716.5C9.09996 712.3 9.39996 708 10.8 704.7Z" fill="#262626"/>
<path fill-rule="evenodd" clip-rule="evenodd" d="M70.7 706.8C70.7 705.8 72 706 72.8 705.7C72.8 706.8 71.6 706.6 70.7 706.8Z" fill="#262626"/>
<path fill-rule="evenodd" clip-rule="evenodd" d="M71.7999 709C71.9999 707.8 72.8999 708.4 72.8999 709C72.6999 710.2 71.7999 709.6 71.7999 709Z" fill="#262626"/>
<path fill-rule="evenodd" clip-rule="evenodd" d="M71.7999 711.1C75.1999 747.1 73.9999 780.4 74.9999 815C71.3999 813.5 72.9999 808.8 72.8999 806.4C72.4999 798.1 72.1999 785.4 71.7999 777.5C71.7999 776.6 72.8999 776.5 72.8999 776.4C71.8999 756.1 71.5999 734.9 70.7999 714.3C71.9999 714.2 71.5999 712.4 71.7999 711.1Z" fill="#262626"/>
<path fill-rule="evenodd" clip-rule="evenodd" d="M204.6 721.8C204 721.2 205.4 720.4 205.7 720.7C206.2 721.3 204.9 722.1 204.6 721.8Z" fill="#262626"/>
<path fill-rule="evenodd" clip-rule="evenodd" d="M41.7999 721.8C42.7999 722.3 43.6999 722.7 43.8999 723.9C44.7999 740.5 45.2999 757.5 44.9999 775.3C44.2999 779.2 47.2999 779.4 47.0999 782.8C47.2999 788.6 46.3999 795.7 48.1999 799.9C48.1999 802.8 48.1999 805.6 48.1999 808.5C47.5999 810.7 49.8999 815.9 46.0999 814.9C45.8999 804 46.1999 792.7 42.8999 784.9C41.6999 760.5 42.9999 746.4 41.7999 721.8Z" fill="#262626"/>
<path fill-rule="evenodd" clip-rule="evenodd" d="M447.6 726.1C447.4 724.9 447.8 724.2 448.7 724C448.9 725.2 448.5 725.9 447.6 726.1Z" fill="#262626"/>
<path fill-rule="evenodd" clip-rule="evenodd" d="M68.6 734.7C69.8 734.5 70.5 734.9 70.7 735.8C69.9 780.5 73.3 812.2 72.8 855.8C69 854.4 72.5 852.3 70.7 849.4C70.3 812 68.1 776.3 68.6 738C68.6 736.8 68.6 735.8 68.6 734.7Z" fill="#262626"/>
<path fill-rule="evenodd" clip-rule="evenodd" d="M455.1 746.5C457.2 746.1 456.7 751.4 454 749.7C454 749 454 748.3 454 747.6C455 747.7 455.1 747.1 455.1 746.5Z" fill="#262626"/>
<path fill-rule="evenodd" clip-rule="evenodd" d="M448.7 757.2C448.1 756.6 449.5 755.8 449.8 756.1C450.3 756.7 449 757.5 448.7 757.2Z" fill="#262626"/>
<path fill-rule="evenodd" clip-rule="evenodd" d="M48.2 761.5C49.4 761.3 50.0999 761.7 50.2999 762.6C48.8999 774.1 53.3999 785 50.2999 794.7C47.1999 787.3 48.6 774.2 48.2 761.5Z" fill="#262626"/>
<path fill-rule="evenodd" clip-rule="evenodd" d="M127.5 782.9C126.9 782.3 128.3 781.5 128.6 781.8C129.1 782.4 127.8 783.2 127.5 782.9Z" fill="#262626"/>
<path fill-rule="evenodd" clip-rule="evenodd" d="M454.1 784C454.3 782.8 455.2 783.4 455.2 784C454.9 785.2 454.1 784.6 454.1 784Z" fill="#262626"/>
<path fill-rule="evenodd" clip-rule="evenodd" d="M448.7 795.8C448.1 795.2 449.5 794.4 449.8 794.7C450.3 795.2 449 796 448.7 795.8Z" fill="#262626"/>
<path fill-rule="evenodd" clip-rule="evenodd" d="M336.3 801.1C335.7 800.5 337.1 799.7 337.4 800C337.9 800.6 336.6 801.4 336.3 801.1Z" fill="#262626"/>
<path fill-rule="evenodd" clip-rule="evenodd" d="M453 804.3C452.4 803.7 453.8 802.9 454.1 803.2C454.6 803.8 453.3 804.6 453 804.3Z" fill="#262626"/>
<path fill-rule="evenodd" clip-rule="evenodd" d="M51.4999 816.1C50.8999 815.5 52.2999 814.7 52.5999 815C53.0999 815.6 51.7999 816.4 51.4999 816.1Z" fill="#262626"/>
<path fill-rule="evenodd" clip-rule="evenodd" d="M453 821.5C452.4 820.9 453.8 820.1 454.1 820.4C454.6 820.9 453.3 821.8 453 821.5Z" fill="#262626"/>
<path fill-rule="evenodd" clip-rule="evenodd" d="M51.5 1016.4C50 1051.5 50.9 1087.7 51.5 1116C51.8 1131.8 50.8 1147.2 51.5 1163.1C52.1 1176.8 50.6 1190.4 51.5 1203.8C52.4 1216.8 53.1 1229.3 54.7 1241.3V1279.9H75.9C71.1 1235 76.6 1181.6 75.1 1131C76.1 1127.4 76.5 1123.1 77.2 1119.2C76.3 1055.9 78.7 992.6 77.2 934.9C76.2 931 79.1 929.2 77.2 927.4C75.9 927.2 76.3 925.4 76.1 924.2C75.8 922.3 77.1 922 77.2 923.1V926.3C78 928.2 78.4 925.7 78.3 924.2V918.8C78.6 900.6 78.3 881.5 77.2 864.2C76.8 858.4 78.5 852.5 75.1 848.1V867.4C75.9 871.8 71.6 871.1 73 876V902.8C72.7 906.7 76 906.9 76.2 910.3C75.5 913.2 77.6 918.8 75.1 919.9C74.4 915.9 76.8 908.9 73 908.1C73 927.3 73.4 945.3 73 962.7C72.8 971.6 72.1 980 71.9 988.4C71.8 991.7 73 994.6 73 998C72.6 1019.4 71.8 1041.6 70.9 1064.4C70.3 1078.1 71.5 1092.3 70.9 1106.2C70.1 1123.9 68.4 1141.3 67.7 1158.7C67.3 1168 68.1 1177.4 67.7 1186.6C67.2 1197.8 65.9 1209.1 65.6 1219.8C65.2 1230.9 66.9 1241.7 63.5 1251.9V1220.8C61.9 1215.1 63.9 1201.9 60.3 1197.2C61.2 1195.2 60.9 1198.4 62.4 1198.3C62.4 1193.8 58.7 1193 61.3 1188.7C61 1184.8 62.2 1179.2 60.2 1176.9C58.8 1145.6 59.9 1118 59.1 1081.6C59 1074.9 58.9 1067.8 59.1 1060.2C59.2 1055.7 59.3 1051.6 59.1 1047.3C57.5 1011.4 59.7 976.9 58 939.1C56.7 910 52.4 877.1 53.7 843.8C55.7 839.7 53.2 839.4 53.7 833.1C53.8 828 53.9 822.9 50.5 821.3C51.5 843.1 52.8 874 50.5 898.4C49.6 870.6 50.3 850.9 48.4 822.3C43.5 886.3 54.3 951.8 51.5 1016.4ZM73.9 902.9C73.3 902.3 74.7 901.5 75 901.8C75.6 902.4 74.2 903.2 73.9 902.9Z" fill="#262626"/>
<path fill-rule="evenodd" clip-rule="evenodd" d="M73.8999 829C74.0999 827.8 74.9999 828.4 74.9999 829C74.7999 830.2 73.8999 829.6 73.8999 829Z" fill="#262626"/>
<path fill-rule="evenodd" clip-rule="evenodd" d="M499.1 833.2C498.5 832.6 499.9 831.8 500.2 832.1C500.7 832.7 499.3 833.5 499.1 833.2Z" fill="#262626"/>
<path fill-rule="evenodd" clip-rule="evenodd" d="M10.8 842.9C10.2 842.3 11.6 841.5 11.9 841.8C12.4 842.4 11.1 843.2 10.8 842.9Z" fill="#262626"/>
<path fill-rule="evenodd" clip-rule="evenodd" d="M10.7999 850.4C10.9999 849.2 11.8999 849.8 11.8999 850.4C11.5999 851.6 10.7999 851 10.7999 850.4Z" fill="#262626"/>
<path fill-rule="evenodd" clip-rule="evenodd" d="M267.8 853.6C267.2 853 268.6 852.2 268.9 852.5C269.4 853.1 268.1 853.9 267.8 853.6Z" fill="#262626"/>
<path fill-rule="evenodd" clip-rule="evenodd" d="M268.8 855.7C268.2 855.1 269.6 854.3 269.9 854.6C270.5 855.2 269.1 856 268.8 855.7Z" fill="#262626"/>
<path fill-rule="evenodd" clip-rule="evenodd" d="M8.59989 873.9C11.1999 907 14.9999 938.9 16.0999 973.5C18.5999 997.7 20.9999 1023.2 20.3999 1049.6C19.7999 1075.3 20.3999 1101.3 20.3999 1127.8C20.3999 1179.9 17.1999 1233.6 22.2999 1280H26.7999V1278.9C24.0999 1244.2 25.6999 1212.7 25.6999 1177.1C25.6999 1141.7 24.1999 1105.9 24.5999 1070C25.3999 997.2 17.4999 927.5 13.8999 857.9C10.3999 858 11.5999 862.8 10.6999 865.4C11.4999 869.6 7.89989 869.7 8.59989 873.9Z" fill="#262626"/>
<path fill-rule="evenodd" clip-rule="evenodd" d="M8.59994 863.2C9.39994 861.2 9.79994 863.8 9.69994 865.3C8.89994 867.3 8.49994 864.7 8.59994 863.2Z" fill="#262626"/>
<path fill-rule="evenodd" clip-rule="evenodd" d="M72.9 865.4C72.3 864.8 73.7 864 74 864.3C74.5 864.9 73.2 865.7 72.9 865.4Z" fill="#262626"/>
<path fill-rule="evenodd" clip-rule="evenodd" d="M72.9 868.6C72.3 868 73.7 867.2 74 867.5C74.5 868.1 73.2 868.9 72.9 868.6Z" fill="#262626"/>
<path fill-rule="evenodd" clip-rule="evenodd" d="M292.4 873.9C291.8 873.3 293.2 872.5 293.5 872.8C294 873.4 292.7 874.2 292.4 873.9Z" fill="#262626"/>
<path fill-rule="evenodd" clip-rule="evenodd" d="M292.4 878.2C291.8 877.6 293.2 876.8 293.5 877.1C294 877.7 292.7 878.5 292.4 878.2Z" fill="#262626"/>
<path fill-rule="evenodd" clip-rule="evenodd" d="M292.4 885.7C293 884 293.5 885.6 293.5 886.8C292.9 888.5 292.3 886.9 292.4 885.7Z" fill="#262626"/>
<path fill-rule="evenodd" clip-rule="evenodd" d="M292.4 891.1C293.3 887.7 293.8 893 293.5 894.3C292.6 897.7 292 892.4 292.4 891.1Z" fill="#262626"/>
<path fill-rule="evenodd" clip-rule="evenodd" d="M292.4 897.5C292.6 896.3 293.5 896.9 293.5 897.5C293.3 898.7 292.4 898.1 292.4 897.5Z" fill="#262626"/>
<path fill-rule="evenodd" clip-rule="evenodd" d="M292.4 901.8C292.4 900.8 293.7 901 294.5 900.7C294.5 901.8 293.2 901.6 292.4 901.8Z" fill="#262626"/>
<path fill-rule="evenodd" clip-rule="evenodd" d="M275.3 925.4C274.7 924.8 276.1 924 276.4 924.3C276.9 924.9 275.6 925.7 275.3 925.4Z" fill="#262626"/>
<path fill-rule="evenodd" clip-rule="evenodd" d="M462.6 943.6C462 943 463.4 942.2 463.7 942.5C464.3 943.1 462.9 943.9 462.6 943.6Z" fill="#262626"/>
<path fill-rule="evenodd" clip-rule="evenodd" d="M277.4 951.1C276.8 950.5 278.2 949.7 278.5 950C279 950.6 277.7 951.4 277.4 951.1Z" fill="#262626"/>
<path fill-rule="evenodd" clip-rule="evenodd" d="M291.3 962.9C290.7 962.3 292.1 961.5 292.4 961.8C292.9 962.4 291.6 963.2 291.3 962.9Z" fill="#262626"/>
<path fill-rule="evenodd" clip-rule="evenodd" d="M277.4 966.1C276.8 965.5 278.2 964.7 278.5 965C279 965.6 277.7 966.4 277.4 966.1Z" fill="#262626"/>
<path fill-rule="evenodd" clip-rule="evenodd" d="M268.8 972.5C268.8 979.6 268.8 986.8 268.8 993.9C265.8 992.6 266.8 987.3 266.7 983.2C267.7 980 264.4 972.4 268.8 972.5Z" fill="#262626"/>
<path fill-rule="evenodd" clip-rule="evenodd" d="M291.3 974.7C291.5 973.5 292.4 974.1 292.4 974.7C292.2 975.9 291.3 975.3 291.3 974.7Z" fill="#262626"/>
<path fill-rule="evenodd" clip-rule="evenodd" d="M269.9 978.9C270.2 977.6 272 977.8 272 978.9C271.1 979.6 270.1 980.2 269.9 978.9Z" fill="#262626"/>
<path fill-rule="evenodd" clip-rule="evenodd" d="M253.8 988.6C253.2 988 254.6 987.2 254.9 987.5C255.5 988.1 254.1 988.9 253.8 988.6Z" fill="#262626"/>
<path fill-rule="evenodd" clip-rule="evenodd" d="M257 991.8C257.2 990.6 258.1 991.2 258.1 991.8C257.9 993 257 992.4 257 991.8Z" fill="#262626"/>
<path fill-rule="evenodd" clip-rule="evenodd" d="M257 995C256.4 994.4 257.8 993.6 258.1 993.9C258.7 994.5 257.4 995.3 257 995Z" fill="#262626"/>
<path fill-rule="evenodd" clip-rule="evenodd" d="M267.8 996.1C267.2 995.5 268.6 994.7 268.9 995C269.4 995.6 268.1 996.4 267.8 996.1Z" fill="#262626"/>
<path fill-rule="evenodd" clip-rule="evenodd" d="M267.8 999.3C267.2 998.7 268.6 997.9 268.9 998.2C269.4 998.8 268.1 999.6 267.8 999.3Z" fill="#262626"/>
<path fill-rule="evenodd" clip-rule="evenodd" d="M271 1000.4C271 999.4 272.3 999.6 273.1 999.3C273.1 1000.3 271.8 1000.1 271 1000.4Z" fill="#262626"/>
<path fill-rule="evenodd" clip-rule="evenodd" d="M287 1001.4C286.4 1000.8 287.8 1000 288.1 1000.3C288.7 1000.9 287.3 1001.7 287 1001.4Z" fill="#262626"/>
<path fill-rule="evenodd" clip-rule="evenodd" d="M253.8 1004.6C254 1003.4 254.9 1004 254.9 1004.6C254.7 1005.9 253.8 1005.2 253.8 1004.6Z" fill="#262626"/>
<path fill-rule="evenodd" clip-rule="evenodd" d="M261.3 1005.7C260.7 1005.1 262.1 1004.3 262.4 1004.6C263 1005.2 261.6 1006 261.3 1005.7Z" fill="#262626"/>
<path fill-rule="evenodd" clip-rule="evenodd" d="M283.8 1008.9C283.2 1008.3 284.6 1007.5 284.9 1007.8C285.4 1008.4 284.1 1009.2 283.8 1008.9Z" fill="#262626"/>
<path fill-rule="evenodd" clip-rule="evenodd" d="M495.8 1019.6C495.2 1019 496.6 1018.2 496.9 1018.5C497.5 1019.1 496.1 1019.9 495.8 1019.6Z" fill="#262626"/>
<path fill-rule="evenodd" clip-rule="evenodd" d="M275.3 1041.1C274.7 1040.5 276.1 1039.7 276.4 1040C276.9 1040.6 275.6 1041.4 275.3 1041.1Z" fill="#262626"/>
<path fill-rule="evenodd" clip-rule="evenodd" d="M264.5 1049.6C263.9 1049 265.3 1048.2 265.6 1048.5C266.2 1049.1 264.8 1049.9 264.5 1049.6Z" fill="#262626"/>
<path fill-rule="evenodd" clip-rule="evenodd" d="M247.4 1050.7C246.8 1050.1 248.2 1049.3 248.5 1049.6C249 1050.2 247.7 1051 247.4 1050.7Z" fill="#262626"/>
<path fill-rule="evenodd" clip-rule="evenodd" d="M254.9 1058.2C254.3 1057.6 255.7 1056.8 256 1057.1C256.5 1057.7 255.2 1058.5 254.9 1058.2Z" fill="#262626"/>
<path fill-rule="evenodd" clip-rule="evenodd" d="M253.8 1061.4C254.1 1060.1 255.9 1060.3 255.9 1061.4C256.6 1076.7 257.2 1085.1 255.9 1102.1C251.9 1092.5 254.7 1070.8 253.8 1061.4Z" fill="#262626"/>
<path fill-rule="evenodd" clip-rule="evenodd" d="M401.1 1280C400.5 1277.5 400.2 1274.8 399.5 1272.5C401 1267.1 397.3 1266.8 397.4 1262.9C394.3 1258.4 396.8 1248.5 393.1 1244.7C389 1199.5 384 1165.3 386.7 1122.6C386.6 1120.9 387.2 1118.5 385.6 1118.3C384.8 1120.2 384.5 1117.7 384.5 1116.2C384.7 1098.5 383.4 1082.3 382.4 1065.8C379.9 1065.5 381.2 1068.9 379.2 1069C378.9 1066.5 379.4 1064.9 380.3 1063.6C379.1 1060.2 377.2 1064.6 378.2 1066.8C377 1068.1 377 1070.6 377.1 1073.2C377.5 1077.4 376.1 1083.5 378.2 1086.1C374.7 1094.8 375.7 1105.2 375 1116.1C374.4 1126 373.3 1136.6 372.9 1146.1C371.3 1166.2 373.2 1186.4 369.7 1206.1C369.7 1231.7 369.4 1257.6 372.6 1280H401.1ZM380.2 1071.1C380 1072.3 379.1 1071.7 379.1 1071.1C379.3 1069.9 380.2 1070.5 380.2 1071.1ZM380.2 1074.3C380.8 1074.9 379.4 1075.7 379.1 1075.4C378.6 1074.8 379.9 1074 380.2 1074.3Z" fill="#262626"/>
<path fill-rule="evenodd" clip-rule="evenodd" d="M251.7 1064.6C251.9 1063.4 252.8 1064 252.8 1064.6C252.6 1065.9 251.7 1065.2 251.7 1064.6Z" fill="#262626"/>
<path fill-rule="evenodd" clip-rule="evenodd" d="M246.3 1068.9C245.7 1068.3 247.1 1067.5 247.4 1067.8C248 1068.4 246.6 1069.2 246.3 1068.9Z" fill="#262626"/>
<path fill-rule="evenodd" clip-rule="evenodd" d="M250.6 1071.1C250 1070.5 251.4 1069.7 251.7 1070C252.2 1070.6 250.9 1071.4 250.6 1071.1Z" fill="#262626"/>
<path fill-rule="evenodd" clip-rule="evenodd" d="M250.6 1073.2C250 1072.6 251.4 1071.8 251.7 1072.1C252.2 1072.7 250.9 1073.5 250.6 1073.2Z" fill="#262626"/>
<path fill-rule="evenodd" clip-rule="evenodd" d="M249.6 1076.4C249 1075.8 250.4 1075 250.7 1075.3C251.2 1075.9 249.9 1076.7 249.6 1076.4Z" fill="#262626"/>
<path fill-rule="evenodd" clip-rule="evenodd" d="M120.9 1280C117.6 1224.8 124.2 1159.6 113.5 1111.8C112.2 1168 111.3 1224.5 109.3 1280H120.9Z" fill="#262626"/>
<path fill-rule="evenodd" clip-rule="evenodd" d="M262.4 1140.7C261.8 1140.1 263.2 1139.3 263.5 1139.6C264 1140.2 262.7 1141 262.4 1140.7Z" fill="#262626"/>
<path fill-rule="evenodd" clip-rule="evenodd" d="M267.8 1191.1C268 1189.9 268.9 1190.5 268.9 1191.1C268.6 1192.3 267.8 1191.6 267.8 1191.1Z" fill="#262626"/>
<path fill-rule="evenodd" clip-rule="evenodd" d="M61.0999 1193.2C60.4999 1192.6 61.8999 1191.8 62.1999 1192.1C62.6999 1192.7 61.3999 1193.5 61.0999 1193.2Z" fill="#262626"/>
<path fill-rule="evenodd" clip-rule="evenodd" d="M127.5 805.4C127.7 804.2 128.6 804.8 128.6 805.4V820.4C130.2 825.5 125.9 824.9 126.5 829C126.8 855.3 128.5 888 129.7 914.7C130.7 936.5 130.6 957.8 131.8 979C132.5 990.5 135.2 1001.6 136.1 1013.3C137 1025.4 137.2 1037.7 138.2 1049.7C140.2 1073.2 143.7 1096.3 145.7 1119.3C148.2 1131.6 147.4 1143.5 147.8 1155.7C148.5 1173.4 150.6 1190.2 152.1 1209.3C152.3 1212 153 1214.9 153.2 1217.9C153.3 1220.6 152 1223.7 152.1 1226.5C152.5 1232.2 154 1237.6 154.2 1243.6C154.7 1255.7 154.4 1267.8 155.1 1280H160.3C159 1268.2 159.6 1254.4 159.5 1241.4C158.9 1235.6 158.6 1233.9 157.4 1227.5C158.9 1214.7 155.5 1202.7 154.2 1191.1C154.2 1191.4 155.9 1190.5 155.3 1190C153.2 1188.3 153.4 1175.4 153.2 1170.7C152.4 1156.2 152.5 1141.2 151.1 1126.8C148.3 1098.4 144.5 1070.2 141.5 1043.2C138 991.9 133.1 941.9 130.8 892.1C129.6 883.5 132.2 883.5 131.9 875C129.4 840.4 131.3 794.4 133 757.2C134.6 752.1 130.3 752.7 130.9 748.6C133.1 728.3 127.9 710.9 130.9 695C132.1 688.9 131.9 701.2 132 706.8C132.1 714.8 131.9 723.1 132 729.3C135.6 730.4 133.7 726 134.1 723.9V673.5C136.1 656.2 139 639.8 139.5 621C135 633 136.2 650.5 133.1 663.9V676.8C132.2 680.2 131.7 674.9 132 673.6C132 671.8 132 670 132 668.2C132.3 660.3 134.2 654 134.1 645.7C130.2 644.7 132.6 649.9 132 652.1C130.5 653.5 130.9 656.7 130.9 659.6C127.7 695.9 130.1 732.9 127.7 771C131.4 776.3 129.3 787.2 129.8 795.6C130.7 800.6 127 794.1 126.6 797.7C130.4 797 128.5 801.6 126.6 798.8C127 800.8 125.1 805.3 127.5 805.4ZM129.6 766.8V758.2C130.2 756.6 130.7 758.1 130.7 759.3V772.2C129.2 775.6 129.6 768.4 129.6 766.8ZM128.6 802.2C128.4 803.4 127.5 802.8 127.5 802.2C127.7 801 128.6 801.6 128.6 802.2Z" fill="#262626"/>
<path fill-rule="evenodd" clip-rule="evenodd" d="M298.4 4.88311e-05C293.8 42.7001 294.3 90.5 291.3 134.8C289.8 180.6 284.9 228.1 285.9 273C282.6 308.1 285.5 343.8 281.6 378C277.9 410.8 277.3 447.1 277.3 483C277.3 494.5 275.8 505.7 275.2 517.3C274.6 529.1 275.4 541 275.2 552.7C275.1 561.9 273.6 571.2 273.1 580.6C271.9 600.4 270.3 619.7 268.8 638.4C266.9 662.8 267.8 685.9 266.7 710.2C266 724.3 265.6 738.6 264.6 753.1C261.6 765.1 262.5 781 259.2 792.7C259.2 800.2 254.5 803 256 812C253.8 817.3 251.7 822.7 250.6 829.1C252 833.3 247.7 831.9 246.3 833.4C246.2 836.1 245.7 838.5 244.2 839.8C243.9 845.5 239.4 847.2 239.9 853.7C238.6 858.4 235.5 861.4 233.5 865.5C233.5 868.3 234.1 871.8 231.4 871.9C229.1 872.8 230.5 877.4 228.2 878.3C227.8 884.7 226.9 890.5 225 895.4C226.1 916.9 221.2 932.3 220.7 952.2C220.6 954.9 220.1 957.3 218.6 958.6C217.1 955.2 217.9 962.8 216.5 962.9V981.1C217.9 985.3 213 983.3 214.4 987.5C214.2 990.3 215.3 996 212.3 992.9C212.1 993.7 212.3 995 211.2 995V983.2C212.6 976.8 208 976.4 209.1 970.3V930.7C213.5 902.2 212.6 868.5 217.7 840.7C220.5 833.5 222.3 825.3 225.2 818.2V800C235.3 754.1 245.8 708.5 245.5 652.2C243.6 627 243 600.4 242.3 574C241.4 550.7 244.8 521.1 243.4 494.7C242.6 479.9 239.9 466.6 237 455.1C233.9 411.2 238.5 368.6 243.4 329.8C245.1 316 247.3 302.8 247.7 289.1C249.4 233 254.7 176.9 255.2 116.6C263.3 80.5 266.6 39.6 271.2 0.100049H266.4C265.9 5.90005 266.4 13.5001 265.8 19.2001C264.9 28.1 260.8 37.2001 262.6 50.3C259.8 60.4 258.8 72.2 257.2 83.5C246.9 116.7 250.5 156.3 248.6 198.1C248 212.1 245.7 225.4 246.5 242C242.3 265.7 243.8 295 241.1 320.2C237.5 330.4 238.4 341.8 236.8 353.4C236.1 358.6 234 364 233.6 369.5C232.3 385.1 234.2 401.1 231.5 416.6C231.5 437.3 232 457.5 236.9 473.4C238.7 500.2 242.3 530.2 238 557C238.5 566.5 236.9 578.1 239.1 585.9C240 626.8 244.3 665.4 240.2 705.9C237.3 718.7 234.5 731.6 233.8 746.6C228.5 758.1 225.7 772 221 784.1C220.9 796.8 216.8 805.6 217.8 819.5C214.4 836.1 210.9 852.6 208.2 869.9V887C204.5 897.9 205.3 913.4 200.7 923.4C200 950.4 202.7 976.9 201.8 1007C202.4 1008.6 202.9 1007.1 202.9 1005.9C206.4 1028.5 210 1050.9 211.5 1075.5C218.1 1101 219.8 1131.5 229.7 1153.7C230.4 1155.5 232.2 1154.4 231.8 1152.6C234.2 1152.7 232.3 1157.1 232.9 1159C232.4 1162.4 235.8 1161.8 236.1 1164.4C236.1 1167.2 235.7 1170.5 237.2 1171.9C239.5 1172.1 237.7 1168.1 238.3 1166.5C240.2 1177.4 239.6 1190.9 245.8 1197.6C249.5 1197 247.4 1190.6 247.9 1186.9V1174C246.4 1172.6 246.8 1169.3 246.8 1166.5C243.5 1166.7 245 1171.8 244.7 1175.1C244.5 1176.3 243.6 1175.7 243.6 1175.1V1171.9C244.2 1170.3 242.4 1166.4 244.7 1166.5C244.5 1162.4 244.7 1158.6 245.8 1155.8V1136.5C242.3 1131.1 242.7 1121.8 239.4 1116.1C239.2 1106.7 238.8 1107.7 238.3 1099C237.3 1099.1 237.1 1099.8 237.1 1100.8C236 1066.8 236.3 1052.6 237.2 1016.5C238.4 1016.8 237.9 1018.6 239.3 1018.6C240.3 1012.5 239.8 1008.4 240.4 1001.5C241.8 1001.8 241.3 1004.2 241.5 1005.8C245.4 1006.8 243.4 1001.2 242.6 1000.4C245.6 999.3 241 997.5 243.7 996.1C244.9 997.1 244 998.1 244.8 1001.5C247.8 999.2 245.5 998.4 246.9 995.1C248.9 995.9 247.6 998.3 250.1 996.2C253 997 249.3 991.1 252.2 991.9C254.4 990.2 252.6 984.4 254.3 982.3C257.1 983.8 257.4 987.8 259.7 989.8C259 994.5 261.5 995.8 260.8 1000.5C264.5 999.8 260.5 993.6 261.9 988.7C261.3 987.8 260.8 987 260.8 985.5C260.5 983.6 261.8 983.3 261.9 984.4C261.4 987.8 263.8 988.2 263 991.9C264.9 995.3 263.6 1002 265.1 1005.8C269.5 1002.3 264.9 997.8 267.2 994C265.5 990 266.3 983.5 266.1 977.9C259.3 959.5 262.7 936.9 259.7 915.8C257.2 918 259.3 924.7 258.6 928.7C258 930.3 259.8 934.2 257.5 934.1V927.7C258.1 912.1 256.7 898.5 256.4 883.8C255.6 879.1 258.5 884.7 258.5 881.7V874.2C259.7 870.7 259.7 877.1 259.6 878.5V884.9C259.2 890 259.9 893.8 260.7 897.8C264.6 898.8 262.2 893.6 262.8 891.4C264.7 893.8 263.7 899 264.9 902.1C265 904.8 264.1 903.4 262.8 903.2C263.1 904.9 261.8 905 261.7 906.4C261.6 922.5 261.6 938.2 262.8 950.3C263.4 952 263.9 950.4 263.9 949.2C266.3 950 264.3 955.2 265 957.8C265.7 959.6 267.5 958.5 267.1 956.7C270 961.7 268.8 970.7 270.3 977.1C274.2 973.2 271.7 962.9 270.3 955.7C270.4 946.7 267.8 940.4 267.1 932.1C268.3 932.3 268 934 268.2 935.3C273.3 932.7 267.8 926 269.3 920.3C270.9 920.5 269.7 923.5 271.4 923.5C272 921.9 272.5 923.4 272.5 924.6C273 928 270.6 928.4 271.4 932.1V950C270.2 953.4 273.1 952.6 273.5 954.3V966.1C277 957.7 275.5 940.2 276.7 931.8C274.9 931.4 274.7 932.6 274.6 933.9C272 933.2 274 928.5 276.7 929.6C276.4 928.3 274.6 928.5 274.6 929.6C273.3 929.2 275.5 923.4 274.6 920C276.2 915.9 271.7 917.9 272.5 914.6C274.2 906.3 273.4 895.5 273.6 885.7C269.9 886.3 272 892.7 271.5 896.4C270.7 898.4 270.4 895.8 270.4 894.3V888.9C271.1 881.4 269.4 876.3 269.3 869.6C267.4 880.4 267.7 898.4 269.3 909.2C265.5 906.7 267.3 900.8 267.2 897.4C266.3 869.2 265.3 832 268.3 799.9C269.9 782.6 269.8 764.8 271.5 747.4C272 742.8 273.4 737.9 273.6 733.5C274.6 717.4 272.3 701.8 273.6 685.3C274.2 676.8 274 665.4 273.6 654.2C273.4 651.5 274.2 649.8 275.7 648.8C273.4 636.8 276.9 625.2 275.7 609.2C276.5 606.8 276.6 603.7 277.8 601.7V586.7C278.7 583.3 278.5 578.8 279.9 576C280.8 550.7 284.3 525.6 283.1 499.9C282.5 487.2 284.5 474.4 285.2 461.3C286.5 438.4 283.8 414.5 286.3 392.7C285.6 388.8 288.6 388.6 288.4 385.2C289.9 319.4 290.8 254.5 293.8 190.2C294.6 172.1 295.1 153.7 295.9 135.6C298 90.1001 297.3 44.6 302 -0.199951H298.4V4.88311e-05ZM202.4 1000.4C201.8 999.8 203.2 999 203.5 999.3C204.1 999.8 202.7 1000.7 202.4 1000.4ZM233.5 1095.7C232.6 1099.1 232.1 1093.8 232.4 1092.5V1073.2C232.6 1072 233.5 1072.6 233.5 1073.2V1095.7ZM236.7 1105.4C236.7 1104 236.6 1102.7 236.6 1101.4C236.7 1102.7 237 1104.4 236.7 1105.4ZM236.7 1118.2C233.1 1117.8 235 1112 234.6 1108.6C236.6 1106.2 234.9 1116.7 236.7 1118.2ZM241 976.8C240.4 978.5 239.9 976.9 239.9 975.7C240.5 974.1 241 975.7 241 976.8ZM236.7 1011.1C236.1 1010.5 237.5 1009.7 237.8 1010C238.3 1010.6 237 1011.4 236.7 1011.1ZM237.8 950V939.3C238.7 935.9 239.2 941.2 238.9 942.5V948.9C238.9 952.4 240.7 954.2 240 958.5C235.7 959.2 238.7 952.7 237.8 950ZM239.9 962.9C239.3 964.6 238.8 963 238.8 961.8C239.4 960.1 240 961.7 239.9 962.9ZM238.8 969.3C238.2 968.7 239.6 967.9 239.9 968.2C240.5 968.8 239.1 969.6 238.8 969.3ZM239.9 1000.4C239.3 999.8 240.7 999 241 999.3C241.5 999.8 240.2 1000.7 239.9 1000.4ZM239.9 997.1C239.3 996.5 240.7 995.7 241 996C241.5 996.6 240.2 997.4 239.9 997.1ZM239.9 984.3C240.8 980.9 241.3 986.2 241 987.5C240.1 990.9 239.6 985.6 239.9 984.3ZM239.9 982.2C239.3 981.6 240.7 980.8 241 981.1C241.5 981.6 240.2 982.4 239.9 982.2ZM248.5 899.7V896.5C249.7 893 249.7 899.4 249.6 900.8C249 902.4 248.4 900.8 248.5 899.7ZM245.3 886.8C245.9 887.4 244.5 888.2 244.2 887.9C243.6 887.3 245 886.5 245.3 886.8ZM243.1 982.2V994C242.9 995.2 242 994.6 242 994C242.4 989.8 241 983.7 243.1 981.1C244.3 981.3 243.7 982.2 243.1 982.2ZM246.3 988.6C245.7 988 247.1 987.2 247.4 987.5C248 988.1 246.6 988.9 246.3 988.6ZM246.3 981.1C245.7 980.5 247.1 979.7 247.4 980C248 980.6 246.6 981.4 246.3 981.1ZM247.4 974.7C246.8 974.1 248.2 973.3 248.5 973.6C249 974.1 247.7 974.9 247.4 974.7ZM249.6 967.2C247.4 967.5 249.3 971.9 247.5 972.6C246.8 967.9 247.9 950.6 247.5 939.4H245.4C245.3 950.1 245.7 960.5 244.3 967.3V980C243.3 980 243.5 978.7 243.2 977.9C243.2 963.6 243.8 949.9 245.3 937.2V919C244.1 914.8 244.6 909 243.2 905.1V895.5C243.8 893.3 241.5 888.1 245.3 889.1C244.4 915.3 249.4 935.7 248.5 962C249.1 963.6 249.6 962.1 249.6 960.9C251.9 962.8 249.8 969.3 251.7 971.6C250.3 970.7 249.7 969.1 249.6 967.2ZM251.7 983.2C250.8 986.6 250.3 981.3 250.6 980C251.5 976.6 252 981.9 251.7 983.2ZM250.6 975.7C250.8 974.5 251.7 975.1 251.7 975.7C251.5 976.9 250.6 976.3 250.6 975.7ZM250.6 987.5C250 986.9 251.4 986.1 251.7 986.4C252.2 987 250.9 987.8 250.6 987.5ZM252.8 911.4C254.6 920.7 253.6 932.7 253.9 943.5C250.2 940.7 251.8 932.1 251.8 925.3V906C251.9 901.4 253.6 898.5 252.9 893.1C253.8 889.7 254.3 895 254 896.3V902.7C254.6 906.9 252 907.5 252.8 911.4ZM256 965C256.8 963 257.2 965.6 257.1 967.1C256.2 969.1 255.9 966.5 256 965ZM256 958.6C256.9 955.2 257.4 960.5 257.1 961.8C256.2 965.2 255.6 959.9 256 958.6ZM257 985.4C256.4 984.8 257.8 984 258.1 984.3C258.7 984.9 257.4 985.7 257 985.4ZM259.2 960.7C260.6 961.8 262 972 258.1 971.4C260.2 967.4 258 965.6 259.2 960.7ZM258.1 939.3C258.7 939.9 257.3 940.7 257 940.4C256.5 939.8 257.8 939 258.1 939.3ZM257 950C257.6 950.6 256.2 951.4 255.9 951.1C255.4 950.5 256.8 949.7 257 950ZM264.5 907.2C264.3 908.4 263.4 907.8 263.4 907.2C263.7 905.9 264.5 906.6 264.5 907.2ZM263.5 941.4C264.1 939.7 264.6 941.3 264.6 942.5C264 944.2 263.4 942.6 263.5 941.4ZM263.5 946.8C262.9 946.2 264.3 945.4 264.6 945.7C265.1 946.3 263.8 947.1 263.5 946.8ZM274.2 936.1C274 937.3 273.1 936.7 273.1 936.1C273.3 934.9 274.2 935.5 274.2 936.1ZM274.2 941.4C274.8 942 273.4 942.8 273.1 942.5C272.6 942 273.9 941.1 274.2 941.4ZM269.9 917.9C270.5 918.5 269.1 919.3 268.8 919C268.3 918.4 269.6 917.6 269.9 917.9Z" fill="#262626"/>
<path fill-rule="evenodd" clip-rule="evenodd" d="M313.9 0H309.5V12.6C307.5 12.4 308.8 9 307.4 8.3C303.9 22.8 304.9 45.8 304.2 59.7C306 61.5 303.5 67.5 307.4 67.2C306.7 68.1 305.7 70.1 307.4 70.4C307.2 78.9 307.3 87.2 308.5 94C305.7 95.9 306.3 101.1 306.4 105.8C304.2 110.3 306.5 119.5 304.3 124C303.3 144.6 306.3 159.6 304.3 171.1C308.8 172.8 304.5 165.6 307.5 165.7C308.4 146.4 309 129.7 311.8 110C309.9 106.2 311.9 98.5 308.6 96.1C312 83.2 308.6 76.9 310.7 67.2C306.9 65 313.1 57.6 308.6 57.6C308.6 54.7 312 55.3 311.8 52.2C310.5 31 314.1 20.1 313.9 0Z" fill="#262626"/>
<path fill-rule="evenodd" clip-rule="evenodd" d="M257 1110.7C257.7 1120.9 261.6 1129.5 262.4 1138.6C264.8 1137.1 262.8 1131.1 263.5 1127.9C266.4 1127.1 262.7 1133 265.6 1132.2C265.1 1149.1 266.2 1164.5 267.7 1179.3C267.4 1181.2 268.7 1181.5 268.8 1180.4C271.4 1180.5 269 1183.9 267.7 1183.6C268.1 1185.3 269.6 1182.7 269.8 1184.7C268.5 1208.9 271.8 1226.4 271.9 1246.8C271.3 1249.2 273.9 1248.3 274 1250C274.6 1259 275.6 1272 275.2 1280H282.2C278.6 1258.7 279.7 1232.7 276.1 1211.4C277.5 1200.2 277.4 1185.4 276.1 1180.3C275.9 1179.3 277.1 1178.9 277.2 1178.2C278 1164.4 277.4 1153.8 278.3 1141.8C278.3 1141.6 279.2 1139.1 279.4 1137.5C279.8 1134.5 279.2 1128.2 279.4 1122.5C281 1123.8 281 1127.8 282.6 1123.6C282.4 1120.5 282.9 1118.2 284.7 1117.2C285.9 1114.1 285.7 1109.6 286.8 1106.5C287 1104.6 285.7 1101.1 288.9 1102.2C289.5 1100.6 287.6 1096.7 290 1096.8C289.3 1091.8 291.7 1089.9 292.1 1086.1C293.5 1085 292.7 1082.5 293.2 1080.7C294 1077.5 293.2 1078.5 295.3 1077.5C296.7 1062.8 300.7 1048.1 301.7 1032.5C302.2 1024.3 302.6 1017 303.8 1008.9C304.1 1006.8 303.4 1004.5 303.8 1002.5C304.1 1001 305.7 999.9 305.9 998.2C307.8 986.5 305.8 975.5 305.9 963.9C306 957.8 307.7 951.7 308 945.7C309.2 925.8 307 906.2 306.9 886.8C308.1 881.7 303.6 882.3 304.8 877.2V800C308.9 780.2 307 759.9 308 740C308.3 733.4 309.8 727.2 310.1 720.7C310.5 713.3 309 705.7 309 698.2C309 685.2 310.6 671.7 311.1 658.6C312.9 616.7 313.2 578.5 314.3 538.6C315 511.4 315.4 483.8 315.4 456.1C315.4 376.2 318.6 292.9 318.6 210.8C318.6 183.5 319 156.5 320.7 129.4C323.4 87.7 322.3 42.1 322.8 0H320.1C320.5 6.3 318.8 12.7 318.5 19.1C318.1 28 318.3 36.3 317.4 43.7C316.7 49.7 318 55.5 318.5 60.8C320.3 83 318.5 119.4 315.3 147.6C312.8 179.2 315.9 211.3 314.2 242.9C313.9 248.7 312.4 254.4 312.1 260C311.4 272.3 311.5 286.5 311 297.5C309.6 328 311.3 358.8 309.9 389.6C308.9 411.1 308.4 432.1 308.8 453.9C307.7 456.3 308.1 460.4 306.7 462.5C304.1 495 306.1 529.6 304.6 564.3C302.4 611.9 303.5 662.9 301.4 715.3C302.6 718.7 299.7 717.9 299.3 719.6C299.4 753.1 293.9 787.8 296.1 819.2C296.3 821 294.3 822 296.1 822.4C295.4 823.5 293.6 823.5 294 825.6C293.4 845.1 295.4 862 296.1 880.2C296.8 884.1 293.8 884.3 294 887.7C293.9 893.1 293.5 898.9 296.1 901.6C295 927.1 291.2 958.6 294 988.4C288.7 988.7 294.4 978 290.8 976.6C286.8 989.7 292.4 1001.5 288.7 1019.5C286.2 1016.3 288.3 1008.4 287.6 1003.4C281.8 1003.5 287.7 1008.7 284.4 1010.9C284.1 1016.2 284 1015.5 283.3 1019.5C282.6 1023.8 284.3 1025.6 284.4 1029.1C282.5 1025.2 282.4 1030 281.2 1028C278.7 1030.5 280.8 1037.6 280.1 1041.9C278.4 1045.2 279.2 1037.3 279 1035.5C277.1 1036.5 276.6 1038.8 276.9 1041.9C277 1044.6 276.1 1043.2 274.8 1043C273.9 1043.9 274.2 1045.9 272.7 1046.2C274 1048.6 274.2 1057 272.7 1062.3C270.9 1060.2 271.5 1055.6 270.6 1052.7C268.7 1055.4 268.2 1054.9 268.5 1050.6C264.8 1048.5 263.8 1054.2 263.1 1051.7C261.8 1052.9 261.2 1054.8 257.7 1053.8C257.3 1067.3 258.3 1080.7 257.7 1093.4C257.9 1099.3 256.6 1105 257 1110.7ZM284.9 1031.4C284.7 1032.6 283.8 1032 283.8 1031.4C284 1030.2 284.9 1030.8 284.9 1031.4ZM277.4 1052.9C276.8 1054.6 276.3 1053 276.3 1051.8C276.9 1050.1 277.4 1051.7 277.4 1052.9ZM276.3 1045.4C276.9 1046 275.5 1046.8 275.2 1046.5C274.7 1045.9 276 1045.1 276.3 1045.4ZM269.9 1178.2C269.1 1180.2 268.8 1177.6 268.8 1176.1C269.7 1174.1 270 1176.7 269.9 1178.2ZM268.8 1168.6C269.7 1165.2 270.2 1170.5 269.9 1171.8C269 1175.2 268.5 1169.9 268.8 1168.6ZM262.4 1056.1C264.2 1052.7 262.8 1061.3 264.5 1061.5C264.8 1066.8 264.3 1071.3 263.4 1075.4C259.3 1072.6 263 1063.9 262.4 1056.1Z" fill="#262626"/>
<path fill-rule="evenodd" clip-rule="evenodd" d="M165 931.8C165.5 953.5 166.6 974.5 166.1 997.1C167.7 1007.7 169.4 1018.1 169.3 1030.3C170.1 1032.7 170.3 1035.8 171.4 1037.8C171.9 1060.2 177.5 1077.4 178.9 1098.9C186.3 1126.1 188.2 1157 190.7 1186.7C191.1 1189.2 192 1191.1 192.8 1193.1C195 1223.3 202 1248.9 203.4 1279.9H239.8C239 1254.1 236 1231.4 233.4 1206C231 1197.3 228.9 1188.3 228 1178.1C225.1 1172.1 224.4 1163.9 220.5 1158.8C219.3 1146 214.3 1137.2 214.1 1123.4C209.7 1106.7 208.4 1087 203.4 1070.9C203.1 1057.6 201.1 1046.1 195.9 1037.7C194 1016 190.9 995.5 191.6 971.3C191 968.3 190 965.7 189.5 962.7C190.5 948.3 190.9 933.4 190.6 917.7C191.4 913 188.5 918.6 188.5 915.6C188.9 900.5 192.6 890.2 189.6 873.8C188.8 869.1 191.7 874.7 191.7 871.7C191.8 855.4 196.3 843.4 194.9 825.6C196.5 817.9 199.4 811.6 199.2 802C200.7 802.2 199.6 805.2 201.3 805.2C203.2 800.4 202.9 788.6 201.3 783.8C200 780.3 204.8 783 203.4 779.5C203.5 777.5 204.1 775.9 205.5 775.2C205.8 769.5 206.2 763.8 207.6 759.1C206.2 757.5 206.6 759.9 205.5 757C204.8 755.2 205.6 753.8 204.4 752.7C205.1 749.5 205.7 747.4 204.4 746.3C206.2 742.2 206.2 748.6 207.6 748.4C211.8 739.4 211.3 730.5 215.1 722.7V710C217.3 710.3 215.4 714.7 217.2 715.4C220.8 713.1 215.8 707.8 221.5 709C222 700.5 226 695.7 226.9 687.6V634C226.3 629.1 225 619.2 225.8 613.6C223.3 612 223.8 610.6 225.8 609.3C225.1 608.2 223.3 608.2 223.7 606.1V576.1C224.4 571.8 227 569.4 225.8 563.2C228.5 559.2 227.2 555 229 551.4C228.4 538.7 227.8 525.4 227.9 505.3C228.6 501.4 229 497.2 230 493.5C229.4 487.3 228.4 481.5 228.9 474.2C227.4 473.5 228.7 470.1 226.8 469.9C224.4 473 228.1 468.3 225.7 468.8C223.6 431.8 226.1 396.5 225.7 358.5C224.5 355.1 227.4 355.9 227.8 354.2C227.1 340.7 230.2 336.4 227.8 325.3C226.9 333.8 223.1 338.6 222.4 345.7C222 349.5 222.7 354.1 222.4 359.6C221.2 359.3 221.7 357.5 220.3 357.5C218.9 371.1 216.2 383.4 217.1 399.3C217.3 402.3 213.9 401.8 213.9 404.7C212.9 421 212.3 438.5 213.9 451.8C213.1 456.5 216 450.9 216 453.9C215.6 474 216.4 492.8 218.1 510.7C218.7 514.2 220.3 512.7 221.3 513.9C222 518.9 222.7 523 222.4 531C220.4 530.2 221.7 527.8 219.2 529.9V552.4C217.7 552.1 218.3 549.7 218.1 548.1C219.7 544.1 215.2 546 216 542.7C216.6 525.7 215.3 510.5 211.7 497.7C209.9 512 209.9 533.8 211.7 548C210.6 551.6 209.6 546.8 208.5 546.9C207.6 551 210.3 551.5 211.7 553.3C210.2 556.5 212.2 557.1 211.7 561.9C212.2 563.5 213.1 561.5 214.9 561.9C215.2 564.4 211.8 563.1 211.7 565.1C212.1 566.6 213.6 565.2 213.8 564C214.4 563.7 214.9 567.1 214.9 567.2C214.5 570.9 214.9 569.4 211.7 570.4C211.4 571.6 216.7 570.3 213.8 572.5C215.7 573.2 213.7 577.6 215.9 577.9C218.1 581.3 211.7 581.2 214.8 582.2C214.2 584.1 217.9 586.7 214.8 587.6C216.1 589.5 214.4 594.3 216.9 597.2C214.3 602.2 216.5 603.9 216.9 607.9C215.1 614.3 218.4 616.8 215.8 624C221 623.1 219.5 615.5 220.1 610.1C221 606.7 221.5 612 221.2 613.3V619.7C222.7 627.1 222.3 636.5 223.3 644.3C221.1 647.5 223.4 637.2 221.2 636.8C217.8 641.2 218.3 649.6 216.9 656.1C213.7 654.3 217.9 645.1 214.8 643.2C213 651.7 214.7 654.9 214.8 666.8C213.7 670.8 217.5 669.9 216.9 673.2C217.3 682.5 217.8 691.6 219 700C217.1 704.1 219.1 695.8 216.9 696.8V690.4C215 687.7 215 683 213.7 679.7C212.8 671.7 216.2 659.4 210.5 656.1C206.9 657.1 211.7 658.2 211.6 659.3C212.6 661.3 208.4 662.9 211.6 663.6C207.1 667.1 209.7 672.2 207.3 678.6V688.2C205 688.4 206.8 684.4 206.2 682.8C202.7 688.8 205.7 699.2 206.2 709.6C206.8 720.8 207.1 733.5 207.3 745C204.7 744.4 204.9 741 204.1 738.6C205.3 736.4 204 737.7 206.2 736.5C207 731.8 204.1 737.4 204.1 734.4C203.5 729.5 206 727.7 205.2 722.6C203.7 722.9 204.3 725.3 204.1 726.9C201.6 724 203.7 716.6 203 711.9C202.2 707.4 205 699.2 200.9 698C199.4 701.5 200.7 714.7 197.7 717.3C195.3 717.2 197.2 712.8 196.6 710.9C192.3 713.8 193.8 720.7 193.4 727C193 733.2 192 746.1 191.3 751.6C188.8 744.1 190.9 732 190.2 722.7C182.8 727.4 187 743.8 185.9 754.8C183.5 750 183.7 742.7 183.8 735.5C178.5 743.4 184.2 762.3 180.6 771.9C177.9 764.5 180.4 751.1 180.6 746.2C178 745.8 178.4 749.5 178.5 749.4C177 754.2 175.5 760.4 175.3 766.5C175.4 769.2 174.5 767.8 173.2 767.6C173.3 769.1 173.4 770.6 172.1 770.8V791.2C171.8 796.4 168.5 796.2 168.9 799.8C169.2 822.1 163.8 845.3 165.7 867.3C167.1 884.1 166.5 902.2 166.8 912.3C166.8 913.5 165.8 912.9 165.7 913.4C165.6 913.7 167.8 918.7 166.8 922C165.6 921.8 165.9 920.1 165.7 918.8C161.4 920.7 166.6 926.4 165 931.8ZM216.4 444.4C215.8 443.8 217.2 443 217.5 443.3C218 443.8 216.7 444.7 216.4 444.4ZM213.2 559C213.4 557.8 214.3 558.4 214.3 559C214 560.2 213.1 559.6 213.2 559ZM214.2 539.7V554.7C213.4 556.7 213.1 554.1 213.1 552.6V537.6C214 535.6 214.3 538.2 214.2 539.7ZM215.3 547.2C215.9 545.5 216.4 547.1 216.4 548.3C215.8 549.9 215.2 548.3 215.3 547.2ZM215.3 552.6C214.7 552 216.1 551.2 216.4 551.5C216.9 552 215.6 552.9 215.3 552.6ZM226 475.4C226.8 473.4 227.1 476 227.1 477.5C226.2 479.5 225.9 476.9 226 475.4ZM227.1 480.8C227.7 481.4 226.3 482.2 226 481.9C225.4 481.3 226.8 480.5 227.1 480.8ZM227.1 484C227.7 484.6 226.3 485.4 226 485.1C225.4 484.5 226.8 483.7 227.1 484ZM226 533.3C225.4 534.9 224.9 533.4 224.9 532.2V529C226.2 525.5 226.1 531.9 226 533.3ZM221.7 365.1C224 364.5 225.6 371.5 221.7 370.5C223.7 368.4 221.8 367.8 221.7 365.1ZM221.7 372.6C224 372.8 224 375.3 223.8 378C220.3 379 222.2 374.6 221.7 372.6ZM222.8 386.5C222.2 388.2 221.7 386.6 221.7 385.4C222.3 383.8 222.8 385.4 222.8 386.5ZM218.5 554.7C219.1 553 219.6 554.6 219.6 555.8C219 557.4 218.5 555.8 218.5 554.7ZM218.5 563.3C217.9 562.7 219.3 561.9 219.6 562.2C220.1 562.8 218.8 563.6 218.5 563.3ZM219.6 576.1C220.8 575.9 221.5 576.3 221.7 577.2V595.4C220.3 595.1 220.8 592.7 220.6 591.1C219.6 586.8 219.3 581.7 219.6 576.1ZM220.6 597.6C220 597 221.4 596.2 221.7 596.5C222.3 597 220.9 597.9 220.6 597.6ZM221.7 534.4C221.1 533.8 222.5 533 222.8 533.3C223.3 533.8 222 534.6 221.7 534.4ZM221.7 381.2C221.1 380.6 222.5 379.8 222.8 380.1C223.3 380.6 222 381.5 221.7 381.2ZM224.9 495.8C225.5 496.4 224.1 497.2 223.8 496.9C223.3 496.3 224.6 495.5 224.9 495.8ZM223.9 647.9C223.7 649.1 222.8 648.5 222.8 647.9C223 646.7 223.9 647.3 223.9 647.9ZM222.8 669.3C223.6 667.4 224 669.9 223.9 671.4C223 673.4 222.7 670.8 222.8 669.3ZM222.8 696.1C223.4 696.7 222 697.5 221.7 697.2C221.2 696.6 222.5 695.8 222.8 696.1ZM218.5 703.6C219.1 702 219.6 703.5 219.6 704.7C219 706.3 218.5 704.8 218.5 703.6ZM200.3 721.8C200.9 722.4 199.5 723.2 199.2 722.9C198.7 722.3 200 721.5 200.3 721.8ZM198.2 719.7C198 720.9 197.1 720.3 197.1 719.7C197.3 718.5 198.2 719.1 198.2 719.7ZM174.6 771.1C175.2 769.5 175.7 771 175.7 772.2C175.1 773.8 174.6 772.2 174.6 771.1Z" fill="#262626"/>
<path fill-rule="evenodd" clip-rule="evenodd" d="M200.3 720.8C201.5 713.9 197 718.4 200.3 720.8V720.8Z" fill="#262626"/>
<path fill-rule="evenodd" clip-rule="evenodd" d="M418.7 180.8C419.3 196.4 418.4 212.4 419.8 227.9C420.1 231.3 421.7 234.3 421.9 237.5C422.4 243.5 420.8 250.5 420.8 253.6C421.1 274.5 423.1 296.8 424 317.9C424.7 333.6 424.6 349.4 425.1 365C425.6 380.6 424.9 395.6 425.1 411.1C425.6 442 428.2 473 428.3 504.3C430.3 524.1 429.3 555.6 432.6 575C433.5 599.2 434.6 623.3 434.7 646.8C434.9 688.7 437.2 731.3 437.9 774.3C438.2 796.4 437.7 830.1 437.9 862.1C440.8 899.2 439.6 938.6 442.2 973.5C442.6 979.3 443.9 984.7 444.3 990.6C444.8 996.9 444 1003.5 444.3 1009.9C445.4 1033.4 447.5 1057.8 449.7 1081.7C452 1106.4 450.2 1131.7 455.1 1153.5C456.4 1159.4 460.1 1168.9 461.5 1173.9C462.9 1177.5 464.5 1180.9 466.9 1183.5C465.3 1187.6 471.7 1183.7 470.1 1187.8C472.3 1188.1 470.4 1192.5 473.3 1192.1C474.3 1200.3 479.1 1204.9 480.8 1212.5C484 1218.5 485.8 1226.1 488.3 1232.9C492.8 1246.6 495.1 1262.5 495.7 1280.1H499.9C497.6 1251.7 494.2 1224.5 484 1204C483.5 1198.4 481.3 1194.6 480.8 1189C477.3 1186 476.4 1180.5 475.4 1175.1C471.6 1176.8 474.8 1171.5 472.2 1171.9C473 1167 469.3 1173.5 470.1 1168.7C471 1165.7 468.6 1165.9 469 1163.3C466.8 1165.5 466.9 1162.9 465.8 1161.2C466.6 1156.1 464.1 1154.3 464.7 1149.4C463.1 1149.2 463.7 1146.8 463.6 1145.1C462.3 1145.3 461.4 1146.8 461.5 1144C461.9 1135.4 458.6 1130.5 457.2 1123.6C460.1 1117.3 457.9 1112.3 458.3 1103.2C459.1 1100.3 456.2 1101 456.2 1098.9C461.4 1098.4 454.9 1098.5 456.2 1095.7C458 1080.1 455.5 1056.6 454.1 1044.3C453.3 1041 457.8 1043 456.2 1038.9C454.3 1031.2 455.5 1020.4 455.1 1011C455.2 1009.9 454.6 1008.3 454 1009.9C452.8 1009.7 452.8 1008.2 452.9 1006.7C454.1 992.3 453.3 980.2 452.9 969.2C451.2 926.2 452.2 888.3 450.8 853.5C453.3 851.9 446.6 850.7 448.7 846C452.2 832 446.9 804.9 448.7 789.2V792.4C448.8 793.5 450.1 793.2 449.8 791.3C450.2 789.8 451.1 789.5 449.8 788.1C450.6 777.4 448.5 767 449.8 761.3C449.9 760.2 449.3 758.6 448.7 760.2C447.4 760.4 446.5 761.9 446.6 759.1C445.6 753.6 448.3 748.3 448.7 743C449.4 733.8 448 726.1 445.5 719.4C445 714.2 446.6 706.8 444.4 703.3C445.5 703.3 445.7 704.2 446.5 704.4V700.1C445.8 658.3 445 610.9 445.4 571.5C447.7 586.9 445.8 599.8 449.7 613.3C450.7 608.7 449.6 604.5 451.8 599.4C452.5 617.6 453 637 455 658.3C453.8 659.6 451.9 660.2 452.9 663.7C452.5 696.2 454.4 703.6 454 736.5C455.9 740.5 452.3 743.4 456.1 745.1C456.8 730.8 454.7 713.7 457.2 701.2C456.4 724.3 458.6 738 458.3 760.1C456.8 766.7 458.3 778.3 456.2 786.9C456.8 791.4 455.4 799.6 456.2 800.8C454.8 803.5 456.4 809.6 453 809.4C456.7 811.2 453.6 813 455.1 816.9C456.2 821.6 453 825.2 455.1 827.6V852.2C455.1 854.5 457.2 859.7 458.3 864C459.8 877.4 459.3 893 459.4 907.9C457.5 910.8 464.1 910 460.5 911.1C457.2 913.7 461.7 911.8 461.6 913.2C459.7 920.2 461.9 932 463.7 941.1C464.4 937.5 462.3 931.1 464.8 929.3V958.2C464.8 961 466.2 967.1 466.9 976.4C466.9 976.4 465.8 976.6 465.8 977.5C466 981.9 468.4 1002.9 470.1 990.4V1009.7C471.7 1015.9 472.1 1025.5 473.3 1029C473.8 1032.8 474.9 1036 474.4 1040.8C474 1043.4 476.3 1043.1 475.5 1046.2C474.6 1048.7 477 1051.1 476.6 1047.3C476.8 1046.5 476.6 1045.2 477.7 1045.2V1063.4C478.8 1065.9 479.6 1068.7 479.8 1072C480.1 1073.4 481.3 1074 480.9 1076.3C480.9 1079.3 483.8 1073.7 483 1078.4C482.9 1082 482.7 1085.9 485.1 1087C485.8 1083.8 483.7 1077.8 486.2 1076.3C486.5 1082.1 487.9 1086.7 487.3 1093.4C489.1 1094.5 488.5 1098 489.4 1099.8C493.3 1099.1 490.7 1104.9 493.7 1105.2C493 1097 494.4 1090.9 496.9 1085.9C497.1 1090 496.9 1093.8 495.8 1096.6C496.5 1099.3 491.9 1105 496.9 1105.2C500.6 1094.5 499.7 1085.3 499 1072C498.4 1059.3 497.3 1045.4 495.8 1031.3C494.8 1027.1 493.2 1036.2 492.6 1032.4C495.2 1028 492.7 1014.8 493.7 1012C494.6 1013.3 495.1 1014.9 494.8 1017.4C500.1 1016.7 494.2 1011.6 495.9 1007.8V995C494.5 991.1 494.9 985.3 493.8 981.1C494.3 943.1 489.3 910.6 490.6 871.8C494.3 834.9 489 793.9 489.5 756.1C489.5 753.1 486.6 758.7 487.4 754C491.4 753.2 487.7 753.3 487.4 750.8C486.7 745.1 487.7 738.7 487.4 732.6C486.6 717.7 482.7 702.7 484.2 686.5C483.2 682.9 482.8 678.6 482.1 674.7C481.1 624.9 482.1 577.1 483.2 524.7C483.9 520.4 480.4 520.4 481.1 516.1C481.5 476.5 471.9 445.9 472.5 409C468.1 370.3 467.3 325.1 469.3 280.4C470.1 262.6 469.6 247.4 470.4 231.1C470.8 222.9 472.6 214.7 472.5 206.5C472.5 196.1 470.9 181.2 470.4 173.3C470.3 171.4 471.5 170 471.5 169C471.2 157.8 469.7 147.6 472.6 137.9C474 110.7 473.9 78.9001 473.7 53.3001C472 49.3001 471.9 43.7001 470.5 39.4001C470.3 25.8001 469.3 13.1001 468.5 0.000146486H466.1C465.9 21.2001 467.5 40.6001 470.4 58.7001C471 92.1001 470.3 124.3 467.2 154C467.6 168.4 467.8 182.6 467.2 196.9C467.1 200 468.2 203 468.3 203.3C468.6 204.3 467.2 204.6 467.2 205.4C467.2 209.3 467.4 213.3 467.2 217.2C463.6 282.3 462.6 351.5 468.3 414.3C469.5 427.9 471.2 441.4 472.6 455C474 469 474.4 483 475.8 496.8C481.6 555 475.4 613.5 477.9 672.5C479.1 700.4 482.2 727.9 482.2 756.1C482.2 785.4 482.8 815.3 483.3 845C483 848.6 481.6 851.1 482.2 855.7C482.5 857.8 480.8 857.8 480.1 858.9C479.5 860.5 481.3 864.4 479 864.3C479.7 867.6 477.6 873.5 480.1 875C478.9 877.7 477.2 879.9 476.9 883.6C473.7 882.9 476.2 876.4 472.6 876.1C471.2 876.1 471.2 873.1 472.6 872.9C473.8 876 473.8 871.3 471.5 871.8C470.5 848.7 470.8 822.4 469.4 805.4C471.7 801.4 467.3 802.2 468.3 796.8V785C468.9 776.2 467.5 769.3 466.2 762.5C465.9 746.4 464.5 731.3 465.1 714.3C461.2 686.1 462.7 652.4 458.7 624.3C458.3 585.8 454.6 547.7 452.3 509.7C451.7 500.2 452.1 490.2 451.2 480.8C450.8 476.4 449.4 472.1 449.1 467.9C447.2 443.5 447.6 418.6 445.9 394C443.2 356.5 440.5 318.4 440.5 280.4V219.3C440.5 188.5 437.8 161.5 439.4 133.6C432.7 91.3002 438.7 44.3001 439.4 -0.0998535H435.1V20.0001C430.4 45.1001 432.1 78.5001 430.8 103.6C429.2 106.8 430.8 95.4001 428.7 92.9001C426.3 93.7001 428.3 98.9001 427.6 101.5C426.8 103.5 426.5 100.9 426.5 99.4001V94.0001C427.4 91.0001 425 91.2001 425.4 88.6001V59.8001C423.8 55.7001 428.3 57.7001 427.5 54.4001C425.2 36.5001 428.6 18.1001 429.5 0.000146486H423.1C420.9 48.0001 411.6 89.4002 415.7 135.8C415.1 150.9 418.1 165.7 418.7 180.8ZM448.7 900.7V897.5C449.9 894 449.9 900.4 449.8 901.8C449.2 903.5 448.7 901.9 448.7 900.7ZM494.8 1056.1C496.7 1057.4 495.6 1061.7 496.9 1063.6C493.8 1063.4 494.9 1059.1 494.8 1056.1ZM481.9 1064.6C485.2 1064.8 483.7 1069.9 484 1073.2C482.2 1071.5 481.7 1068.4 481.9 1064.6ZM478.7 1043.2C479.3 1043.8 477.9 1044.6 477.6 1044.3C477.1 1043.7 478.4 1042.9 478.7 1043.2ZM475.5 887.9C476.1 888.5 474.7 889.3 474.4 889C473.9 888.4 475.2 887.6 475.5 887.9ZM475.5 895.4C476.1 896 474.7 896.8 474.4 896.5C473.9 895.9 475.2 895.1 475.5 895.4ZM461.6 901.8C462.5 898.4 463 903.7 462.7 905C461.7 908.4 461.2 903.1 461.6 901.8ZM455.1 697.2C454.5 696.6 455.9 695.8 456.2 696.1C456.8 696.7 455.4 697.5 455.1 697.2ZM456.2 684.3C456.8 684.9 455.4 685.7 455.1 685.4C454.6 684.9 455.9 684 456.2 684.3ZM429.4 230.1C429.6 228.9 430.5 229.5 430.5 230.1C430.3 231.3 429.4 230.7 429.4 230.1ZM430.5 275.1C431.3 273.1 431.7 275.7 431.6 277.2C430.8 279.2 430.4 276.6 430.5 275.1ZM434.8 399.4C434.2 398.8 435.6 398 435.9 398.3C436.4 398.8 435.1 399.7 434.8 399.4ZM434.8 396.2C435 395 435.9 395.6 435.9 396.2C435.7 397.4 434.8 396.7 434.8 396.2ZM435.9 379C436.1 377.8 437 378.4 437 379C436.7 380.2 435.9 379.6 435.9 379ZM442.3 602.9C441.7 602.3 443.1 601.5 443.4 601.8C443.9 602.4 442.6 603.2 442.3 602.9ZM442.3 578.3C441.7 577.7 443.1 576.9 443.4 577.2C443.9 577.8 442.6 578.6 442.3 578.3ZM442.3 571.8C441.7 571.2 443.1 570.4 443.4 570.7C443.9 571.3 442.6 572.1 442.3 571.8ZM448.7 563.3V576.2C447 579.5 447.8 571.6 447.6 569.8V561.2C448.5 559.2 448.8 561.8 448.7 563.3ZM448.7 557.9C449.3 558.5 447.9 559.3 447.6 559C447.1 558.4 448.4 557.6 448.7 557.9ZM446.6 537.6C446.4 538.8 445.5 538.2 445.5 537.6C445.7 536.3 446.6 537 446.6 537.6ZM445.5 540.8C446.4 537.4 446.9 542.7 446.6 544C445.7 547.4 445.2 542.1 445.5 540.8ZM444.4 566.5V548.3C444.6 547.1 445.5 547.7 445.5 548.3V569.7C444.6 573.1 444.1 567.8 444.4 566.5ZM445.5 700.4C446.1 701 444.7 701.8 444.4 701.5C443.9 700.9 445.2 700.1 445.5 700.4ZM442.3 556.8C442.2 560.4 443.1 563.8 442.3 567.5C445.9 570.1 438.1 566.3 442.3 565.4C440.8 564.7 442.1 561.3 440.2 561.1C439.3 545.4 439.1 528.5 438.1 510.7V504.3C439 500.9 439.5 506.2 439.2 507.5V513.9C441.3 520.3 439.8 530.4 440.3 538.5C444.2 539.5 441.8 534.3 442.4 532.1C443.2 530.1 443.6 532.7 443.5 534.2V538.5C444.1 546 442.5 551.6 442.3 556.8ZM443.4 525.8C444 526.4 442.6 527.2 442.3 526.9C441.7 526.3 443.1 525.5 443.4 525.8ZM441.2 491.5C440.6 490.9 442 490.1 442.3 490.4C442.8 491 441.5 491.8 441.2 491.5ZM441.2 474.4C441 475.6 440.1 475 440.1 474.4C440.4 473.1 441.2 473.8 441.2 474.4ZM440.2 477.6C441.7 474.2 441.3 481.4 441.3 483C439.8 486.3 440.2 479.1 440.2 477.6ZM440.2 485.1C441.4 485.4 440.9 487.2 442.3 487.2C441.8 490.2 438.9 487.3 440.2 485.1ZM439.1 462.6C435.7 461.9 437.7 459.7 438 457.2C440.3 457 438.5 461 439.1 462.6ZM438 400.4C438.6 401 437.2 401.8 436.9 401.5C436.4 401 437.7 400.1 438 400.4ZM436.9 359.7V375.8C436.3 377.4 435.8 375.9 435.8 374.7V364C432.6 358 434.4 351 433.7 342.6C436.6 346.5 435 354.9 436.9 359.7ZM434.8 306.2C434.6 309.6 432.4 310.9 432.7 314.8C432 304 431.6 294.5 431.6 279.5C437.7 283.3 433.6 297.3 434.8 306.2ZM434.8 276.2C435.4 276.8 434 277.6 433.7 277.3C433.2 276.7 434.5 275.9 434.8 276.2ZM433.7 275.1C433.1 274.5 434.5 273.7 434.8 274C435.4 274.6 434 275.4 433.7 275.1ZM430.5 166.9C430.6 147.1 430.4 122.2 430.5 105.8C433.1 138.5 430.3 176.7 432.6 209.7C433.3 213.6 433.7 217.8 434.7 221.5V235.4C433.5 235.2 433.8 233.4 433.6 232.2C434.4 225.3 432.3 221.3 432.5 215.1C428 215.2 431.4 223.3 430.4 226.9C430.2 228.1 429.3 227.5 429.3 226.9V218.3C429.1 201 426.9 182.4 430.5 166.9ZM425.2 147.6C426.1 144.2 426.6 149.5 426.3 150.8C425.3 154.2 424.8 148.9 425.2 147.6ZM425.2 54.4001C425.8 55.0001 424.4 55.8001 424.1 55.5001C423.5 54.9001 424.9 54.1001 425.2 54.4001ZM422 88.7001V85.5001C423.2 82.0001 423.2 88.4001 423.1 89.8001C422.5 91.4001 421.9 89.8001 422 88.7001Z" fill="#262626"/>
<path fill-rule="evenodd" clip-rule="evenodd" d="M202.4 480.8C203 479.1 203.5 480.7 203.5 481.9C205.9 480.8 203.9 475.2 204.6 472.3C205.1 469.9 206.9 463.3 205.7 462.7C206.8 461.7 206 458.8 208.9 459.5C206.7 453.1 210.8 444.5 210 435.9C214.7 444 210 460.6 211.1 474.5C210.1 474 209.2 473.6 209 472.4C208.2 486.4 210.9 506.2 210.1 523.8C210.3 526.5 208.5 527.1 206.9 528.1C207.9 530.9 207.4 532.1 206.9 535.6C203.8 534.7 205.7 534 205.8 531.3C202.9 524.9 204.2 519.7 203.7 508.8C201 498.7 205.4 488.1 202.6 482C202.4 481.5 202.4 481.1 202.4 480.8ZM208.9 461.5C208.6 461.2 207.3 462 207.8 462.6C208.1 462.9 209.4 462.1 208.9 461.5ZM208.9 467.9C209 466.8 208.4 465.2 207.8 466.8C207.7 468 208.3 469.6 208.9 467.9ZM208.9 470.1C208.6 469.8 207.3 470.6 207.8 471.2C208.1 471.4 209.4 470.6 208.9 470.1Z" fill="#262626"/>
<path fill-rule="evenodd" clip-rule="evenodd" d="M224.9 601.8C226.4 602 225.3 605 227 605C226.6 607.7 224 604 224.9 601.8Z" fill="#262626"/>
<path fill-rule="evenodd" clip-rule="evenodd" d="M212.1 650.1C211.3 648.5 212.8 649.3 213.2 650.1C213.9 651.5 212.5 652.5 212.1 651.2C212 650.8 212.2 650.3 212.1 650.1Z" fill="#262626"/>
<path fill-rule="evenodd" clip-rule="evenodd" d="M272 996.1C275.3 993.2 269.1 999.3 272 996.1V996.1Z" fill="#262626"/>
</g>
<defs>
<clipPath id="clip0">
<rect width="504.5" height="1280" fill="white"/>
</clipPath>
</defs>
</svg>
