<svg width="34" height="30" viewBox="0 0 34 30" fill="none" xmlns="http://www.w3.org/2000/svg">
<path d="M33.3 0C33.2 0 33.1 0 33 0.1L0.400024 14.1C-0.0999756 14.3 -0.0999756 15.1 0.400024 15.3L10.6 19.1C10.9 21.3 11.9 29.3 11.9 29.4C12 29.7 12.3 30 12.6 30C12.8 30 12.9 29.9 13.1 29.8L19.2 23.6L28.4 27.3C28.5 27.3 28.6 27.3 28.6 27.3C28.9 27.3 29.2 27.1 29.3 26.8L34.1 0.8C34.1 0.6 34.1 0.3 33.9 0.2C33.6 0 33.5 0 33.3 0ZM28 25.8L16.3 21.1L32.2 2.9L28 25.8ZM11.2 18L2.50002 14.7L29.3 3.1L11.2 18ZM12.9 26.4L12 19L27.6 6.2L14.8 20.9C14.7 21 14.7 21 14.7 21.1L12.9 26.4ZM14.1 26.8L15.6 22.2L17.7 23.1L14.1 26.8Z" fill="#222222"/>
</svg>
