<svg width="244" height="39" viewBox="0 0 244 39" fill="none" xmlns="http://www.w3.org/2000/svg">
<g clip-path="url(#clip0)">
<path d="M0.0700293 0.450012L1.83003 0.510012C2.5567 0.536679 3.28003 0.546679 4.00003 0.540012C5.0067 0.540012 5.9667 0.540012 6.88003 0.540012H8.88003C10.6792 0.409193 12.4678 0.907618 13.94 1.95001C14.4833 2.38153 14.9194 2.93281 15.2143 3.56078C15.5092 4.18875 15.6549 4.8764 15.64 5.57001C15.6401 6.32722 15.4834 7.07625 15.18 7.77001C14.8373 8.55221 14.3087 9.23879 13.64 9.77001C12.7858 10.4294 11.8108 10.9152 10.77 11.2V11.26C12.173 11.374 13.536 11.783 14.77 12.46C15.6206 12.945 16.3146 13.6633 16.77 14.53C17.335 15.694 17.4982 17.0124 17.234 18.279C16.9699 19.5457 16.2932 20.6889 15.31 21.53C13.6981 22.7806 11.6865 23.4025 9.65003 23.28C9.1767 23.28 8.47003 23.28 7.53003 23.28C6.59003 23.28 5.41336 23.1867 4.00003 23H1.79003C1.06336 23 0.476696 23.0267 0.0300293 23.08V22.5C0.588831 22.4837 1.14328 22.3963 1.68003 22.24C1.8583 22.1825 2.01982 22.0822 2.15053 21.948C2.28124 21.8138 2.37719 21.6497 2.43003 21.47C2.57942 20.9061 2.64346 20.3229 2.62003 19.74V3.85001C2.66227 3.26295 2.61507 2.67289 2.48003 2.10001C2.42349 1.92219 2.32626 1.76001 2.19607 1.62634C2.06587 1.49267 1.9063 1.39121 1.73003 1.33001C1.19232 1.16515 0.63241 1.0842 0.0700293 1.09001V0.450012ZM8.00003 1.09001C7.66006 1.04283 7.31401 1.06645 6.9836 1.15938C6.65319 1.2523 6.34556 1.41253 6.08003 1.63001C5.70619 2.30282 5.54905 3.07459 5.63003 3.84001V19.74C5.53874 20.4911 5.70062 21.2513 6.09003 21.9C6.64909 22.3084 7.34324 22.4873 8.03003 22.4C10.1234 22.4 11.6467 21.9133 12.6 20.94C13.0947 20.3763 13.4731 19.7203 13.7134 19.0098C13.9536 18.2993 14.051 17.5483 14 16.8C14.0488 16.1134 13.9608 15.424 13.741 14.7717C13.5213 14.1194 13.1743 13.5172 12.72 13C11.8334 12.1 10.3767 11.65 8.35003 11.65H5.00003V11.1H7.80003C8.82419 11.1654 9.84365 10.914 10.72 10.38C11.3915 9.91571 11.888 9.23969 12.13 8.46001C12.3898 7.62493 12.518 6.75452 12.51 5.88001C12.6146 4.60869 12.2598 3.34201 11.51 2.31001C11.0514 1.86006 10.4988 1.5173 9.89186 1.30635C9.28496 1.09541 8.63888 1.02153 8.00003 1.09001Z" fill="#222222"/>
<path d="M36.13 0.450012C36.0433 1.19668 36 1.92335 36 2.63001C36 3.33668 36 3.87001 36 4.23001C36 4.61668 36 4.98668 36 5.34001C36 5.69335 36.02 5.98668 36.06 6.22001H35.32C35.2365 5.20427 35.0522 4.19933 34.77 3.22001C34.5932 2.55866 34.1618 1.99419 33.57 1.65001C32.763 1.29149 31.8812 1.13366 31 1.19001H28.31C27.7543 1.17156 27.1987 1.23216 26.66 1.37001C26.4835 1.42157 26.3225 1.51619 26.1916 1.64535C26.0607 1.77452 25.9639 1.93419 25.91 2.11001C25.7582 2.68031 25.6941 3.27041 25.72 3.86001V19.76C25.6966 20.3429 25.7606 20.9261 25.91 21.49C25.9625 21.6677 26.0586 21.8294 26.1896 21.9604C26.3206 22.0914 26.4823 22.1875 26.66 22.24C27.1986 22.3784 27.7542 22.439 28.31 22.42H30.65C31.698 22.479 32.7455 22.2941 33.71 21.88C34.4208 21.4995 34.9605 20.8633 35.22 20.1C35.5861 19.0157 35.8178 17.8907 35.91 16.75H36.65C36.5757 17.5177 36.5424 18.2888 36.55 19.06C36.55 19.4667 36.55 20.05 36.55 20.81C36.55 21.57 36.61 22.3567 36.73 23.17C35.6367 23.13 34.4067 23.1033 33.04 23.09H29.39H26.88H23.5C22.3 23.09 21.1767 23.1167 20.13 23.17V22.5C20.6888 22.4837 21.2433 22.3963 21.78 22.24C21.9583 22.1825 22.1198 22.0822 22.2505 21.948C22.3812 21.8138 22.4772 21.6497 22.53 21.47C22.6794 20.9061 22.7434 20.3229 22.72 19.74V3.85001C22.7459 3.26041 22.6819 2.67031 22.53 2.10001C22.4735 1.92219 22.3762 1.76001 22.246 1.62634C22.1158 1.49267 21.9563 1.39121 21.78 1.33001C21.2455 1.16616 20.689 1.08522 20.13 1.09001V0.450012L23.5 0.510012C24.6933 0.510012 25.82 0.510012 26.88 0.510012H29.43H32.78C34.0333 0.510012 35.15 0.490012 36.13 0.450012ZM30.62 11.45V12.09H24.75V11.45H30.62ZM31.55 7.22001C31.4633 8.40668 31.4233 9.33335 31.43 10C31.4367 10.6667 31.4367 11.2533 31.43 11.76C31.43 12.2933 31.43 12.88 31.43 13.52C31.43 14.16 31.4833 15.09 31.59 16.31H30.85C30.7633 15.6433 30.6633 14.9767 30.55 14.31C30.4571 13.7123 30.1892 13.1555 29.78 12.71C29.5053 12.4777 29.1867 12.3031 28.8431 12.1966C28.4995 12.0901 28.1379 12.0538 27.78 12.09V11.45C28.1482 11.4948 28.5218 11.451 28.8696 11.3222C29.2175 11.1935 29.5296 10.9836 29.78 10.71C30.1603 10.2023 30.4078 9.60763 30.5 8.98001C30.6067 8.31335 30.7033 7.72668 30.79 7.22001H31.55Z" fill="#222222"/>
<path d="M40 0.450012L41.76 0.510012C42.4866 0.510012 43.2033 0.510012 43.91 0.510012C44.9166 0.510012 45.8766 0.510012 46.79 0.510012H48.79C51.3766 0.510012 53.31 1.04335 54.59 2.11001C55.1963 2.58402 55.6849 3.19158 56.018 3.88538C56.351 4.57918 56.5194 5.34049 56.51 6.11001C56.5003 6.80994 56.3718 7.50313 56.13 8.16001C55.843 8.93292 55.3888 9.63292 54.8 10.21C54.0638 10.9188 53.184 11.461 52.22 11.8C50.8922 12.2561 49.4933 12.4695 48.09 12.43H44.95V11.79H47.7C48.9095 11.8397 50.1105 11.5671 51.18 11C51.9371 10.5748 52.5184 9.89429 52.82 9.08001C53.1178 8.21842 53.2633 7.31154 53.25 6.40001C53.3236 4.98485 52.8792 3.59134 52 2.48001C51.2 1.55335 49.8266 1.09001 47.88 1.09001C47.5464 1.04845 47.2078 1.07487 46.8847 1.16768C46.5616 1.26049 46.2607 1.41776 46 1.63001C45.6261 2.30282 45.469 3.07459 45.55 3.84001V19.74C45.5265 20.3229 45.5906 20.9061 45.74 21.47C45.7928 21.6497 45.8888 21.8138 46.0195 21.948C46.1502 22.0822 46.3117 22.1825 46.49 22.24C47.0267 22.3964 47.5812 22.4838 48.14 22.5V23.14C47.6466 23.1 47.0333 23.0733 46.3 23.06H44.07H41.73C41.0033 23.06 40.4166 23.0867 39.97 23.14V22.5C40.5288 22.4837 41.0832 22.3963 41.62 22.24C41.7982 22.1825 41.9598 22.0822 42.0905 21.948C42.2212 21.8138 42.3171 21.6497 42.37 21.47C42.5194 20.9061 42.5834 20.3229 42.56 19.74V3.85001C42.5859 3.26041 42.5218 2.67031 42.37 2.10001C42.3134 1.92219 42.2162 1.76001 42.086 1.62634C41.9558 1.49267 41.7962 1.39121 41.62 1.33001C41.0951 1.16917 40.549 1.08826 40 1.09001V0.450012ZM45.1 11.83C46.2533 11.87 47.16 11.9167 47.82 11.97L49.44 12.11C49.86 12.15 50.26 12.2033 50.64 12.27C51.7786 12.3777 52.8569 12.8313 53.73 13.57C54.4561 14.3988 54.9374 15.4133 55.12 16.5L55.92 19.77C56.0579 20.461 56.2795 21.1326 56.58 21.77C56.6645 21.9602 56.8063 22.1192 56.9856 22.225C57.1648 22.3308 57.3726 22.378 57.58 22.36C57.9141 22.3495 58.2349 22.2261 58.49 22.01C58.7816 21.7471 59.0463 21.4556 59.28 21.14L59.76 21.49C59.386 22.0717 58.916 22.5857 58.37 23.01C57.7748 23.3908 57.0756 23.5761 56.37 23.54C55.6156 23.5496 54.881 23.2988 54.29 22.83C53.5454 22.0859 53.0703 21.1146 52.94 20.07L52.23 16.86C52.0668 16.0487 51.8462 15.2501 51.57 14.47C51.3753 13.8645 51.0314 13.3177 50.57 12.88C50.0157 12.4566 49.3257 12.2503 48.63 12.3H45.14L45.1 11.83Z" fill="#222222"/>
<path d="M77.0601 0.450012C76.9734 1.19668 76.9134 1.92335 76.8801 2.63001C76.8467 3.33668 76.8467 3.87001 76.8801 4.23001C76.8801 4.61668 76.8801 4.98668 76.8801 5.34001C76.8801 5.69335 76.9001 5.98668 76.9401 6.22001H76.2001C76.1165 5.20427 75.9323 4.19933 75.6501 3.22001C75.4733 2.55866 75.0418 1.99419 74.4501 1.65001C73.6492 1.29466 72.7746 1.1369 71.9001 1.19001H69.2401C68.6843 1.17156 68.1288 1.23216 67.5901 1.37001C67.4135 1.42157 67.2526 1.51619 67.1217 1.64535C66.9908 1.77452 66.894 1.93419 66.8401 2.11001C66.6882 2.68031 66.6241 3.27041 66.6501 3.86001V19.76C66.6266 20.3429 66.6907 20.9261 66.8401 21.49C66.8925 21.6677 66.9887 21.8294 67.1197 21.9604C67.2507 22.0914 67.4124 22.1875 67.5901 22.24C68.1287 22.3784 68.6843 22.439 69.2401 22.42H71.5801C72.6281 22.479 73.6755 22.2941 74.6401 21.88C75.3508 21.4995 75.8906 20.8633 76.1501 20.1C76.5161 19.0157 76.7478 17.8907 76.8401 16.75H77.5801C77.5058 17.5177 77.4724 18.2888 77.4801 19.06C77.4801 19.4667 77.4801 20.05 77.4801 20.81C77.4801 21.57 77.5401 22.3567 77.6601 23.17C76.5667 23.13 75.3367 23.1033 73.9701 23.09H70.3201H67.8101H64.4301C63.2301 23.09 62.1067 23.1167 61.0601 23.17V22.5C61.6189 22.4837 62.1733 22.3963 62.7101 22.24C62.8883 22.1825 63.0498 22.0822 63.1806 21.948C63.3113 21.8138 63.4072 21.6497 63.4601 21.47C63.6094 20.9061 63.6735 20.3229 63.6501 19.74V3.85001C63.676 3.26041 63.6119 2.67031 63.4601 2.10001C63.4035 1.92219 63.3063 1.76001 63.1761 1.62634C63.0459 1.49267 62.8863 1.39121 62.7101 1.33001C62.1756 1.16616 61.6191 1.08522 61.0601 1.09001V0.450012L64.4301 0.510012C65.6234 0.510012 66.7501 0.510012 67.8101 0.510012H70.3601H73.7101C74.9634 0.510012 76.0801 0.490012 77.0601 0.450012ZM71.5501 11.45V12.09H65.6801V11.45H71.5501ZM72.4801 7.22001C72.3934 8.40668 72.3567 9.33335 72.3701 10C72.3834 10.6667 72.3834 11.2533 72.3701 11.76C72.3701 12.2933 72.3701 12.88 72.3701 13.52C72.3701 14.16 72.4234 15.09 72.5301 16.31H71.7901C71.7034 15.6433 71.6034 14.9767 71.4901 14.31C71.3972 13.7123 71.1292 13.1555 70.7201 12.71C70.4454 12.4777 70.1267 12.3031 69.7831 12.1966C69.4395 12.0901 69.078 12.0538 68.7201 12.09V11.45C69.0883 11.4948 69.4618 11.451 69.8097 11.3222C70.1575 11.1935 70.4697 10.9836 70.7201 10.71C71.1003 10.2023 71.3478 9.60763 71.4401 8.98001C71.5467 8.31335 71.6434 7.72668 71.7301 7.22001H72.4801Z" fill="#222222"/>
<path d="M97.19 0.450012V1.09001L84.4 22.41H90.68C91.5085 22.4345 92.3355 22.3265 93.13 22.09C93.7186 21.908 94.2427 21.5609 94.64 21.09C95.054 20.546 95.3441 19.918 95.49 19.25C95.7085 18.3222 95.8589 17.3797 95.94 16.43H96.68C96.6133 17.0967 96.58 17.9733 96.58 19.06C96.58 19.4667 96.58 20.05 96.58 20.81C96.58 21.57 96.64 22.3567 96.76 23.17C95.5866 23.13 94.2533 23.1033 92.76 23.09H88.76H84.76C83.36 23.09 82.05 23.1167 80.83 23.17V22.5L93.79 1.19001H87.54C86.508 1.14144 85.4794 1.3403 84.54 1.77001C83.8081 2.17558 83.2577 2.84399 83 3.64001C82.6323 4.78896 82.4007 5.97708 82.31 7.18001H81.57C81.61 6.84001 81.6366 6.44335 81.65 5.99001C81.6633 5.53668 81.6633 5.05668 81.65 4.55001C81.65 4.14335 81.65 3.56001 81.65 2.80001C81.65 2.04001 81.5733 1.25668 81.42 0.450012C82.6133 0.490012 83.9466 0.516679 85.42 0.530012H89.42H93.35C94.7366 0.516679 96.0166 0.490012 97.19 0.450012Z" fill="#222222"/>
<path d="M100.27 23.14V22.5C100.829 22.4837 101.383 22.3963 101.92 22.24C102.098 22.1825 102.26 22.0822 102.391 21.948C102.521 21.8138 102.617 21.6497 102.67 21.47C102.819 20.9061 102.883 20.3229 102.86 19.74V3.85001C102.886 3.26041 102.822 2.67031 102.67 2.10001C102.613 1.92219 102.516 1.76001 102.386 1.62634C102.256 1.49267 102.096 1.39121 101.92 1.33001C101.386 1.16616 100.829 1.08522 100.27 1.09001V0.450012L102 0.510012C102.727 0.510012 103.507 0.510012 104.34 0.510012C105.173 0.510012 105.917 0.510012 106.57 0.510012L108.41 0.450012V1.09001C107.851 1.08507 107.294 1.16601 106.76 1.33001C106.584 1.39121 106.424 1.49267 106.294 1.62634C106.164 1.76001 106.067 1.92219 106.01 2.10001C105.858 2.67031 105.794 3.26041 105.82 3.85001V19.75C105.797 20.3329 105.861 20.9161 106.01 21.48C106.063 21.6597 106.159 21.8238 106.29 21.958C106.42 22.0922 106.582 22.1925 106.76 22.25C107.297 22.4064 107.851 22.4938 108.41 22.51V23.15C107.917 23.11 107.303 23.0833 106.57 23.07H104.34H102C101.293 23.0767 100.717 23.1 100.27 23.14ZM104.73 12.05V11.41H117.39V12.05H104.73ZM113.67 23.14V22.5C114.229 22.4837 114.783 22.3963 115.32 22.24C115.498 22.1825 115.66 22.0822 115.791 21.948C115.921 21.8138 116.017 21.6497 116.07 21.47C116.219 20.9061 116.283 20.3229 116.26 19.74V3.85001C116.286 3.26041 116.222 2.67031 116.07 2.10001C116.013 1.92219 115.916 1.76001 115.786 1.62634C115.656 1.49267 115.496 1.39121 115.32 1.33001C114.786 1.16616 114.229 1.08522 113.67 1.09001V0.450012L115.53 0.510012C116.277 0.510012 117.013 0.510012 117.74 0.510012C118.573 0.510012 119.353 0.510012 120.08 0.510012L121.84 0.450012V1.09001C121.281 1.08507 120.724 1.16601 120.19 1.33001C120.014 1.39121 119.854 1.49267 119.724 1.62634C119.594 1.76001 119.497 1.92219 119.44 2.10001C119.288 2.67031 119.224 3.26041 119.25 3.85001V19.75C119.227 20.3329 119.291 20.9161 119.44 21.48C119.493 21.6597 119.589 21.8238 119.72 21.958C119.85 22.0922 120.012 22.1925 120.19 22.25C120.727 22.4064 121.281 22.4938 121.84 22.51V23.15C121.393 23.11 120.807 23.0833 120.08 23.07H117.74H115.53C114.777 23.0767 114.157 23.1 113.67 23.14Z" fill="#222222"/>
<path d="M145 0.450012V1.09001C144.434 1.07862 143.871 1.18769 143.35 1.41001C143.167 1.50389 143.005 1.63518 142.876 1.79538C142.747 1.95558 142.653 2.14113 142.6 2.34001C142.453 2.93837 142.389 3.55418 142.41 4.17001V23.3H141.67L128.18 2.50001V19.42C128.161 20.0304 128.232 20.6402 128.39 21.23C128.45 21.4373 128.555 21.6285 128.699 21.7895C128.843 21.9504 129.021 22.0771 129.22 22.16C129.823 22.3792 130.459 22.4942 131.1 22.5V23.14C130.713 23.1 130.21 23.0733 129.59 23.06H127.83H126.21C125.663 23.06 125.21 23.0867 124.85 23.14V22.5C125.416 22.4911 125.976 22.3757 126.5 22.16C126.685 22.0688 126.848 21.9383 126.978 21.7777C127.107 21.6171 127.2 21.4302 127.25 21.23C127.395 20.6381 127.459 20.0292 127.44 19.42V3.85001C127.466 3.26041 127.402 2.67031 127.25 2.10001C127.193 1.92219 127.096 1.76001 126.966 1.62634C126.836 1.49267 126.676 1.39121 126.5 1.33001C125.965 1.16616 125.409 1.08522 124.85 1.09001V0.450012L126.21 0.510012C126.757 0.510012 127.297 0.510012 127.83 0.510012C128.363 0.510012 128.813 0.510012 129.18 0.510012L130.33 0.450012L141.65 17.89V4.17001C141.671 3.55296 141.601 2.93618 141.44 2.34001C141.376 2.13455 141.269 1.94517 141.126 1.78471C140.983 1.62425 140.807 1.49646 140.61 1.41001C140.01 1.18372 139.371 1.07508 138.73 1.09001V0.450012L140.25 0.510012C140.877 0.510012 141.46 0.510012 142 0.510012C142.54 0.510012 143.09 0.510012 143.65 0.510012L145 0.450012Z" fill="#222222"/>
<path d="M158.12 1.41317e-05C159.993 -0.0411713 161.841 0.436428 163.46 1.38001C165.015 2.33273 166.254 3.72452 167.02 5.38001C167.917 7.34533 168.352 9.49038 168.29 11.65C168.337 13.8147 167.893 15.962 166.99 17.93C166.2 19.6382 164.95 21.0925 163.38 22.13C161.805 23.1463 159.964 23.6718 158.09 23.64C156.217 23.6817 154.368 23.2041 152.75 22.26C151.193 21.3087 149.954 19.9165 149.19 18.26C148.298 16.2967 147.867 14.1555 147.93 12C147.88 9.83403 148.329 7.68556 149.24 5.72001C150.037 4.01669 151.286 2.56418 152.85 1.52001C154.416 0.4996 156.251 -0.0296999 158.12 1.41317e-05ZM158 0.580014C156.65 0.556233 155.345 1.06659 154.37 2.00001C153.258 3.11465 152.444 4.48977 152 6.00001C151.402 7.898 151.115 9.8803 151.15 11.87C151.107 13.8804 151.425 15.8821 152.09 17.78C152.594 19.2726 153.476 20.6092 154.65 21.66C155.638 22.5244 156.907 23.0005 158.22 23C159.569 23.0158 160.87 22.4983 161.84 21.56C162.959 20.4476 163.78 19.0723 164.23 17.56C164.825 15.6683 165.112 13.693 165.08 11.71C165.123 9.69229 164.801 7.68341 164.13 5.78001C163.621 4.29774 162.744 2.96935 161.58 1.92001C160.59 1.05179 159.317 0.575243 158 0.580014Z" fill="#222222"/>
<path d="M180.14 0.450012C183.967 0.450012 186.81 1.40668 188.67 3.32001C190.53 5.23335 191.46 7.97335 191.46 11.54C191.511 13.657 191.044 15.7545 190.1 17.65C189.204 19.3715 187.81 20.7829 186.1 21.7C184.164 22.7093 182.002 23.2051 179.82 23.14C179.347 23.14 178.653 23.14 177.74 23.14C176.827 23.14 176.027 23.14 175.34 23.14H173.13C172.403 23.14 171.817 23.1667 171.37 23.22V22.5C171.929 22.4837 172.483 22.3963 173.02 22.24C173.198 22.1825 173.36 22.0822 173.49 21.948C173.621 21.8138 173.717 21.6497 173.77 21.47C173.919 20.9061 173.983 20.3229 173.96 19.74V3.85001C173.986 3.26042 173.922 2.67034 173.77 2.10001C173.713 1.92219 173.616 1.76001 173.486 1.62634C173.356 1.49267 173.196 1.39121 173.02 1.33001C172.486 1.16616 171.929 1.08522 171.37 1.09001V0.450012L173.13 0.530012C173.857 0.530012 174.573 0.530012 175.28 0.530012L177.81 0.470012L180.14 0.450012ZM179.34 1.03001C179 0.982833 178.654 1.00645 178.324 1.09937C177.993 1.1923 177.686 1.35253 177.42 1.57001C177.056 2.2459 176.909 3.01768 177 3.78001V19.78C176.915 20.5468 177.076 21.321 177.46 21.99C177.729 22.2075 178.041 22.3676 178.374 22.4605C178.708 22.5533 179.057 22.577 179.4 22.53C181.291 22.6389 183.174 22.1978 184.82 21.26C186.125 20.383 187.078 19.0723 187.51 17.56C188.064 15.6335 188.324 13.6342 188.28 11.63C188.28 8.04335 187.613 5.37668 186.28 3.63001C184.947 1.88335 182.633 1.00668 179.34 1.00001V1.03001Z" fill="#222222"/>
<path d="M205.43 1.41317e-05C207.303 -0.0411713 209.151 0.436428 210.77 1.38001C212.325 2.33273 213.564 3.72452 214.33 5.38001C215.227 7.34533 215.662 9.49038 215.6 11.65C215.647 13.8147 215.203 15.962 214.3 17.93C213.51 19.6382 212.26 21.0925 210.69 22.13C209.115 23.1463 207.274 23.6718 205.4 23.64C203.527 23.6817 201.679 23.2041 200.06 22.26C198.503 21.3087 197.264 19.9165 196.5 18.26C195.608 16.2967 195.177 14.1555 195.24 12C195.19 9.83403 195.639 7.68556 196.55 5.72001C197.347 4.01669 198.596 2.56418 200.16 1.52001C201.726 0.4996 203.561 -0.0296999 205.43 1.41317e-05ZM205.3 0.580014C203.954 0.558879 202.653 1.06905 201.68 2.00001C200.561 3.11243 199.74 4.48775 199.29 6.00001C198.692 7.898 198.405 9.8803 198.44 11.87C198.397 13.8804 198.716 15.8821 199.38 17.78C199.903 19.2755 200.806 20.6092 202 21.65C202.977 22.509 204.229 22.9881 205.53 23C206.879 23.0158 208.18 22.4983 209.15 21.56C210.269 20.4476 211.09 19.0723 211.54 17.56C212.135 15.6683 212.422 13.693 212.39 11.71C212.433 9.69229 212.111 7.68341 211.44 5.78001C210.931 4.29774 210.054 2.96935 208.89 1.92001C207.897 1.0495 206.62 0.572798 205.3 0.580014Z" fill="#222222"/>
<path d="M243.93 0.450012V1.09001C243.371 1.08507 242.815 1.16601 242.28 1.33001C242.104 1.39121 241.944 1.49267 241.814 1.62634C241.684 1.76001 241.587 1.92219 241.53 2.10001C241.378 2.67031 241.314 3.26041 241.34 3.85001V19.75C241.316 20.3329 241.381 20.9161 241.53 21.48C241.583 21.6597 241.679 21.8238 241.81 21.958C241.94 22.0922 242.102 22.1925 242.28 22.25C242.817 22.4064 243.371 22.4938 243.93 22.51V23.15C243.437 23.11 242.823 23.0833 242.09 23.07H239.86H237.52C236.793 23.07 236.207 23.0967 235.76 23.15V22.5C236.319 22.4838 236.873 22.3964 237.41 22.24C237.588 22.1825 237.75 22.0822 237.881 21.948C238.011 21.8138 238.107 21.6497 238.16 21.47C238.31 20.9062 238.374 20.323 238.35 19.74V2.12001L238.48 2.22001L230.63 23.3H230.12L222 2.50001V19.42C221.981 20.0304 222.052 20.6402 222.21 21.23C222.27 21.4373 222.376 21.6285 222.519 21.7895C222.663 21.9504 222.841 22.0771 223.04 22.16C223.643 22.3792 224.279 22.4942 224.92 22.5V23.14C224.533 23.1 224.03 23.0733 223.41 23.06H221.65H220.03C219.483 23.06 219.03 23.0867 218.67 23.14V22.5C219.236 22.4911 219.796 22.3757 220.32 22.16C220.505 22.0688 220.668 21.9383 220.798 21.7777C220.927 21.6171 221.02 21.4302 221.07 21.23C221.215 20.6381 221.279 20.0292 221.26 19.42V3.85001C221.286 3.26042 221.222 2.67034 221.07 2.10001C221.014 1.92219 220.916 1.76001 220.786 1.62634C220.656 1.49267 220.496 1.39121 220.32 1.33001C219.786 1.16616 219.229 1.08522 218.67 1.09001V0.450012L220.03 0.510012C220.577 0.510012 221.117 0.510012 221.65 0.510012C222.183 0.510012 222.67 0.510012 223.11 0.510012L224.38 0.450012L231.66 19.62L231.12 19.88L238.35 0.540012H239.86C240.607 0.540012 241.35 0.540012 242.09 0.540012L243.93 0.450012Z" fill="#222222"/>
<path d="M0 28.51H0.72H3.43C4.24461 28.449 5.05396 28.6832 5.71 29.17C5.95679 29.3798 6.15323 29.6424 6.28479 29.9384C6.41635 30.2344 6.47964 30.5562 6.47 30.88C6.4672 31.1892 6.41661 31.4962 6.32 31.79C6.21424 32.1183 6.0366 32.419 5.8 32.67C5.51907 32.9582 5.17747 33.1803 4.8 33.32C4.28014 33.5029 3.73082 33.5877 3.18 33.57H2V33.33H3C3.4484 33.366 3.89582 33.2497 4.27 33C4.55221 32.7888 4.75623 32.4898 4.85 32.15C4.95345 31.7756 5.00394 31.3885 5 31C5.04294 30.4014 4.89974 29.8041 4.59 29.29C4.41699 29.0878 4.19713 28.9311 3.9496 28.8335C3.70208 28.7359 3.43442 28.7004 3.17 28.73C3.04894 28.7124 2.92551 28.7212 2.80816 28.7557C2.6908 28.7903 2.58228 28.8497 2.49 28.93C2.35484 29.1844 2.2991 29.4736 2.33 29.76V35.7C2.31963 35.9277 2.3536 36.1552 2.43 36.37C2.46293 36.4433 2.5127 36.5077 2.57526 36.5581C2.63781 36.6085 2.71139 36.6434 2.79 36.66C3.04616 36.716 3.30782 36.7428 3.57 36.74V37H2.73H0.73H0V36.76C0.206816 36.7533 0.411878 36.7197 0.61 36.66C0.675392 36.6376 0.734249 36.5994 0.781348 36.5488C0.828447 36.4983 0.862333 36.4368 0.88 36.37C0.933122 36.1576 0.956677 35.9389 0.95 35.72V29.72C0.956806 29.5011 0.933248 29.2824 0.88 29.07C0.860579 29.0025 0.824901 28.9407 0.776088 28.8902C0.727276 28.8396 0.666816 28.8018 0.6 28.78C0.402651 28.7398 0.20037 28.7297 0 28.75L0 28.51Z" fill="#222222"/>
<path d="M14.3399 28.51C14.3399 28.8167 14.3166 29.11 14.2699 29.39C14.2233 29.67 14.2233 29.8867 14.2699 30.04C14.2699 30.1933 14.2699 30.3367 14.2699 30.47C14.2699 30.61 14.2699 30.72 14.2699 30.81H13.9999C13.9647 30.3973 13.8773 29.9908 13.7399 29.6C13.6479 29.3344 13.4633 29.1107 13.2199 28.97C12.9086 28.8215 12.5641 28.756 12.2199 28.78H11.3899C11.1942 28.7748 10.9988 28.7984 10.8099 28.85C10.7475 28.8688 10.6904 28.9021 10.6435 28.9473C10.5965 28.9926 10.561 29.0483 10.5399 29.11C10.4833 29.3115 10.4597 29.5209 10.4699 29.73V35.79C10.4617 35.9957 10.4853 36.2015 10.5399 36.4C10.5597 36.4635 10.5946 36.5213 10.6416 36.5684C10.6886 36.6154 10.7464 36.6503 10.8099 36.67C10.9988 36.7216 11.1942 36.7452 11.3899 36.74H12.1699C12.5458 36.7565 12.9199 36.681 13.2599 36.52C13.5392 36.361 13.7548 36.1101 13.8699 35.81C14.0362 35.3763 14.1438 34.9222 14.1899 34.46H14.4699C14.4699 34.6933 14.4699 34.9967 14.4699 35.37C14.4699 35.53 14.4699 35.7633 14.4699 36.07C14.4699 36.3767 14.4933 36.69 14.5399 37.01L13.1999 37H9.50994H8.19994V36.76C8.40676 36.7533 8.61182 36.7197 8.80994 36.66C8.87533 36.6376 8.93419 36.5994 8.98129 36.5489C9.02839 36.4983 9.06227 36.4368 9.07994 36.37C9.13306 36.1576 9.15662 35.9389 9.14994 35.72V29.72C9.15675 29.5012 9.13319 29.2824 9.07994 29.07C9.06052 29.0025 9.02484 28.9407 8.97603 28.8902C8.92722 28.8396 8.86676 28.8018 8.79994 28.78C8.60248 28.7187 8.3967 28.6883 8.18994 28.69V28.45H9.50994H13.0799L14.3399 28.51ZM12.3399 32.62V32.86H10.1699V32.62H12.3399ZM12.6899 31C12.6899 31.46 12.6899 31.7933 12.6899 32C12.6899 32.2067 12.6899 32.4267 12.6899 32.66C12.6899 32.86 12.6899 33.08 12.6899 33.32C12.6899 33.56 12.7099 33.8933 12.7499 34.32H12.4699C12.43 34.064 12.3766 33.8104 12.3099 33.56C12.2554 33.3349 12.1374 33.1301 11.9699 32.97C11.7545 32.8005 11.4832 32.7184 11.2099 32.74V32.5C11.3471 32.5127 11.4854 32.4951 11.615 32.4484C11.7446 32.4018 11.8623 32.3272 11.9599 32.23C12.1167 32.0456 12.2265 31.826 12.2799 31.59C12.3399 31.3433 12.3899 31.12 12.4299 30.92L12.6899 31Z" fill="#222222"/>
<path d="M26.34 28.51V28.75C26.1332 28.7483 25.9274 28.7786 25.73 28.84C25.665 28.8631 25.6066 28.9016 25.5596 28.952C25.5126 29.0025 25.4784 29.0635 25.46 29.13C25.4067 29.3424 25.3832 29.5611 25.39 29.78V35.78C25.3833 35.9988 25.4068 36.2176 25.46 36.43C25.4776 36.4968 25.5115 36.5582 25.5586 36.6088C25.6057 36.6594 25.6646 36.6976 25.73 36.72C25.9281 36.7798 26.1331 36.8134 26.34 36.82V37H25.59H23.74H23V36.76C23.2101 36.7533 23.4184 36.7197 23.62 36.66C23.6868 36.6382 23.7472 36.6004 23.7961 36.5498C23.8449 36.4993 23.8805 36.4375 23.9 36.37C23.9557 36.158 23.9793 35.9389 23.97 35.72V29.17H24.03L21.03 37.04H20.84L17.74 29.25V35.4C17.7319 35.6652 17.7554 35.9304 17.81 36.19C17.8287 36.2755 17.8663 36.3557 17.9199 36.4249C17.9735 36.4941 18.0419 36.5505 18.12 36.59C18.3511 36.6887 18.5987 36.743 18.85 36.75V37H18.27H17.08H16.59V36.76C16.798 36.7508 17.0021 36.6998 17.19 36.61C17.2614 36.5682 17.3232 36.5119 17.3714 36.4448C17.4197 36.3776 17.4532 36.301 17.47 36.22C17.5241 35.9704 17.5476 35.7152 17.54 35.46V29.76C17.5494 29.541 17.5258 29.3219 17.47 29.11C17.4491 29.0432 17.4129 28.9822 17.3643 28.9319C17.3156 28.8815 17.256 28.8432 17.19 28.82C16.9959 28.7587 16.7934 28.7283 16.59 28.73V28.49H17.08H18.38H18.99L21.65 35.32L21.42 35.48L24 28.54H25.56L26.34 28.51Z" fill="#222222"/>
<path d="M32.24 28.34C32.9639 28.3266 33.6783 28.5061 34.31 28.86C34.909 29.2056 35.3926 29.7205 35.7 30.34C36.0465 31.0737 36.2144 31.879 36.19 32.69C36.2102 33.505 36.039 34.3133 35.69 35.05C35.3758 35.6947 34.8874 36.2386 34.28 36.62C33.6612 37.0002 32.9461 37.1946 32.22 37.18C31.4926 37.1962 30.7742 37.0166 30.14 36.66C29.5432 36.3102 29.0631 35.7918 28.76 35.17C28.4296 34.4306 28.2588 33.6299 28.2588 32.82C28.2588 32.0101 28.4296 31.2094 28.76 30.47C29.0745 29.8286 29.5587 29.2856 30.16 28.9C30.7836 28.5139 31.5068 28.3192 32.24 28.34ZM32.24 28.56C31.9981 28.5581 31.7584 28.6049 31.535 28.6977C31.3116 28.7904 31.1093 28.9273 30.94 29.1C30.5061 29.5095 30.1827 30.0221 30 30.59C29.7885 31.3038 29.6874 32.0457 29.7 32.79C29.6964 33.5424 29.8216 34.2898 30.07 35C30.2505 35.558 30.5706 36.0606 31 36.46C31.3498 36.7874 31.8109 36.9697 32.29 36.97C32.5303 36.9718 32.7685 36.9248 32.9902 36.832C33.2119 36.7392 33.4126 36.6024 33.58 36.43C33.98 36.0058 34.2716 35.4912 34.43 34.93C34.6458 34.2204 34.7504 33.4816 34.74 32.74C34.7565 31.9859 34.6415 31.2346 34.4 30.52C34.2206 29.9692 33.908 29.4711 33.49 29.07C33.1403 28.7349 32.6743 28.5484 32.19 28.55L32.24 28.56Z" fill="#222222"/>
<path d="M38.11 37V36.76C38.3168 36.7533 38.5219 36.7197 38.72 36.66C38.7854 36.6376 38.8442 36.5994 38.8913 36.5489C38.9384 36.4983 38.9723 36.4368 38.99 36.37C39.0431 36.1576 39.0667 35.9389 39.06 35.72V29.72C39.0668 29.5012 39.0432 29.2824 38.99 29.07C38.9706 29.0025 38.9349 28.9407 38.8861 28.8902C38.8373 28.8396 38.7768 28.8018 38.71 28.78C38.5125 28.7187 38.3067 28.6883 38.1 28.69V28.45H38.82H40.66H41.39V28.69C41.1865 28.6884 40.984 28.7187 40.79 28.78C40.724 28.8033 40.6643 28.8416 40.6157 28.8919C40.5671 28.9422 40.5309 29.0032 40.51 29.07C40.454 29.2819 40.4304 29.5011 40.44 29.72V35.72C40.4304 35.939 40.454 36.1581 40.51 36.37C40.5294 36.4375 40.5651 36.4993 40.6139 36.5499C40.6627 36.6004 40.7232 36.6382 40.79 36.66C40.9847 36.7194 41.1865 36.753 41.39 36.76V37H40.66H38.83H38.11ZM39.9 32.84V32.6H44.65V32.84H39.9ZM43.16 37V36.76C43.3668 36.7533 43.5719 36.7197 43.77 36.66C43.8354 36.6376 43.8942 36.5994 43.9413 36.5489C43.9884 36.4983 44.0223 36.4368 44.04 36.37C44.0931 36.1576 44.1167 35.9389 44.11 35.72V29.72C44.1168 29.5012 44.0932 29.2824 44.04 29.07C44.0206 29.0025 43.9849 28.9407 43.9361 28.8902C43.8873 28.8396 43.8268 28.8018 43.76 28.78C43.5625 28.7187 43.3567 28.6883 43.15 28.69V28.45H43.9H45.73H46.43V28.69C46.2265 28.6884 46.024 28.7187 45.83 28.78C45.764 28.8033 45.7043 28.8416 45.6557 28.8919C45.6071 28.9422 45.5709 29.0032 45.55 29.07C45.494 29.2819 45.4704 29.5011 45.48 29.72V35.72C45.4704 35.939 45.494 36.1581 45.55 36.37C45.5694 36.4375 45.6051 36.4993 45.6539 36.5499C45.7027 36.6004 45.7632 36.6382 45.83 36.66C46.0247 36.7194 46.2265 36.753 46.43 36.76V37H45.73H43.91H43.16Z" fill="#222222"/>
<path d="M55.1899 28.51C55.1899 28.8433 55.1666 29.1767 55.1199 29.51C55.0733 29.8433 55.0733 30.0867 55.1199 30.24C55.1199 30.4267 55.1199 30.6033 55.1199 30.77C55.1199 30.94 55.1199 31.08 55.1199 31.2H54.8399C54.7866 30.7162 54.6793 30.2399 54.5199 29.78C54.4385 29.4693 54.2554 29.1947 53.9999 29C53.6705 28.8282 53.3008 28.7488 52.9299 28.77H52.4099V35.62C52.3993 35.8633 52.4297 36.1067 52.4999 36.34C52.5289 36.4189 52.577 36.4893 52.6398 36.5452C52.7026 36.601 52.7782 36.6404 52.8599 36.66C53.1188 36.7223 53.3837 36.7558 53.6499 36.76V37H52.7799H50.5999H49.7799V36.76C50.0429 36.756 50.3045 36.7224 50.5599 36.66C50.641 36.6389 50.7158 36.5989 50.7784 36.5432C50.841 36.4876 50.8895 36.418 50.9199 36.34C50.997 36.1081 51.0309 35.8641 51.0199 35.62V28.78H50.4899C50.1224 28.7611 49.7566 28.8405 49.4299 29.01C49.1547 29.1843 48.9494 29.4497 48.8499 29.76C48.6958 30.2208 48.5919 30.6969 48.5399 31.18H48.2599C48.2674 31.0368 48.2674 30.8932 48.2599 30.75C48.2599 30.5833 48.2599 30.4067 48.2599 30.22C48.2599 30.0333 48.2599 29.79 48.2599 29.49C48.2599 29.1767 48.2366 28.8433 48.1899 28.49H49.3199H54.0399L55.1899 28.51Z" fill="#222222"/>
<path d="M57.42 35.54C57.5318 35.5363 57.6433 35.5547 57.7479 35.5942C57.8526 35.6337 57.9485 35.6934 58.03 35.77C58.1119 35.8466 58.1765 35.9397 58.2196 36.0431C58.2627 36.1466 58.2833 36.258 58.28 36.37C58.2855 36.4896 58.2631 36.6087 58.2145 36.7181C58.1659 36.8275 58.0924 36.924 58 37C57.8344 37.1504 57.6187 37.2337 57.395 37.2337C57.1713 37.2337 56.9556 37.1504 56.79 37C56.7097 36.9265 56.6459 36.8368 56.6028 36.7368C56.5597 36.6368 56.5383 36.5289 56.54 36.42C56.5367 36.308 56.5573 36.1966 56.6004 36.0931C56.6435 35.9897 56.7082 35.8966 56.79 35.82C56.8696 35.7319 56.9668 35.6615 57.0753 35.6133C57.1839 35.565 57.3013 35.5401 57.42 35.54Z" fill="#222222"/>
<path d="M68.39 28.34C68.8347 28.3237 69.2778 28.4021 69.69 28.57C70.014 28.7166 70.3195 28.9012 70.6 29.12C70.76 29.24 70.8833 29.24 70.97 29.12C71.0857 28.9196 71.1445 28.6914 71.14 28.46H71.42C71.42 28.7667 71.42 29.1333 71.42 29.56C71.42 29.9867 71.42 30.5567 71.42 31.27H71.1C71.0466 30.9167 70.9933 30.6267 70.94 30.4C70.8981 30.199 70.8309 30.0041 70.74 29.82C70.6487 29.6485 70.5343 29.4903 70.4 29.35C70.1783 29.0675 69.8847 28.8499 69.55 28.72C69.2078 28.5921 68.8452 28.5277 68.48 28.53C68.0972 28.5239 67.7212 28.6318 67.4 28.84C67.0702 29.0619 66.7991 29.3604 66.61 29.71C66.3814 30.1265 66.2163 30.5748 66.12 31.04C66.0034 31.5923 65.9464 32.1555 65.95 32.72C65.9442 33.2917 66.0046 33.8622 66.13 34.42C66.2306 34.8821 66.4062 35.3247 66.65 35.73C66.8562 36.0718 67.1407 36.3597 67.48 36.57C67.8092 36.7662 68.1867 36.8666 68.57 36.86C68.9125 36.8529 69.2511 36.7852 69.57 36.66C69.9027 36.5415 70.1943 36.3297 70.41 36.05C70.6268 35.8214 70.7847 35.5433 70.87 35.24C70.9724 34.8362 71.0426 34.4249 71.08 34.01H71.36C71.36 34.75 71.36 35.3467 71.36 35.8C71.36 36.2533 71.36 36.6367 71.36 36.95H71.08C71.0825 36.7233 71.0274 36.4996 70.92 36.3C70.8466 36.2133 70.72 36.2133 70.54 36.3C70.243 36.51 69.9285 36.694 69.6 36.85C69.1952 37.0193 68.7583 37.0978 68.32 37.08C67.5926 37.0962 66.8742 36.9166 66.24 36.56C65.6432 36.2102 65.1631 35.6918 64.86 35.07C64.5295 34.3306 64.3588 33.5299 64.3588 32.72C64.3588 31.9101 64.5295 31.1094 64.86 30.37C65.1744 29.7286 65.6586 29.1856 66.26 28.8C66.9088 28.4392 67.6501 28.2791 68.39 28.34Z" fill="#222222"/>
<path d="M80.45 28.51C80.45 28.8433 80.4267 29.1767 80.38 29.51C80.3334 29.8433 80.3334 30.0867 80.38 30.24C80.38 30.4267 80.38 30.6033 80.38 30.77C80.38 30.94 80.38 31.08 80.38 31.2H80.1C80.0467 30.7162 79.9394 30.2399 79.78 29.78C79.6795 29.4732 79.4787 29.209 79.21 29.03C78.8806 28.8582 78.5109 28.7788 78.14 28.8H77.62V35.65C77.6094 35.8933 77.6398 36.1367 77.71 36.37C77.739 36.4489 77.7871 36.5193 77.8499 36.5752C77.9127 36.631 77.9883 36.6704 78.07 36.69C78.3289 36.7523 78.5938 36.7858 78.86 36.79V37H78H75.85H75V36.76C75.263 36.756 75.5246 36.7224 75.78 36.66C75.861 36.6389 75.9359 36.5989 75.9985 36.5432C76.0611 36.4876 76.1096 36.418 76.14 36.34C76.2171 36.1081 76.251 35.8641 76.24 35.62V28.78H75.71C75.3425 28.7611 74.9766 28.8405 74.65 29.01C74.3748 29.1843 74.1695 29.4497 74.07 29.76C73.9159 30.2208 73.812 30.6969 73.76 31.18H73.48C73.4875 31.0368 73.4875 30.8932 73.48 30.75C73.48 30.5833 73.48 30.4067 73.48 30.22C73.48 30.0333 73.48 29.79 73.48 29.49C73.48 29.1767 73.4567 28.8433 73.41 28.49H74.54H79.26L80.45 28.51Z" fill="#222222"/>
<path d="M82.21 28.51H82.93H85.64C86.4546 28.449 87.2639 28.6832 87.92 29.17C88.1668 29.3798 88.3632 29.6424 88.4948 29.9384C88.6263 30.2344 88.6896 30.5562 88.68 30.88C88.6772 31.1892 88.6266 31.4962 88.53 31.79C88.4242 32.1183 88.2466 32.419 88.01 32.67C87.729 32.9582 87.3874 33.1803 87.01 33.32C86.4901 33.5029 85.9408 33.5877 85.39 33.57H84.2V33.33H85.26C85.695 33.357 86.1269 33.2411 86.49 33C86.7722 32.7888 86.9762 32.4898 87.07 32.15C87.1734 31.7756 87.2239 31.3885 87.22 31C87.2629 30.4014 87.1197 29.8041 86.81 29.29C86.637 29.0878 86.4171 28.9311 86.1696 28.8335C85.922 28.7359 85.6544 28.7004 85.39 28.73C85.2689 28.7124 85.1455 28.7212 85.0281 28.7557C84.9108 28.7903 84.8022 28.8497 84.71 28.93C84.5748 29.1844 84.5191 29.4736 84.55 29.76V35.7C84.5396 35.9277 84.5736 36.1552 84.65 36.37C84.6829 36.4433 84.7327 36.5077 84.7952 36.5581C84.8578 36.6085 84.9314 36.6434 85.01 36.66C85.2661 36.716 85.5278 36.7428 85.79 36.74V37H84.95H83H82.26V36.76C82.4668 36.7533 82.6718 36.7197 82.87 36.66C82.9354 36.6376 82.9942 36.5994 83.0413 36.5488C83.0884 36.4983 83.1223 36.4368 83.14 36.37C83.1931 36.1576 83.2166 35.9389 83.21 35.72V29.72C83.2168 29.5011 83.1932 29.2824 83.14 29.07C83.1205 29.0025 83.0849 28.9407 83.036 28.8902C82.9872 28.8396 82.9268 28.8018 82.86 28.78C82.6625 28.7186 82.4567 28.6883 82.25 28.69L82.21 28.51Z" fill="#222222"/>
<path d="M94.53 28.34C95.254 28.3266 95.9684 28.5061 96.6 28.86C97.2028 29.2041 97.69 29.7191 98 30.34C98.3466 31.0737 98.5145 31.879 98.49 32.69C98.5057 33.4873 98.338 34.2776 98 35C97.6859 35.6447 97.1974 36.1886 96.59 36.57C95.9712 36.9502 95.2562 37.1446 94.53 37.13C93.8026 37.1462 93.0842 36.9666 92.45 36.61C91.8533 36.2602 91.3732 35.7418 91.07 35.12C90.7396 34.3806 90.5688 33.5799 90.5688 32.77C90.5688 31.9601 90.7396 31.1594 91.07 30.42C91.3845 29.7786 91.8687 29.2356 92.47 28.85C93.0933 28.4852 93.8086 28.3081 94.53 28.34ZM94.53 28.56C94.2882 28.558 94.0484 28.6049 93.8251 28.6976C93.6017 28.7904 93.3993 28.9273 93.23 29.1C92.8288 29.5195 92.5369 30.0312 92.38 30.59C92.1686 31.3038 92.0674 32.0457 92.08 32.79C92.0507 33.5378 92.1488 34.2851 92.37 35C92.5463 35.5523 92.8594 36.0511 93.28 36.45C93.6299 36.7774 94.0909 36.9596 94.57 36.96C94.8104 36.9617 95.0486 36.9148 95.2703 36.822C95.492 36.7292 95.6926 36.5924 95.86 36.42C96.26 35.9957 96.5516 35.4812 96.71 34.92C96.9181 34.2125 97.0159 33.4772 97 32.74C97.0166 31.9859 96.9015 31.2346 96.66 30.52C96.4807 29.9691 96.1681 29.4711 95.75 29.07C95.4104 28.7443 94.9605 28.5586 94.49 28.55L94.53 28.56Z" fill="#222222"/>
<path d="M103.69 28.51V28.75C103.486 28.7484 103.284 28.7787 103.09 28.84C103.024 28.8633 102.964 28.9016 102.916 28.9519C102.867 29.0022 102.831 29.0632 102.81 29.13C102.754 29.3419 102.73 29.5611 102.74 29.78V35.78C102.73 35.999 102.754 36.2181 102.81 36.43C102.829 36.4976 102.865 36.5593 102.914 36.6099C102.963 36.6604 103.023 36.6982 103.09 36.72C103.285 36.7794 103.486 36.813 103.69 36.82V37H103H101.16H100.44V36.76C100.647 36.7529 100.852 36.7193 101.05 36.66C101.117 36.639 101.178 36.6015 101.227 36.5508C101.276 36.5001 101.311 36.438 101.33 36.37C101.383 36.1576 101.407 35.9389 101.4 35.72V29.72C101.407 29.5012 101.383 29.2824 101.33 29.07C101.311 29.0025 101.275 28.9407 101.226 28.8902C101.177 28.8396 101.117 28.8018 101.05 28.78C100.852 28.7187 100.647 28.6883 100.44 28.69V28.45H101.16H103L103.69 28.51ZM106.86 29.26C106.86 29.4267 106.86 29.6 106.86 29.78L102.32 36.59V36.13L106.86 29.26ZM108.98 28.51V28.75C108.776 28.7484 108.574 28.7787 108.38 28.84C108.314 28.8633 108.254 28.9016 108.206 28.9519C108.157 29.0022 108.121 29.0632 108.1 29.13C108.044 29.3419 108.02 29.5611 108.03 29.78V35.78C108.021 35.999 108.044 36.2181 108.1 36.43C108.119 36.4976 108.155 36.5593 108.204 36.6099C108.253 36.6604 108.313 36.6982 108.38 36.72C108.575 36.7794 108.776 36.813 108.98 36.82V37H108.27H106.44H105.7V36.76C105.903 36.753 106.105 36.7194 106.3 36.66C106.367 36.6382 106.427 36.6004 106.476 36.5499C106.525 36.4993 106.561 36.4375 106.58 36.37C106.636 36.1581 106.659 35.939 106.65 35.72V29.72C106.659 29.5011 106.636 29.2819 106.58 29.07C106.559 29.0032 106.523 28.9422 106.474 28.8919C106.426 28.8416 106.366 28.8033 106.3 28.78C106.106 28.7187 105.903 28.6884 105.7 28.69V28.45H106.44H108.27L108.98 28.51Z" fill="#222222"/>
<path d="M117.73 28.51C117.73 28.8433 117.707 29.1767 117.66 29.51C117.613 29.8433 117.613 30.0867 117.66 30.24C117.66 30.4267 117.66 30.6033 117.66 30.77C117.66 30.94 117.66 31.08 117.66 31.2H117.38C117.327 30.7162 117.219 30.2399 117.06 29.78C116.959 29.4732 116.759 29.209 116.49 29.03C116.161 28.8583 115.791 28.7788 115.42 28.8H114.9V35.65C114.889 35.8934 114.92 36.1368 114.99 36.37C115.019 36.4489 115.067 36.5194 115.13 36.5752C115.193 36.631 115.268 36.6705 115.35 36.69C115.609 36.7523 115.874 36.7858 116.14 36.79V37H115.27H113.1H112.28V36.76C112.543 36.756 112.805 36.7225 113.06 36.66C113.141 36.6389 113.216 36.5989 113.278 36.5433C113.341 36.4876 113.39 36.418 113.42 36.34C113.497 36.1081 113.531 35.8641 113.52 35.62V28.78H113C112.654 28.7684 112.31 28.8441 112 29C111.725 29.1743 111.519 29.4398 111.42 29.75C111.266 30.2108 111.162 30.6869 111.11 31.17H110.83C110.837 31.0268 110.837 30.8832 110.83 30.74C110.83 30.5733 110.83 30.3967 110.83 30.21C110.83 30.0233 110.83 29.78 110.83 29.48C110.83 29.1667 110.807 28.8333 110.76 28.48H111.89H116.61L117.73 28.51Z" fill="#222222"/>
<path d="M125.64 28.51C125.64 28.8167 125.617 29.11 125.57 29.39C125.523 29.67 125.523 29.8867 125.57 30.04C125.57 30.1933 125.57 30.3367 125.57 30.47C125.57 30.61 125.57 30.72 125.57 30.81H125.29C125.255 30.3973 125.167 29.9907 125.03 29.6C124.938 29.3343 124.753 29.1107 124.51 28.97C124.199 28.8215 123.854 28.756 123.51 28.78H122.68C122.484 28.7748 122.289 28.7984 122.1 28.85C122.038 28.8687 121.98 28.9021 121.933 28.9473C121.887 28.9925 121.851 29.0483 121.83 29.11C121.773 29.3115 121.75 29.5209 121.76 29.73V35.79C121.752 35.9957 121.775 36.2015 121.83 36.4C121.85 36.4635 121.885 36.5213 121.932 36.5683C121.979 36.6154 122.036 36.6503 122.1 36.67C122.289 36.7216 122.484 36.7452 122.68 36.74H123.46C123.836 36.7565 124.21 36.681 124.55 36.52C124.829 36.361 125.045 36.1101 125.16 35.81C125.326 35.3762 125.434 34.9222 125.48 34.46H125.76C125.76 34.6933 125.76 34.9967 125.76 35.37C125.76 35.53 125.76 35.7633 125.76 36.07C125.76 36.3767 125.783 36.69 125.83 37.01H124.45H120.77H119.45V36.77C119.657 36.7633 119.862 36.7297 120.06 36.67C120.125 36.6476 120.184 36.6094 120.231 36.5588C120.278 36.5082 120.312 36.4468 120.33 36.38C120.383 36.1676 120.407 35.9488 120.4 35.73V29.73C120.407 29.5111 120.383 29.2924 120.33 29.08C120.311 29.0125 120.275 28.9507 120.226 28.9001C120.177 28.8496 120.117 28.8118 120.05 28.79C119.852 28.7286 119.647 28.6983 119.44 28.7V28.46H120.76H124.33L125.64 28.51ZM123.64 32.62V32.86H121.46V32.62H123.64ZM124 31C124 31.46 124 31.7933 124 32C124 32.2067 124 32.4267 124 32.66C124 32.86 124 33.08 124 33.32C124 33.56 124.02 33.8933 124.06 34.32H123.78C123.74 34.064 123.687 33.8103 123.62 33.56C123.565 33.3348 123.447 33.1301 123.28 32.97C123.065 32.8005 122.793 32.7184 122.52 32.74V32.5C122.657 32.5127 122.795 32.4951 122.925 32.4484C123.055 32.4018 123.172 32.3272 123.27 32.23C123.427 32.0456 123.536 31.826 123.59 31.59C123.65 31.3433 123.7 31.12 123.74 30.92L124 31Z" fill="#222222"/>
<path d="M135.35 28.51V28.75C135.14 28.7472 134.931 28.7776 134.73 28.84C134.664 28.8632 134.604 28.9016 134.556 28.9519C134.507 29.0022 134.471 29.0632 134.45 29.13C134.394 29.3419 134.371 29.561 134.38 29.78V35.78C134.371 35.9989 134.394 36.2181 134.45 36.43C134.469 36.4975 134.505 36.5593 134.554 36.6098C134.603 36.6604 134.663 36.6982 134.73 36.72C134.932 36.7797 135.14 36.8133 135.35 36.82V37H134.62H132.62H131.79V36.76C132.036 36.7527 132.281 36.7192 132.52 36.66C132.596 36.6421 132.666 36.6064 132.725 36.556C132.784 36.5056 132.83 36.4418 132.86 36.37C132.93 36.1607 132.96 35.9404 132.95 35.72V29.72C132.987 29.4232 132.92 29.1227 132.76 28.87C132.545 28.7178 132.282 28.6501 132.02 28.68H131.89C131.697 28.6713 131.503 28.6984 131.32 28.76C131.258 28.7874 131.203 28.8287 131.16 28.8807C131.117 28.9328 131.086 28.9941 131.07 29.06C131.016 29.273 130.982 29.4906 130.97 29.71C130.923 30.27 130.877 30.8867 130.83 31.56C130.783 32.2333 130.72 32.9 130.64 33.56C130.567 34.1659 130.443 34.7646 130.27 35.35C130.139 35.8272 129.908 36.2706 129.59 36.65C129.45 36.8102 129.275 36.9372 129.08 37.0219C128.885 37.1066 128.673 37.147 128.46 37.14C128.174 37.1422 127.893 37.0624 127.65 36.91C127.531 36.8402 127.433 36.7389 127.368 36.6171C127.303 36.4954 127.272 36.3579 127.28 36.22C127.275 36.1092 127.295 35.9987 127.338 35.8965C127.381 35.7944 127.447 35.7033 127.53 35.63C127.692 35.4856 127.903 35.4071 128.12 35.41C128.304 35.4016 128.484 35.4583 128.63 35.57C128.695 35.6228 128.747 35.69 128.782 35.7664C128.817 35.8428 128.833 35.9262 128.83 36.01C128.838 36.1999 128.774 36.3857 128.65 36.53C128.511 36.6746 128.344 36.7901 128.16 36.87H128.32H128.46C128.636 36.8733 128.811 36.8374 128.972 36.7647C129.133 36.6921 129.276 36.5846 129.39 36.45C129.67 36.1125 129.878 35.7211 130 35.3C130.169 34.7613 130.293 34.2094 130.37 33.65C130.457 33.03 130.523 32.3833 130.57 31.71C130.617 31.0367 130.66 30.37 130.7 29.71C130.761 29.4289 130.711 29.1349 130.56 28.89C130.311 28.7283 130.016 28.6543 129.72 28.68V28.44H130.32H131H131.54H132.06H132.89H133.78H134.89L135.35 28.51Z" fill="#222222"/>
<path d="M140.71 28.51V28.75C140.467 28.7489 140.225 28.7791 139.99 28.84C139.915 28.8586 139.845 28.8946 139.786 28.9449C139.727 28.9952 139.68 29.0586 139.65 29.13C139.586 29.3405 139.559 29.5603 139.57 29.78V35.78C139.542 36.0674 139.591 36.3571 139.71 36.62C139.8 36.75 140.02 36.81 140.37 36.81C140.768 36.8349 141.162 36.7257 141.49 36.5C141.752 36.2905 141.941 36.0034 142.03 35.68C142.135 35.3058 142.185 34.9185 142.18 34.53C142.189 34.1022 142.125 33.676 141.99 33.27C141.886 32.9488 141.678 32.671 141.4 32.48C141.061 32.2821 140.672 32.1882 140.28 32.21H138.86V31.97H140.57C141.176 31.9476 141.78 32.0568 142.34 32.29C142.753 32.4687 143.102 32.7686 143.34 33.15C143.559 33.5224 143.669 33.9483 143.66 34.38C143.659 34.7001 143.605 35.0178 143.5 35.32C143.388 35.6418 143.207 35.9353 142.97 36.18C142.689 36.4631 142.347 36.6786 141.97 36.81C141.468 36.9781 140.94 37.056 140.41 37.04H139.75H138.89H138H137.28V36.8C137.487 36.7928 137.692 36.7592 137.89 36.7C137.957 36.679 138.018 36.6415 138.067 36.5908C138.116 36.5401 138.151 36.4779 138.17 36.41C138.223 36.1975 138.246 35.9788 138.24 35.76V29.76C138.246 29.5411 138.223 29.3225 138.17 29.11C138.15 29.0428 138.114 28.9815 138.065 28.931C138.016 28.8806 137.956 28.8425 137.89 28.82C137.693 28.7586 137.487 28.7283 137.28 28.73V28.49H138H139.95L140.71 28.51Z" fill="#222222"/>
<path d="M149.51 28.34C149.955 28.324 150.398 28.4024 150.81 28.57C151.134 28.7165 151.44 28.9011 151.72 29.12C151.88 29.24 152.003 29.24 152.09 29.12C152.206 28.9198 152.265 28.6914 152.26 28.46H152.54C152.54 28.76 152.54 29.13 152.54 29.56C152.54 29.99 152.54 30.56 152.54 31.27H152.26C152.207 30.9167 152.153 30.6267 152.1 30.4C152.058 30.1989 151.991 30.004 151.9 29.82C151.809 29.6484 151.694 29.4902 151.56 29.35C151.338 29.0675 151.045 28.8499 150.71 28.72C150.368 28.592 150.005 28.5277 149.64 28.53C149.257 28.5239 148.881 28.6318 148.56 28.84C148.23 29.0619 147.959 29.3604 147.77 29.71C147.541 30.1264 147.376 30.5747 147.28 31.04C147.163 31.5923 147.106 32.1555 147.11 32.72C147.104 33.2917 147.165 33.8622 147.29 34.42C147.39 34.8822 147.566 35.3247 147.81 35.73C148.016 36.0715 148.301 36.3594 148.64 36.57C148.969 36.7662 149.347 36.8666 149.73 36.86C150.072 36.8529 150.411 36.7852 150.73 36.66C151.063 36.5415 151.354 36.3297 151.57 36.05C151.785 35.82 151.942 35.5424 152.03 35.24C152.132 34.8362 152.203 34.4249 152.24 34.01H152.52C152.52 34.75 152.52 35.3467 152.52 35.8C152.52 36.2533 152.52 36.6367 152.52 36.95H152.24C152.242 36.7233 152.187 36.4998 152.08 36.3C152.007 36.2133 151.88 36.2133 151.7 36.3C151.403 36.5101 151.089 36.6941 150.76 36.85C150.355 37.0193 149.918 37.0978 149.48 37.08C148.753 37.0962 148.034 36.9166 147.4 36.56C146.811 36.2427 146.326 35.764 146 35.18C145.669 34.4408 145.498 33.64 145.498 32.83C145.498 32.02 145.669 31.2192 146 30.48C146.314 29.8386 146.799 29.2956 147.4 28.91C148.031 28.5147 148.766 28.3163 149.51 28.34Z" fill="#222222"/>
<path d="M161.57 28.51C161.57 28.85 161.52 29.17 161.5 29.51C161.48 29.85 161.5 30.07 161.5 30.24C161.5 30.41 161.5 30.6 161.5 30.77C161.5 30.94 161.5 31.08 161.5 31.2H161.22C161.167 30.7162 161.059 30.2399 160.9 29.78C160.799 29.4732 160.599 29.209 160.33 29.03C160.001 28.8582 159.631 28.7788 159.26 28.8H158.74V35.65C158.73 35.8933 158.76 36.1367 158.83 36.37C158.859 36.4489 158.907 36.5193 158.97 36.5752C159.033 36.631 159.108 36.6704 159.19 36.69C159.449 36.7523 159.714 36.7858 159.98 36.79V37H159.11H157H156.18V36.76C156.443 36.756 156.705 36.7224 156.96 36.66C157.041 36.6389 157.116 36.5989 157.178 36.5432C157.241 36.4876 157.29 36.418 157.32 36.34C157.396 36.1078 157.43 35.864 157.42 35.62V28.78H156.89C156.522 28.7611 156.157 28.8405 155.83 29.01C155.555 29.1843 155.349 29.4497 155.25 29.76C155.096 30.2209 154.992 30.697 154.94 31.18H154.66C154.668 31.0368 154.668 30.8932 154.66 30.75C154.66 30.5833 154.66 30.4067 154.66 30.22C154.66 30.0333 154.66 29.79 154.66 29.49C154.66 29.17 154.66 28.85 154.59 28.49H155.72H160.44L161.57 28.51Z" fill="#222222"/>
<path d="M163.34 28.51H164.06H166.77C167.477 28.4611 168.18 28.6474 168.77 29.04C168.982 29.1972 169.153 29.4026 169.269 29.6391C169.386 29.8756 169.444 30.1364 169.44 30.4C169.438 30.6916 169.37 30.9788 169.24 31.24C169.093 31.5395 168.873 31.7973 168.6 31.99C168.243 32.2368 167.843 32.4133 167.42 32.51C167.974 32.5667 168.511 32.7333 169 33C169.343 33.1756 169.628 33.4465 169.82 33.78C169.976 34.0689 170.058 34.3917 170.06 34.72C170.069 35.0448 170.002 35.3673 169.863 35.661C169.724 35.9547 169.517 36.2114 169.26 36.41C168.597 36.8604 167.799 37.0688 167 37H166.2H164.91H164.01H163.29V36.76C163.497 36.7534 163.702 36.7198 163.9 36.66C163.965 36.6376 164.024 36.5994 164.071 36.5489C164.118 36.4983 164.152 36.4368 164.17 36.37C164.223 36.1576 164.247 35.9389 164.24 35.72V29.72C164.247 29.5012 164.223 29.2824 164.17 29.07C164.151 29.0025 164.115 28.9407 164.066 28.8902C164.017 28.8396 163.957 28.8018 163.89 28.78C163.693 28.7187 163.487 28.6883 163.28 28.69L163.34 28.51ZM166.51 28.75C166.389 28.7325 166.266 28.7412 166.148 28.7757C166.031 28.8103 165.922 28.8697 165.83 28.95C165.695 29.2044 165.639 29.4936 165.67 29.78V35.78C165.638 36.0613 165.697 36.3455 165.84 36.59C166.044 36.7412 166.298 36.8091 166.55 36.78C166.836 36.8064 167.124 36.7709 167.395 36.676C167.666 36.5811 167.913 36.429 168.12 36.23C168.471 35.7889 168.646 35.2328 168.61 34.67C168.64 34.1476 168.464 33.6342 168.12 33.24C167.899 33.053 167.642 32.9123 167.366 32.8265C167.089 32.7406 166.798 32.7112 166.51 32.74H165.34V32.54H166.34C166.693 32.5576 167.043 32.4631 167.34 32.27C167.578 32.0907 167.751 31.8376 167.83 31.55C167.922 31.2249 167.966 30.8879 167.96 30.55C167.993 30.0771 167.87 29.6065 167.61 29.21C167.473 29.056 167.303 28.9347 167.112 28.8551C166.922 28.7755 166.716 28.7396 166.51 28.75Z" fill="#222222"/>
<path d="M176.08 28.34C176.804 28.3266 177.518 28.5061 178.15 28.86C178.749 29.2056 179.233 29.7205 179.54 30.34C179.887 31.0736 180.055 31.8789 180.03 32.69C180.05 33.505 179.879 34.3133 179.53 35.05C179.216 35.695 178.728 36.239 178.12 36.62C177.501 37.0002 176.786 37.1946 176.06 37.18C175.333 37.1962 174.614 37.0166 173.98 36.66C173.383 36.3102 172.903 35.7918 172.6 35.17C172.269 34.4308 172.098 33.63 172.098 32.82C172.098 32.01 172.269 31.2092 172.6 30.47C172.915 29.8286 173.399 29.2856 174 28.9C174.624 28.5139 175.347 28.3192 176.08 28.34ZM176.08 28.56C175.838 28.5581 175.598 28.6049 175.375 28.6977C175.152 28.7904 174.949 28.9273 174.78 29.1C174.379 29.5192 174.087 30.031 173.93 30.59C173.718 31.3037 173.617 32.0457 173.63 32.79C173.616 33.544 173.731 34.2949 173.97 35.01C174.146 35.5625 174.459 36.0614 174.88 36.46C175.23 36.7874 175.691 36.9697 176.17 36.97C176.41 36.9718 176.649 36.9248 176.87 36.832C177.092 36.7392 177.293 36.6024 177.46 36.43C177.86 36.0058 178.152 35.4912 178.31 34.93C178.526 34.2204 178.63 33.4816 178.62 32.74C178.636 31.9859 178.521 31.2347 178.28 30.52C178.1 29.9693 177.788 29.4714 177.37 29.07C177.188 28.8956 176.974 28.7596 176.738 28.6702C176.503 28.5809 176.252 28.54 176 28.55L176.08 28.56Z" fill="#222222"/>
<path d="M182.88 35.54C182.992 35.5363 183.103 35.5547 183.208 35.5942C183.313 35.6337 183.408 35.6934 183.49 35.77C183.572 35.8466 183.636 35.9397 183.68 36.0431C183.723 36.1466 183.743 36.258 183.74 36.37C183.742 36.4789 183.72 36.5868 183.677 36.6868C183.634 36.7868 183.57 36.8765 183.49 36.95C183.324 37.1004 183.109 37.1837 182.885 37.1837C182.661 37.1837 182.446 37.1004 182.28 36.95C182.2 36.8765 182.136 36.7868 182.093 36.6868C182.05 36.5868 182.028 36.4789 182.03 36.37C182.027 36.258 182.047 36.1466 182.09 36.0431C182.134 35.9397 182.198 35.8466 182.28 35.77C182.442 35.6169 182.657 35.5341 182.88 35.54Z" fill="#222222"/>
<path d="M196.39 28.51V28.75C196.18 28.7482 195.971 28.7786 195.77 28.84C195.704 28.8632 195.644 28.9016 195.596 28.9519C195.547 29.0022 195.511 29.0632 195.49 29.13C195.434 29.3418 195.41 29.561 195.42 29.78V35.78C195.382 36.0743 195.442 36.3728 195.59 36.63C195.817 36.7884 196.095 36.8562 196.37 36.82H196.73C196.73 37.1067 196.707 37.3867 196.66 37.66C196.613 37.9333 196.613 38.1433 196.66 38.29C196.645 38.5431 196.645 38.7969 196.66 39.05H196.38C196.344 38.6505 196.256 38.2573 196.12 37.88C196.027 37.6118 195.838 37.3874 195.59 37.25C195.277 37.1056 194.934 37.0404 194.59 37.06H191.4C191.056 37.04 190.713 37.1052 190.4 37.25C190.154 37.3878 189.969 37.6125 189.88 37.88C189.749 38.2588 189.662 38.6513 189.62 39.05H189.34C189.355 38.7969 189.355 38.5431 189.34 38.29C189.34 38.1433 189.34 37.9333 189.34 37.66C189.34 37.3867 189.317 37.1067 189.27 36.82H193.01C193.288 36.854 193.568 36.7865 193.8 36.63C193.954 36.3751 194.018 36.0755 193.98 35.78V29.78C194.018 29.4832 193.951 29.1824 193.79 28.93C193.575 28.7778 193.312 28.7101 193.05 28.74H193C192.813 28.7315 192.627 28.7586 192.45 28.82C192.388 28.8474 192.333 28.8887 192.29 28.9407C192.247 28.9928 192.216 29.0541 192.2 29.12C192.146 29.333 192.113 29.5507 192.1 29.77C192.053 30.3167 192.007 30.9133 191.96 31.56C191.913 32.2067 191.85 32.85 191.77 33.49C191.696 34.0828 191.573 34.6682 191.4 35.24C191.268 35.7074 191.036 36.1406 190.72 36.51C190.578 36.6678 190.404 36.7926 190.208 36.8755C190.013 36.9584 189.802 36.9975 189.59 36.99V36.76C189.766 36.7646 189.94 36.7302 190.101 36.6593C190.262 36.5884 190.405 36.4828 190.52 36.35C190.796 36.0224 191 35.641 191.12 35.23C191.286 34.7007 191.41 34.159 191.49 33.61C191.583 33.0033 191.653 32.3733 191.7 31.72C191.747 31.0667 191.79 30.4167 191.83 29.77C191.885 29.4887 191.836 29.197 191.69 28.95C191.445 28.7883 191.152 28.7143 190.86 28.74V28.5H191.46H192H192.54H193.06H193.89H194.78H195.89L196.39 28.51Z" fill="#222222"/>
<path d="M201.65 28.51V28.75C201.447 28.7493 201.244 28.7797 201.05 28.84C200.984 28.8633 200.924 28.9016 200.876 28.9519C200.827 29.0022 200.791 29.0632 200.77 29.13C200.714 29.3419 200.691 29.5611 200.7 29.78V35.78C200.691 35.999 200.714 36.2181 200.77 36.43C200.789 36.4976 200.825 36.5593 200.874 36.6099C200.923 36.6604 200.983 36.6982 201.05 36.72C201.245 36.7793 201.446 36.8129 201.65 36.82V37H200.92H199.08H198.36V36.76C198.567 36.7529 198.772 36.7193 198.97 36.66C199.037 36.639 199.098 36.6015 199.147 36.5508C199.196 36.5001 199.231 36.438 199.25 36.37C199.303 36.1576 199.327 35.9389 199.32 35.72V29.72C199.327 29.5012 199.303 29.2824 199.25 29.07C199.231 29.0025 199.195 28.9407 199.146 28.8902C199.097 28.8396 199.037 28.8018 198.97 28.78C198.773 28.7187 198.567 28.6883 198.36 28.69V28.45H199.08H200.92L201.65 28.51ZM204.82 29.26C204.82 29.4267 204.82 29.6 204.82 29.78L200.28 36.59V36.13L204.82 29.26ZM206.94 28.51V28.75C206.737 28.7484 206.534 28.7787 206.34 28.84C206.274 28.8633 206.214 28.9016 206.166 28.9519C206.117 29.0022 206.081 29.0632 206.06 29.13C206.004 29.3418 205.98 29.561 205.99 29.78V35.78C205.98 35.999 206.004 36.2182 206.06 36.43C206.079 36.4976 206.115 36.5593 206.164 36.6099C206.213 36.6604 206.273 36.6982 206.34 36.72C206.535 36.7794 206.736 36.813 206.94 36.82V37H206.23H204.4H203.66V36.76C203.864 36.7532 204.065 36.7195 204.26 36.66C204.327 36.6382 204.387 36.6004 204.436 36.5499C204.485 36.4993 204.521 36.4375 204.54 36.37C204.596 36.1581 204.619 35.939 204.61 35.72V29.72C204.619 29.5011 204.596 29.2819 204.54 29.07C204.519 29.0032 204.483 28.9422 204.434 28.8919C204.386 28.8416 204.326 28.8033 204.26 28.78C204.066 28.7187 203.863 28.6884 203.66 28.69V28.45H204.4H206.23L206.94 28.51Z" fill="#222222"/>
<path d="M211.75 28.34C212.389 28.3126 213.022 28.4837 213.56 28.83C213.781 28.9734 213.961 29.171 214.083 29.4038C214.206 29.6366 214.267 29.897 214.26 30.16C214.265 30.4765 214.182 30.7882 214.02 31.06C213.857 31.3287 213.643 31.5631 213.39 31.75C213.13 31.9434 212.848 32.1046 212.55 32.23C212.272 32.3511 211.984 32.4481 211.69 32.52C212.051 32.5293 212.41 32.5796 212.76 32.67C213.113 32.7526 213.451 32.891 213.76 33.08C214.041 33.2559 214.28 33.4914 214.46 33.77C214.647 34.0691 214.737 34.418 214.72 34.77C214.728 35.1439 214.627 35.512 214.43 35.83C214.231 36.1421 213.965 36.4053 213.65 36.6C213.306 36.813 212.932 36.9715 212.54 37.07C212.119 37.1792 211.685 37.233 211.25 37.23C210.872 37.2365 210.495 37.1894 210.13 37.09C209.851 37.0163 209.585 36.9017 209.34 36.75C209.183 36.6394 209.044 36.5044 208.93 36.35C208.815 36.1936 208.756 36.0038 208.76 35.81C208.756 35.7095 208.774 35.6095 208.812 35.5164C208.85 35.4233 208.907 35.3393 208.98 35.27C209.127 35.1351 209.321 35.0633 209.52 35.07C209.718 35.0626 209.911 35.1305 210.06 35.26C210.174 35.4019 210.235 35.5782 210.235 35.76C210.235 35.9418 210.174 36.1181 210.06 36.26C209.938 36.3908 209.776 36.4785 209.6 36.51C209.772 36.6659 209.983 36.773 210.21 36.82C210.535 36.9118 210.872 36.9556 211.21 36.95C211.499 36.9712 211.789 36.9294 212.06 36.8275C212.331 36.7257 212.577 36.5661 212.78 36.36C213.138 35.9289 213.324 35.3801 213.3 34.82C213.306 34.447 213.238 34.0765 213.1 33.73C212.972 33.416 212.762 33.1428 212.49 32.94C212.198 32.7328 211.848 32.6242 211.49 32.63L211.24 32.74C211.151 32.7563 211.059 32.7563 210.97 32.74C210.914 32.7553 210.856 32.7553 210.8 32.74C210.773 32.7234 210.751 32.6996 210.737 32.6714C210.723 32.6431 210.717 32.6115 210.72 32.58C210.72 32.4533 210.803 32.39 210.97 32.39H211.25H211.5C211.801 32.2953 212.075 32.1308 212.3 31.91C212.489 31.7057 212.627 31.4587 212.7 31.19C212.784 30.8838 212.824 30.5674 212.82 30.25C212.849 29.8036 212.737 29.3595 212.5 28.98C212.38 28.8333 212.227 28.7176 212.053 28.6428C211.878 28.568 211.689 28.5361 211.5 28.55C211.118 28.5346 210.742 28.655 210.44 28.89C210.152 29.1276 209.929 29.4336 209.79 29.78C209.638 30.1526 209.55 30.5482 209.53 30.95H209.25C209.25 30.4433 209.25 30.03 209.25 29.71C209.25 29.39 209.25 29.1267 209.25 28.92C209.25 28.71 209.25 28.53 209.25 28.38H209.53C209.545 28.526 209.575 28.6701 209.62 28.81C209.631 28.854 209.657 28.8928 209.694 28.9201C209.73 28.9474 209.775 28.9614 209.82 28.96C209.952 28.9383 210.076 28.8833 210.18 28.8L210.56 28.56C210.717 28.4711 210.885 28.4038 211.06 28.36C211.288 28.3268 211.52 28.3201 211.75 28.34Z" fill="#222222"/>
<path d="M220.12 28.46L223 36C223.069 36.2335 223.205 36.4419 223.39 36.6C223.508 36.6933 223.65 36.7521 223.8 36.77V37H223.12H221.39H220.69V36.76C220.964 36.7851 221.237 36.7105 221.46 36.55C221.567 36.4233 221.54 36.1567 221.38 35.75L219.22 29.91L219.41 29.69L217.41 34.91C217.245 35.2617 217.15 35.6421 217.13 36.03C217.123 36.1398 217.145 36.2495 217.194 36.3479C217.243 36.4464 217.318 36.5299 217.41 36.59C217.651 36.7117 217.92 36.7701 218.19 36.76V37H217.46H216.26H215.86V36.76C216.05 36.7059 216.223 36.6024 216.36 36.46C216.575 36.2225 216.738 35.9434 216.84 35.64L219.63 28.44H220.04L220.12 28.46ZM221.38 33.56V33.8H217.8L217.92 33.56H221.38Z" fill="#222222"/>
<path d="M228.48 28.51V28.75C228.277 28.7493 228.074 28.7797 227.88 28.84C227.814 28.8632 227.754 28.9015 227.706 28.9519C227.657 29.0022 227.621 29.0632 227.6 29.13C227.544 29.3419 227.52 29.561 227.53 29.78V35.78C227.521 35.9989 227.544 36.2181 227.6 36.43C227.619 36.4975 227.655 36.5593 227.704 36.6098C227.753 36.6604 227.813 36.6982 227.88 36.72C228.075 36.7793 228.276 36.8129 228.48 36.82V37H227.75H225.91H225.19V36.76C225.397 36.7529 225.602 36.7193 225.8 36.66C225.867 36.639 225.928 36.6015 225.977 36.5508C226.026 36.5001 226.061 36.4379 226.08 36.37C226.133 36.1576 226.157 35.9389 226.15 35.72V29.72C226.157 29.5011 226.133 29.2824 226.08 29.07C226.061 29.0025 226.025 28.9407 225.976 28.8902C225.927 28.8396 225.867 28.8018 225.8 28.78C225.602 28.7186 225.397 28.6883 225.19 28.69V28.45H225.91H227.75L228.48 28.51ZM231.33 25.67C231.528 25.6605 231.722 25.7287 231.87 25.86C231.94 25.9264 231.996 26.0072 232.032 26.097C232.068 26.1867 232.085 26.2833 232.08 26.38C232.082 26.5473 232.025 26.7099 231.92 26.84C231.789 26.9952 231.629 27.1241 231.45 27.22C231.19 27.3557 230.915 27.4598 230.63 27.53C229.88 27.7056 229.1 27.7056 228.35 27.53C228.068 27.4615 227.796 27.3573 227.54 27.22C227.359 27.1307 227.199 27.0047 227.07 26.85C226.965 26.716 226.908 26.5503 226.91 26.38C226.905 26.2833 226.922 26.1867 226.958 26.097C226.994 26.0072 227.049 25.9264 227.12 25.86C227.269 25.7296 227.462 25.6616 227.66 25.67C227.857 25.6655 228.049 25.7331 228.2 25.86C228.274 25.9241 228.332 26.0043 228.37 26.0944C228.409 26.1846 228.425 26.2823 228.42 26.38C228.426 26.5389 228.368 26.6935 228.26 26.81C228.148 26.9246 228.006 27.0044 227.85 27.04C228.084 27.2069 228.355 27.3135 228.64 27.35C229.209 27.4531 229.791 27.4531 230.36 27.35C230.645 27.3135 230.916 27.2069 231.15 27.04C230.99 27.0086 230.843 26.9283 230.73 26.81C230.623 26.6929 230.565 26.5387 230.57 26.38C230.565 26.2824 230.582 26.1849 230.621 26.0949C230.659 26.0048 230.717 25.9246 230.79 25.86C230.941 25.7331 231.133 25.6655 231.33 25.67ZM231.65 29.25C231.65 29.4167 231.65 29.59 231.65 29.77L227.11 36.58V36.12L231.65 29.25ZM233.77 28.5V28.74C233.566 28.7383 233.364 28.7687 233.17 28.83C233.104 28.8532 233.044 28.8915 232.996 28.9419C232.947 28.9922 232.911 29.0532 232.89 29.12C232.834 29.3318 232.81 29.551 232.82 29.77V35.77C232.81 35.989 232.834 36.2081 232.89 36.42C232.909 36.4875 232.945 36.5493 232.994 36.5998C233.043 36.6504 233.103 36.6882 233.17 36.71C233.365 36.7694 233.566 36.803 233.77 36.81V37H233.06H231.23H230.49V36.76C230.693 36.7531 230.895 36.7195 231.09 36.66C231.157 36.6382 231.217 36.6004 231.266 36.5498C231.315 36.4993 231.351 36.4375 231.37 36.37C231.426 36.1581 231.449 35.9389 231.44 35.72V29.72C231.449 29.501 231.426 29.2819 231.37 29.07C231.349 29.0032 231.313 28.9422 231.264 28.8919C231.216 28.8415 231.156 28.8032 231.09 28.78C230.896 28.7187 230.693 28.6883 230.49 28.69V28.45H231.23H233.06L233.77 28.5Z" fill="#222222"/>
<path d="M235.67 37V36.76C235.877 36.7534 236.082 36.7198 236.28 36.66C236.345 36.6376 236.404 36.5994 236.451 36.5489C236.498 36.4983 236.532 36.4368 236.55 36.37C236.603 36.1576 236.627 35.9389 236.62 35.72V29.72C236.627 29.5012 236.603 29.2824 236.55 29.07C236.531 29.0025 236.495 28.9407 236.446 28.8902C236.397 28.8396 236.337 28.8018 236.27 28.78C236.073 28.7187 235.867 28.6883 235.66 28.69V28.45H236.38H238.22H238.95V28.69C238.747 28.6893 238.544 28.7197 238.35 28.78C238.284 28.8033 238.224 28.8416 238.176 28.8919C238.127 28.9422 238.091 29.0032 238.07 29.07C238.014 29.2819 237.991 29.5011 238 29.72V35.72C237.991 35.939 238.014 36.1581 238.07 36.37C238.089 36.4375 238.125 36.4993 238.174 36.5499C238.223 36.6004 238.283 36.6382 238.35 36.66C238.545 36.7193 238.747 36.7529 238.95 36.76V37H238.22H236.38H235.67ZM237.46 32.84V32.6H242.21V32.84H237.46ZM240.72 37V36.76C240.927 36.7533 241.132 36.7197 241.33 36.66C241.395 36.6376 241.454 36.5994 241.501 36.5489C241.548 36.4983 241.582 36.4368 241.6 36.37C241.653 36.1576 241.677 35.9389 241.67 35.72V29.72C241.677 29.5012 241.653 29.2824 241.6 29.07C241.581 29.0025 241.545 28.9407 241.496 28.8902C241.447 28.8396 241.387 28.8018 241.32 28.78C241.123 28.7187 240.917 28.6883 240.71 28.69V28.45H241.46H243.29H243.99V28.69C243.787 28.6884 243.584 28.7187 243.39 28.78C243.324 28.8033 243.264 28.8416 243.216 28.8919C243.167 28.9422 243.131 29.0032 243.11 29.07C243.054 29.2819 243.031 29.5011 243.04 29.72V35.72C243.031 35.939 243.054 36.1581 243.11 36.37C243.129 36.4375 243.165 36.4993 243.214 36.5499C243.263 36.6004 243.323 36.6382 243.39 36.66C243.585 36.7194 243.787 36.753 243.99 36.76V37H243.29H241.46H240.72Z" fill="#222222"/>
</g>
<defs>
<clipPath id="clip0">
<rect width="244" height="39" fill="white"/>
</clipPath>
</defs>
</svg>
