<svg width="16" height="16" viewBox="0 0 16 16" fill="none" xmlns="http://www.w3.org/2000/svg">
<path d="M14.6667 0H1.33333C0.6 0 0 0.6 0 1.33333V14.6667C0 15.4 0.6 16 1.33333 16H14.6667C15.4 16 16 15.4 16 14.6667V1.33333C16 0.6 15.4 0 14.6667 0ZM12.7333 11H11.6C11.2 11 11.0667 10.6667 10.2667 9.93333C9.6 9.33333 9.33333 9.2 9.13333 9.2C8.8 9.2 8.86667 9.33333 8.86667 10.6C8.86667 10.8667 8.8 11 8.06667 11C6.86667 11 5.53333 10.2667 4.66667 9C3.26667 7.06667 2.86667 5.6 2.86667 5.33333C2.86667 5.2 2.93333 5 3.26667 5H4.4C4.66667 5 4.8 5.13333 4.93333 5.4C5.46667 7 6.4 8.33333 6.8 8.33333C6.93333 8.33333 7 8.26667 7 7.93333V6.33333C6.93333 5.6 6.53333 5.53333 6.53333 5.26667C6.53333 5.13333 6.66667 5 6.8 5H8.6C8.86667 5 8.93333 5.13333 8.93333 5.4V7.6C8.93333 7.86667 9.06667 7.93333 9.13333 7.93333C9.26667 7.93333 9.4 7.86667 9.66667 7.6C10.4 6.66667 10.9333 5.33333 10.9333 5.33333C11 5.2 11.1333 5 11.4 5H12.5333C12.8667 5 12.9333 5.2 12.8667 5.4C12.7333 6.06667 11.3333 7.93333 11.3333 7.93333C11.2 8.13333 11.2 8.2 11.3333 8.4C11.4 8.46667 12.8667 9.86667 13.0667 10.4667C13.2 10.8667 13.0667 11 12.7333 11Z" fill="white"/>
</svg>
